{
	"asset":{
		"generator":"Khronos glTF Blender I/O v3.6.27",
		"version":"2.0"
	},
	"scene":0,
	"scenes":[
		{
			"name":"Scene",
			"nodes":[
				0,
				1,
				2,
				3
			]
		}
	],
	"nodes":[
		{
			"mesh":0,
			"name":"Feesh",
			"scale":[
				1,
				0.5258157849311829,
				1
			]
		},
		{
			"mesh":1,
			"name":"Eye",
			"scale":[
				0.15030640363693237,
				0.15030640363693237,
				0.15030640363693237
			],
			"translation":[
				1.8978315591812134,
				0.48305803537368774,
				0.6272047162055969
			]
		},
		{
			"mesh":2,
			"name":"Eyesmall",
			"scale":[
				0.06480155140161514,
				0.06480155140161514,
				0.06480155140161514
			],
			"translation":[
				1.9743825197219849,
				0.47256118059158325,
				0.6501188278198242
			]
		},
		{
			"mesh":3,
			"name":"Sphere",
			"scale":[
				0.19700734317302704,
				0.19700734317302704,
				0.19700734317302704
			],
			"translation":[
				0.7508143782615662,
				-0.37163427472114563,
				-1.346915364265442
			]
		}
	],
	"animations":[
		{
			"channels":[
				{
					"sampler":0,
					"target":{
						"node":0,
						"path":"translation"
					}
				},
				{
					"sampler":1,
					"target":{
						"node":0,
						"path":"rotation"
					}
				},
				{
					"sampler":2,
					"target":{
						"node":0,
						"path":"scale"
					}
				}
			],
			"name":"FeeshAction",
			"samplers":[
				{
					"input":19,
					"interpolation":"LINEAR",
					"output":20
				},
				{
					"input":19,
					"interpolation":"LINEAR",
					"output":21
				},
				{
					"input":19,
					"interpolation":"LINEAR",
					"output":22
				}
			]
		}
	],
	"materials":[
		{
			"doubleSided":true,
			"name":"Material",
			"pbrMetallicRoughness":{
				"baseColorTexture":{
					"index":0
				},
				"metallicFactor":0,
				"roughnessFactor":0.4000000059604645
			}
		},
		{
			"doubleSided":true,
			"name":"Material.004",
			"pbrMetallicRoughness":{
				"baseColorTexture":{
					"index":1
				},
				"metallicFactor":0,
				"roughnessFactor":0.5
			}
		},
		{
			"doubleSided":true,
			"name":"Material.005",
			"pbrMetallicRoughness":{
				"baseColorTexture":{
					"index":2
				},
				"metallicFactor":0,
				"roughnessFactor":0.5
			}
		},
		{
			"doubleSided":true,
			"name":"Material.001",
			"pbrMetallicRoughness":{
				"baseColorTexture":{
					"index":3
				},
				"metallicFactor":0,
				"roughnessFactor":0.5
			}
		}
	],
	"meshes":[
		{
			"name":"Cube",
			"primitives":[
				{
					"attributes":{
						"POSITION":0,
						"NORMAL":1,
						"TEXCOORD_0":2,
						"TANGENT":3
					},
					"indices":4,
					"material":0
				}
			]
		},
		{
			"name":"Sphere",
			"primitives":[
				{
					"attributes":{
						"POSITION":5,
						"NORMAL":6,
						"TEXCOORD_0":7,
						"TANGENT":8
					},
					"indices":9,
					"material":1
				}
			]
		},
		{
			"name":"Sphere.001",
			"primitives":[
				{
					"attributes":{
						"POSITION":10,
						"NORMAL":11,
						"TEXCOORD_0":12,
						"TANGENT":13
					},
					"indices":9,
					"material":2
				}
			]
		},
		{
			"name":"Sphere.002",
			"primitives":[
				{
					"attributes":{
						"POSITION":14,
						"NORMAL":15,
						"TEXCOORD_0":16,
						"TANGENT":17
					},
					"indices":18,
					"material":3
				}
			]
		}
	],
	"textures":[
		{
			"sampler":0,
			"source":0
		},
		{
			"sampler":0,
			"source":1
		},
		{
			"sampler":0,
			"source":2
		},
		{
			"sampler":0,
			"source":0
		}
	],
	"images":[
		{
			"mimeType":"image/png",
			"name":"bro_fish",
			"uri":"../../Assets/Textures/bro_fish.png"
		},
		{
			"mimeType":"image/png",
			"name":"Eyeball-texture.png",
			"uri":"../../Assets/Textures/Eyeball-texture.png"
		},
		{
			"mimeType":"image/png",
			"name":"eyesmall.png",
			"uri":"../../Assets/Textures/eyesmall.png"
		}
	],
	"accessors":[
		{
			"bufferView":0,
			"componentType":5126,
			"count":229,
			"max":[
				2.741283893585205,
				2.263441801071167,
				1.2491631507873535
			],
			"min":[
				-3.5257725715637207,
				-2.2549374103546143,
				-1.2491631507873535
			],
			"type":"VEC3"
		},
		{
			"bufferView":1,
			"componentType":5126,
			"count":229,
			"type":"VEC3"
		},
		{
			"bufferView":2,
			"componentType":5126,
			"count":229,
			"type":"VEC2"
		},
		{
			"bufferView":3,
			"componentType":5126,
			"count":229,
			"type":"VEC4"
		},
		{
			"bufferView":4,
			"componentType":5123,
			"count":612,
			"type":"SCALAR"
		},
		{
			"bufferView":5,
			"componentType":5126,
			"count":1118,
			"max":[
				0.9999997019767761,
				1,
				0.9999994039535522
			],
			"min":[
				-0.9999999403953552,
				-1,
				-9.345680236816406
			],
			"type":"VEC3"
		},
		{
			"bufferView":6,
			"componentType":5126,
			"count":1118,
			"type":"VEC3"
		},
		{
			"bufferView":7,
			"componentType":5126,
			"count":1118,
			"type":"VEC2"
		},
		{
			"bufferView":8,
			"componentType":5126,
			"count":1118,
			"type":"VEC4"
		},
		{
			"bufferView":9,
			"componentType":5123,
			"count":5760,
			"type":"SCALAR"
		},
		{
			"bufferView":10,
			"componentType":5126,
			"count":1118,
			"max":[
				1.2979286909103394,
				1.2979298830032349,
				1.2979321479797363
			],
			"min":[
				-1.2979451417922974,
				-1.297944188117981,
				-21.36284637451172
			],
			"type":"VEC3"
		},
		{
			"bufferView":11,
			"componentType":5126,
			"count":1118,
			"type":"VEC3"
		},
		{
			"bufferView":12,
			"componentType":5126,
			"count":1118,
			"type":"VEC2"
		},
		{
			"bufferView":13,
			"componentType":5126,
			"count":1118,
			"type":"VEC4"
		},
		{
			"bufferView":14,
			"componentType":5126,
			"count":1118,
			"max":[
				0.9999997019767761,
				1,
				14.673757553100586
			],
			"min":[
				-0.9999990463256836,
				-1,
				-1
			],
			"type":"VEC3"
		},
		{
			"bufferView":15,
			"componentType":5126,
			"count":1118,
			"type":"VEC3"
		},
		{
			"bufferView":16,
			"componentType":5126,
			"count":1118,
			"type":"VEC2"
		},
		{
			"bufferView":17,
			"componentType":5126,
			"count":1118,
			"type":"VEC4"
		},
		{
			"bufferView":18,
			"componentType":5123,
			"count":5760,
			"type":"SCALAR"
		},
		{
			"bufferView":19,
			"componentType":5126,
			"count":1,
			"max":[
				0.041666666666666664
			],
			"min":[
				0.041666666666666664
			],
			"type":"SCALAR"
		},
		{
			"bufferView":20,
			"componentType":5126,
			"count":1,
			"type":"VEC3"
		},
		{
			"bufferView":21,
			"componentType":5126,
			"count":1,
			"type":"VEC4"
		},
		{
			"bufferView":22,
			"componentType":5126,
			"count":1,
			"type":"VEC3"
		}
	],
	"bufferViews":[
		{
			"buffer":0,
			"byteLength":2748,
			"byteOffset":0,
			"target":34962
		},
		{
			"buffer":0,
			"byteLength":2748,
			"byteOffset":2748,
			"target":34962
		},
		{
			"buffer":0,
			"byteLength":1832,
			"byteOffset":5496,
			"target":34962
		},
		{
			"buffer":0,
			"byteLength":3664,
			"byteOffset":7328,
			"target":34962
		},
		{
			"buffer":0,
			"byteLength":1224,
			"byteOffset":10992,
			"target":34963
		},
		{
			"buffer":0,
			"byteLength":13416,
			"byteOffset":12216,
			"target":34962
		},
		{
			"buffer":0,
			"byteLength":13416,
			"byteOffset":25632,
			"target":34962
		},
		{
			"buffer":0,
			"byteLength":8944,
			"byteOffset":39048,
			"target":34962
		},
		{
			"buffer":0,
			"byteLength":17888,
			"byteOffset":47992,
			"target":34962
		},
		{
			"buffer":0,
			"byteLength":11520,
			"byteOffset":65880,
			"target":34963
		},
		{
			"buffer":0,
			"byteLength":13416,
			"byteOffset":77400,
			"target":34962
		},
		{
			"buffer":0,
			"byteLength":13416,
			"byteOffset":90816,
			"target":34962
		},
		{
			"buffer":0,
			"byteLength":8944,
			"byteOffset":104232,
			"target":34962
		},
		{
			"buffer":0,
			"byteLength":17888,
			"byteOffset":113176,
			"target":34962
		},
		{
			"buffer":0,
			"byteLength":13416,
			"byteOffset":131064,
			"target":34962
		},
		{
			"buffer":0,
			"byteLength":13416,
			"byteOffset":144480,
			"target":34962
		},
		{
			"buffer":0,
			"byteLength":8944,
			"byteOffset":157896,
			"target":34962
		},
		{
			"buffer":0,
			"byteLength":17888,
			"byteOffset":166840,
			"target":34962
		},
		{
			"buffer":0,
			"byteLength":11520,
			"byteOffset":184728,
			"target":34963
		},
		{
			"buffer":0,
			"byteLength":4,
			"byteOffset":196248
		},
		{
			"buffer":0,
			"byteLength":12,
			"byteOffset":196252
		},
		{
			"buffer":0,
			"byteLength":16,
			"byteOffset":196264
		},
		{
			"buffer":0,
			"byteLength":12,
			"byteOffset":196280
		}
	],
	"samplers":[
		{
			"magFilter":9729,
			"minFilter":9987
		}
	],
	"buffers":[
		{
			"byteLength":196292,
			"uri":"bro_fish-096aba543227900c1826f29c5e43f422.bin"
		}
	]
}
