{
	"asset":{
		"generator":"Khronos glTF Blender I/O v3.6.27",
		"version":"2.0"
	},
	"scene":0,
	"scenes":[
		{
			"name":"Scene",
			"nodes":[
				0,
				1,
				2,
				3,
				4,
				5
			]
		}
	],
	"nodes":[
		{
			"mesh":0,
			"name":"Feesh"
		},
		{
			"mesh":1,
			"name":"Eye",
			"scale":[
				0.15030640363693237,
				0.15030640363693237,
				0.15030640363693237
			],
			"translation":[
				1.959871768951416,
				0.6416879892349243,
				0.6050188541412354
			]
		},
		{
			"mesh":2,
			"name":"Eyesmall",
			"scale":[
				0.06480155140161514,
				0.06480155140161514,
				0.06480155140161514
			],
			"translation":[
				2.0364227294921875,
				0.6311911344528198,
				0.6279329657554626
			]
		},
		{
			"mesh":3,
			"name":"Sphere",
			"scale":[
				0.19700734317302704,
				0.19700734317302704,
				0.19700734317302704
			],
			"translation":[
				0.7508143782615662,
				-0.37163427472114563,
				-1.346915364265442
			]
		},
		{
			"name":"Empty",
			"translation":[
				2.545736789703369,
				0.026839811354875565,
				0
			]
		},
		{
			"name":"Empty.001",
			"translation":[
				-3.2493834495544434,
				-0.004117831587791443,
				0
			]
		}
	],
	"animations":[
		{
			"channels":[
				{
					"sampler":0,
					"target":{
						"node":0,
						"path":"translation"
					}
				},
				{
					"sampler":1,
					"target":{
						"node":0,
						"path":"rotation"
					}
				},
				{
					"sampler":2,
					"target":{
						"node":0,
						"path":"scale"
					}
				}
			],
			"name":"FeeshAction",
			"samplers":[
				{
					"input":19,
					"interpolation":"LINEAR",
					"output":20
				},
				{
					"input":19,
					"interpolation":"LINEAR",
					"output":21
				},
				{
					"input":19,
					"interpolation":"LINEAR",
					"output":22
				}
			]
		},
		{
			"channels":[
				{
					"sampler":0,
					"target":{
						"node":4,
						"path":"translation"
					}
				},
				{
					"sampler":1,
					"target":{
						"node":4,
						"path":"rotation"
					}
				}
			],
			"name":"Eat",
			"samplers":[
				{
					"input":23,
					"interpolation":"LINEAR",
					"output":24
				},
				{
					"input":25,
					"interpolation":"STEP",
					"output":26
				}
			]
		},
		{
			"channels":[
				{
					"sampler":0,
					"target":{
						"node":4,
						"path":"translation"
					}
				},
				{
					"sampler":1,
					"target":{
						"node":4,
						"path":"rotation"
					}
				}
			],
			"name":"EmptyAction",
			"samplers":[
				{
					"input":23,
					"interpolation":"LINEAR",
					"output":27
				},
				{
					"input":25,
					"interpolation":"STEP",
					"output":28
				}
			]
		},
		{
			"channels":[
				{
					"sampler":0,
					"target":{
						"node":5,
						"path":"translation"
					}
				},
				{
					"sampler":1,
					"target":{
						"node":5,
						"path":"rotation"
					}
				}
			],
			"name":"Swim",
			"samplers":[
				{
					"input":29,
					"interpolation":"STEP",
					"output":30
				},
				{
					"input":31,
					"interpolation":"LINEAR",
					"output":32
				}
			]
		}
	],
	"materials":[
		{
			"doubleSided":true,
			"name":"Material",
			"pbrMetallicRoughness":{
				"baseColorTexture":{
					"index":0
				},
				"metallicFactor":0,
				"roughnessFactor":0.4000000059604645
			}
		},
		{
			"doubleSided":true,
			"name":"Material.004",
			"pbrMetallicRoughness":{
				"baseColorTexture":{
					"index":1
				},
				"metallicFactor":0,
				"roughnessFactor":0.5
			}
		},
		{
			"doubleSided":true,
			"name":"Material.005",
			"pbrMetallicRoughness":{
				"baseColorTexture":{
					"index":2
				},
				"metallicFactor":0,
				"roughnessFactor":0.5
			}
		},
		{
			"doubleSided":true,
			"name":"Material.001",
			"pbrMetallicRoughness":{
				"baseColorTexture":{
					"index":3
				},
				"metallicFactor":0,
				"roughnessFactor":0.5
			}
		}
	],
	"meshes":[
		{
			"name":"Cube",
			"primitives":[
				{
					"attributes":{
						"POSITION":0,
						"NORMAL":1,
						"TEXCOORD_0":2,
						"TANGENT":3
					},
					"indices":4,
					"material":0
				}
			]
		},
		{
			"name":"Sphere",
			"primitives":[
				{
					"attributes":{
						"POSITION":5,
						"NORMAL":6,
						"TEXCOORD_0":7,
						"TANGENT":8
					},
					"indices":9,
					"material":1
				}
			]
		},
		{
			"name":"Sphere.001",
			"primitives":[
				{
					"attributes":{
						"POSITION":10,
						"NORMAL":11,
						"TEXCOORD_0":12,
						"TANGENT":13
					},
					"indices":9,
					"material":2
				}
			]
		},
		{
			"name":"Sphere.002",
			"primitives":[
				{
					"attributes":{
						"POSITION":14,
						"NORMAL":15,
						"TEXCOORD_0":16,
						"TANGENT":17
					},
					"indices":18,
					"material":3
				}
			]
		}
	],
	"textures":[
		{
			"sampler":0,
			"source":0
		},
		{
			"sampler":0,
			"source":1
		},
		{
			"sampler":0,
			"source":2
		},
		{
			"sampler":0,
			"source":0
		}
	],
	"images":[
		{
			"mimeType":"image/png",
			"name":"bro_fish",
			"uri":"../../Assets/Textures/bro_fish.png"
		},
		{
			"mimeType":"image/png",
			"name":"Eyeball-texture.png",
			"uri":"../../Assets/Textures/Eyeball-texture.png"
		},
		{
			"mimeType":"image/png",
			"name":"eyesmall.png",
			"uri":"../../Assets/Textures/eyesmall.png"
		}
	],
	"accessors":[
		{
			"bufferView":0,
			"componentType":5126,
			"count":228,
			"max":[
				2.741283893585205,
				2.263441801071167,
				1.2491631507873535
			],
			"min":[
				-3.5257725715637207,
				-2.2549374103546143,
				-1.2491631507873535
			],
			"type":"VEC3"
		},
		{
			"bufferView":1,
			"componentType":5126,
			"count":228,
			"type":"VEC3"
		},
		{
			"bufferView":2,
			"componentType":5126,
			"count":228,
			"type":"VEC2"
		},
		{
			"bufferView":3,
			"componentType":5126,
			"count":228,
			"type":"VEC4"
		},
		{
			"bufferView":4,
			"componentType":5123,
			"count":612,
			"type":"SCALAR"
		},
		{
			"bufferView":5,
			"componentType":5126,
			"count":1118,
			"max":[
				0.9999997019767761,
				1,
				0.9999994039535522
			],
			"min":[
				-0.9999990463256836,
				-1,
				-9.050472259521484
			],
			"type":"VEC3"
		},
		{
			"bufferView":6,
			"componentType":5126,
			"count":1118,
			"type":"VEC3"
		},
		{
			"bufferView":7,
			"componentType":5126,
			"count":1118,
			"type":"VEC2"
		},
		{
			"bufferView":8,
			"componentType":5126,
			"count":1118,
			"type":"VEC4"
		},
		{
			"bufferView":9,
			"componentType":5123,
			"count":5760,
			"type":"SCALAR"
		},
		{
			"bufferView":10,
			"componentType":5126,
			"count":1118,
			"max":[
				1.2979286909103394,
				1.297930359840393,
				1.2979321479797363
			],
			"min":[
				-1.2979451417922974,
				-1.297944188117981,
				-20.678112030029297
			],
			"type":"VEC3"
		},
		{
			"bufferView":11,
			"componentType":5126,
			"count":1118,
			"type":"VEC3"
		},
		{
			"bufferView":12,
			"componentType":5126,
			"count":1118,
			"type":"VEC2"
		},
		{
			"bufferView":13,
			"componentType":5126,
			"count":1118,
			"type":"VEC4"
		},
		{
			"bufferView":14,
			"componentType":5126,
			"count":1118,
			"max":[
				0.9999997019767761,
				1.0000001192092896,
				14.673758506774902
			],
			"min":[
				-0.9999990463256836,
				-1,
				-1
			],
			"type":"VEC3"
		},
		{
			"bufferView":15,
			"componentType":5126,
			"count":1118,
			"type":"VEC3"
		},
		{
			"bufferView":16,
			"componentType":5126,
			"count":1118,
			"type":"VEC2"
		},
		{
			"bufferView":17,
			"componentType":5126,
			"count":1118,
			"type":"VEC4"
		},
		{
			"bufferView":18,
			"componentType":5123,
			"count":5760,
			"type":"SCALAR"
		},
		{
			"bufferView":19,
			"componentType":5126,
			"count":1,
			"max":[
				0.041666666666666664
			],
			"min":[
				0.041666666666666664
			],
			"type":"SCALAR"
		},
		{
			"bufferView":20,
			"componentType":5126,
			"count":1,
			"type":"VEC3"
		},
		{
			"bufferView":21,
			"componentType":5126,
			"count":1,
			"type":"VEC4"
		},
		{
			"bufferView":22,
			"componentType":5126,
			"count":1,
			"type":"VEC3"
		},
		{
			"bufferView":23,
			"componentType":5126,
			"count":120,
			"max":[
				5
			],
			"min":[
				0.041666666666666664
			],
			"type":"SCALAR"
		},
		{
			"bufferView":24,
			"componentType":5126,
			"count":120,
			"type":"VEC3"
		},
		{
			"bufferView":25,
			"componentType":5126,
			"count":2,
			"max":[
				5
			],
			"min":[
				0.041666666666666664
			],
			"type":"SCALAR"
		},
		{
			"bufferView":26,
			"componentType":5126,
			"count":2,
			"type":"VEC4"
		},
		{
			"bufferView":27,
			"componentType":5126,
			"count":120,
			"type":"VEC3"
		},
		{
			"bufferView":28,
			"componentType":5126,
			"count":2,
			"type":"VEC4"
		},
		{
			"bufferView":29,
			"componentType":5126,
			"count":2,
			"max":[
				3.3333333333333335
			],
			"min":[
				0.041666666666666664
			],
			"type":"SCALAR"
		},
		{
			"bufferView":30,
			"componentType":5126,
			"count":2,
			"type":"VEC3"
		},
		{
			"bufferView":31,
			"componentType":5126,
			"count":80,
			"max":[
				3.3333333333333335
			],
			"min":[
				0.041666666666666664
			],
			"type":"SCALAR"
		},
		{
			"bufferView":32,
			"componentType":5126,
			"count":80,
			"type":"VEC4"
		}
	],
	"bufferViews":[
		{
			"buffer":0,
			"byteLength":2736,
			"byteOffset":0,
			"target":34962
		},
		{
			"buffer":0,
			"byteLength":2736,
			"byteOffset":2736,
			"target":34962
		},
		{
			"buffer":0,
			"byteLength":1824,
			"byteOffset":5472,
			"target":34962
		},
		{
			"buffer":0,
			"byteLength":3648,
			"byteOffset":7296,
			"target":34962
		},
		{
			"buffer":0,
			"byteLength":1224,
			"byteOffset":10944,
			"target":34963
		},
		{
			"buffer":0,
			"byteLength":13416,
			"byteOffset":12168,
			"target":34962
		},
		{
			"buffer":0,
			"byteLength":13416,
			"byteOffset":25584,
			"target":34962
		},
		{
			"buffer":0,
			"byteLength":8944,
			"byteOffset":39000,
			"target":34962
		},
		{
			"buffer":0,
			"byteLength":17888,
			"byteOffset":47944,
			"target":34962
		},
		{
			"buffer":0,
			"byteLength":11520,
			"byteOffset":65832,
			"target":34963
		},
		{
			"buffer":0,
			"byteLength":13416,
			"byteOffset":77352,
			"target":34962
		},
		{
			"buffer":0,
			"byteLength":13416,
			"byteOffset":90768,
			"target":34962
		},
		{
			"buffer":0,
			"byteLength":8944,
			"byteOffset":104184,
			"target":34962
		},
		{
			"buffer":0,
			"byteLength":17888,
			"byteOffset":113128,
			"target":34962
		},
		{
			"buffer":0,
			"byteLength":13416,
			"byteOffset":131016,
			"target":34962
		},
		{
			"buffer":0,
			"byteLength":13416,
			"byteOffset":144432,
			"target":34962
		},
		{
			"buffer":0,
			"byteLength":8944,
			"byteOffset":157848,
			"target":34962
		},
		{
			"buffer":0,
			"byteLength":17888,
			"byteOffset":166792,
			"target":34962
		},
		{
			"buffer":0,
			"byteLength":11520,
			"byteOffset":184680,
			"target":34963
		},
		{
			"buffer":0,
			"byteLength":4,
			"byteOffset":196200
		},
		{
			"buffer":0,
			"byteLength":12,
			"byteOffset":196204
		},
		{
			"buffer":0,
			"byteLength":16,
			"byteOffset":196216
		},
		{
			"buffer":0,
			"byteLength":12,
			"byteOffset":196232
		},
		{
			"buffer":0,
			"byteLength":480,
			"byteOffset":196244
		},
		{
			"buffer":0,
			"byteLength":1440,
			"byteOffset":196724
		},
		{
			"buffer":0,
			"byteLength":8,
			"byteOffset":198164
		},
		{
			"buffer":0,
			"byteLength":32,
			"byteOffset":198172
		},
		{
			"buffer":0,
			"byteLength":1440,
			"byteOffset":198204
		},
		{
			"buffer":0,
			"byteLength":32,
			"byteOffset":199644
		},
		{
			"buffer":0,
			"byteLength":8,
			"byteOffset":199676
		},
		{
			"buffer":0,
			"byteLength":24,
			"byteOffset":199684
		},
		{
			"buffer":0,
			"byteLength":320,
			"byteOffset":199708
		},
		{
			"buffer":0,
			"byteLength":1280,
			"byteOffset":200028
		}
	],
	"samplers":[
		{
			"magFilter":9729,
			"minFilter":9987
		}
	],
	"buffers":[
		{
			"byteLength":201308,
			"uri":"bro_fish2-0654435d8bbb1e7006b3b3b14935a613.bin"
		}
	]
}
