{
	"asset":{
		"generator":"Khronos glTF Blender I/O v3.6.27",
		"version":"2.0"
	},
	"scene":0,
	"scenes":[
		{
			"name":"Scene",
			"nodes":[
				0,
				1,
				2,
				3,
				4,
				5,
				6,
				7,
				8,
				9,
				10,
				11,
				12,
				13,
				14,
				15
			]
		}
	],
	"nodes":[
		{
			"mesh":0,
			"name":"Cylinder",
			"rotation":[
				0.8697482347488403,
				0.12968336045742035,
				0.3194122314453125,
				0.3531233072280884
			],
			"scale":[
				0.029330642893910408,
				0.320535808801651,
				0.02933063730597496
			],
			"translation":[
				-0.005203052889555693,
				0.011846475303173065,
				0.13788597285747528
			]
		},
		{
			"mesh":1,
			"name":"Cylinder.001",
			"rotation":[
				0.4415649175643921,
				0.038299478590488434,
				0.018870186060667038,
				0.8962128758430481
			],
			"scale":[
				0.02933063916862011,
				0.320535808801651,
				0.02933064103126526
			],
			"translation":[
				-0.021950984373688698,
				-0.0028889402747154236,
				-0.020350240170955658
			]
		},
		{
			"mesh":2,
			"name":"Cylinder.002",
			"rotation":[
				0.6532818078994751,
				-0.270597904920578,
				0.6532812118530273,
				0.2705982029438019
			],
			"scale":[
				0.02933063916862011,
				0.320535808801651,
				0.02933063916862011
			],
			"translation":[
				-0.1243540495634079,
				0.011846475303173065,
				0.009396091103553772
			]
		},
		{
			"mesh":3,
			"name":"Cylinder.003",
			"rotation":[
				0.6532815098762512,
				0.27059805393218994,
				-0.6532815098762512,
				0.27059802412986755
			],
			"scale":[
				0.02933063916862011,
				0.320535808801651,
				0.02933063916862011
			],
			"translation":[
				0.11617480218410492,
				0.011846475303173065,
				0.009396091103553772
			]
		},
		{
			"mesh":4,
			"name":"Icosphere",
			"scale":[
				0.10258253663778305,
				0.08104688674211502,
				0.1561248004436493
			],
			"translation":[
				0,
				-0.18128961324691772,
				0.25602924823760986
			]
		},
		{
			"mesh":5,
			"name":"Icosphere.001",
			"rotation":[
				0,
				0.4172866642475128,
				0,
				0.9087750315666199
			],
			"scale":[
				0.12520603835582733,
				0.09892091900110245,
				0.19055648148059845
			],
			"translation":[
				0.17324060201644897,
				-0.1898365169763565,
				0.16727857291698456
			]
		},
		{
			"mesh":6,
			"name":"Icosphere.002",
			"rotation":[
				0,
				0.6930564641952515,
				0,
				0.7208833694458008
			],
			"scale":[
				0.10258254408836365,
				0.08104688674211502,
				0.1561248004436493
			],
			"translation":[
				0.2919100821018219,
				-0.1898365169763565,
				0.02883085608482361
			]
		},
		{
			"mesh":7,
			"name":"Icosphere.003",
			"rotation":[
				0,
				0.895805835723877,
				0,
				0.4444456696510315
			],
			"scale":[
				0.10258253663778305,
				0.08104688674211502,
				0.1561248004436493
			],
			"translation":[
				0.1890631914138794,
				-0.1898365169763565,
				-0.13137294352054596
			]
		},
		{
			"mesh":8,
			"name":"Icosphere.004",
			"rotation":[
				0,
				0.997993528842926,
				0,
				0.06331611424684525
			],
			"scale":[
				0.10258253663778305,
				0.08104688674211502,
				0.1561248004436493
			],
			"translation":[
				0.11983932554721832,
				-0.1898365169763565,
				-0.1590624898672104
			]
		},
		{
			"mesh":9,
			"name":"Icosphere.005",
			"rotation":[
				0,
				-0.9019955992698669,
				0,
				0.4317454993724823
			],
			"scale":[
				-0.14118027687072754,
				-0.11154162883758545,
				-0.21486841142177582
			],
			"translation":[
				-0.02454186975955963,
				-0.1898365169763565,
				-0.10170558094978333
			]
		},
		{
			"mesh":10,
			"name":"Icosphere.006",
			"rotation":[
				0,
				-0.9990213513374329,
				0,
				0.04423025995492935
			],
			"scale":[
				0.10258252918720245,
				0.08104688674211502,
				0.1561248004436493
			],
			"translation":[
				-0.012674922123551369,
				-0.1898365169763565,
				-0.2599315643310547
			]
		},
		{
			"mesh":11,
			"name":"Icosphere.007",
			"rotation":[
				0,
				-0.9816015958786011,
				0,
				0.19094052910804749
			],
			"scale":[
				0.14646930992603302,
				0.11572030186653137,
				0.22291800379753113
			],
			"translation":[
				-0.21243523061275482,
				-0.1898365169763565,
				-0.14521771669387817
			]
		},
		{
			"mesh":12,
			"name":"Icosphere.008",
			"rotation":[
				0,
				-0.7180984020233154,
				0,
				0.6959415674209595
			],
			"scale":[
				0.10258253663778305,
				0.08104688674211502,
				0.15612481534481049
			],
			"translation":[
				-0.14321134984493256,
				-0.1898365169763565,
				0.05058692395687103
			]
		},
		{
			"mesh":13,
			"name":"Icosphere.009",
			"rotation":[
				0,
				-0.39421936869621277,
				0,
				0.9190163612365723
			],
			"scale":[
				0.1274409294128418,
				0.10068662464618683,
				0.1939578503370285
			],
			"translation":[
				-0.3053929805755615,
				-0.1898365169763565,
				0.05652038753032684
			]
		},
		{
			"mesh":14,
			"name":"Icosphere.010",
			"rotation":[
				-0.21323297917842865,
				0.8046480417251587,
				0.49792468547821045,
				0.24319587647914886
			],
			"scale":[
				0.11122096329927444,
				0.08787179738283157,
				0.16927197575569153
			],
			"translation":[
				-0.16298960149288177,
				-0.1898365169763565,
				0.2048572301864624
			]
		},
		{
			"mesh":15,
			"name":"Icosphere.011",
			"rotation":[
				0,
				0.41728663444519043,
				0,
				0.9087750315666199
			],
			"scale":[
				0.10258254408836365,
				0.08104688674211502,
				0.1561248004436493
			],
			"translation":[
				0.06248241662979126,
				-0.1898365169763565,
				0.06838734447956085
			]
		}
	],
	"materials":[
		{
			"doubleSided":true,
			"name":"Material.001",
			"pbrMetallicRoughness":{
				"baseColorTexture":{
					"index":0
				},
				"metallicFactor":0,
				"roughnessFactor":0.5
			}
		},
		{
			"doubleSided":true,
			"name":"Material.002",
			"pbrMetallicRoughness":{
				"baseColorTexture":{
					"index":1
				},
				"metallicFactor":0,
				"roughnessFactor":0.5
			}
		}
	],
	"meshes":[
		{
			"name":"Cylinder.002",
			"primitives":[
				{
					"attributes":{
						"POSITION":0,
						"NORMAL":1,
						"TEXCOORD_0":2,
						"TANGENT":3
					},
					"indices":4,
					"material":0
				}
			]
		},
		{
			"name":"Cylinder.003",
			"primitives":[
				{
					"attributes":{
						"POSITION":5,
						"NORMAL":6,
						"TEXCOORD_0":7,
						"TANGENT":8
					},
					"indices":4,
					"material":0
				}
			]
		},
		{
			"name":"Cylinder.004",
			"primitives":[
				{
					"attributes":{
						"POSITION":9,
						"NORMAL":10,
						"TEXCOORD_0":11,
						"TANGENT":12
					},
					"indices":4,
					"material":0
				}
			]
		},
		{
			"name":"Cylinder.005",
			"primitives":[
				{
					"attributes":{
						"POSITION":13,
						"NORMAL":14,
						"TEXCOORD_0":15,
						"TANGENT":16
					},
					"indices":4,
					"material":0
				}
			]
		},
		{
			"name":"Icosphere",
			"primitives":[
				{
					"attributes":{
						"POSITION":17,
						"NORMAL":18,
						"TEXCOORD_0":19,
						"TANGENT":20
					},
					"indices":21,
					"material":1
				}
			]
		},
		{
			"name":"Icosphere.001",
			"primitives":[
				{
					"attributes":{
						"POSITION":22,
						"NORMAL":23,
						"TEXCOORD_0":24,
						"TANGENT":25
					},
					"indices":21,
					"material":1
				}
			]
		},
		{
			"name":"Icosphere.002",
			"primitives":[
				{
					"attributes":{
						"POSITION":26,
						"NORMAL":27,
						"TEXCOORD_0":28,
						"TANGENT":29
					},
					"indices":21,
					"material":1
				}
			]
		},
		{
			"name":"Icosphere.003",
			"primitives":[
				{
					"attributes":{
						"POSITION":30,
						"NORMAL":31,
						"TEXCOORD_0":32,
						"TANGENT":33
					},
					"indices":21,
					"material":1
				}
			]
		},
		{
			"name":"Icosphere.004",
			"primitives":[
				{
					"attributes":{
						"POSITION":34,
						"NORMAL":35,
						"TEXCOORD_0":36,
						"TANGENT":37
					},
					"indices":21,
					"material":1
				}
			]
		},
		{
			"name":"Icosphere.005",
			"primitives":[
				{
					"attributes":{
						"POSITION":38,
						"NORMAL":39,
						"TEXCOORD_0":40,
						"TANGENT":41
					},
					"indices":21,
					"material":1
				}
			]
		},
		{
			"name":"Icosphere.006",
			"primitives":[
				{
					"attributes":{
						"POSITION":42,
						"NORMAL":43,
						"TEXCOORD_0":44,
						"TANGENT":45
					},
					"indices":21,
					"material":1
				}
			]
		},
		{
			"name":"Icosphere.007",
			"primitives":[
				{
					"attributes":{
						"POSITION":46,
						"NORMAL":47,
						"TEXCOORD_0":48,
						"TANGENT":49
					},
					"indices":21,
					"material":1
				}
			]
		},
		{
			"name":"Icosphere.008",
			"primitives":[
				{
					"attributes":{
						"POSITION":50,
						"NORMAL":51,
						"TEXCOORD_0":52,
						"TANGENT":53
					},
					"indices":21,
					"material":1
				}
			]
		},
		{
			"name":"Icosphere.009",
			"primitives":[
				{
					"attributes":{
						"POSITION":54,
						"NORMAL":55,
						"TEXCOORD_0":56,
						"TANGENT":57
					},
					"indices":58,
					"material":1
				}
			]
		},
		{
			"name":"Icosphere.010",
			"primitives":[
				{
					"attributes":{
						"POSITION":59,
						"NORMAL":60,
						"TEXCOORD_0":61,
						"TANGENT":62
					},
					"indices":21,
					"material":1
				}
			]
		},
		{
			"name":"Icosphere.011",
			"primitives":[
				{
					"attributes":{
						"POSITION":63,
						"NORMAL":64,
						"TEXCOORD_0":65,
						"TANGENT":66
					},
					"indices":21,
					"material":1
				}
			]
		}
	],
	"textures":[
		{
			"sampler":0,
			"source":0
		},
		{
			"sampler":0,
			"source":1
		}
	],
	"images":[
		{
			"mimeType":"image/png",
			"name":"campfirewood",
			"uri":"../../Assets/Textures/campfirewood.png"
		},
		{
			"mimeType":"image/png",
			"name":"campfirerock",
			"uri":"../../Assets/Textures/campfirerock.png"
		}
	],
	"accessors":[
		{
			"bufferView":0,
			"componentType":5126,
			"count":771,
			"max":[
				0.989340603351593,
				1.0096101760864258,
				0.989340603351593
			],
			"min":[
				-0.989340603351593,
				-1.0071475505828857,
				-0.9893406629562378
			],
			"type":"VEC3"
		},
		{
			"bufferView":1,
			"componentType":5126,
			"count":771,
			"type":"VEC3"
		},
		{
			"bufferView":2,
			"componentType":5126,
			"count":771,
			"type":"VEC2"
		},
		{
			"bufferView":3,
			"componentType":5126,
			"count":771,
			"type":"VEC4"
		},
		{
			"bufferView":4,
			"componentType":5123,
			"count":2688,
			"type":"SCALAR"
		},
		{
			"bufferView":5,
			"componentType":5126,
			"count":771,
			"max":[
				0.989340603351593,
				1.0096101760864258,
				0.989340603351593
			],
			"min":[
				-0.989340603351593,
				-1.0071475505828857,
				-0.9893406629562378
			],
			"type":"VEC3"
		},
		{
			"bufferView":6,
			"componentType":5126,
			"count":771,
			"type":"VEC3"
		},
		{
			"bufferView":7,
			"componentType":5126,
			"count":771,
			"type":"VEC2"
		},
		{
			"bufferView":8,
			"componentType":5126,
			"count":771,
			"type":"VEC4"
		},
		{
			"bufferView":9,
			"componentType":5126,
			"count":771,
			"max":[
				0.989340603351593,
				1.0096101760864258,
				0.989340603351593
			],
			"min":[
				-0.989340603351593,
				-1.0071475505828857,
				-0.9893406629562378
			],
			"type":"VEC3"
		},
		{
			"bufferView":10,
			"componentType":5126,
			"count":771,
			"type":"VEC3"
		},
		{
			"bufferView":11,
			"componentType":5126,
			"count":771,
			"type":"VEC2"
		},
		{
			"bufferView":12,
			"componentType":5126,
			"count":771,
			"type":"VEC4"
		},
		{
			"bufferView":13,
			"componentType":5126,
			"count":771,
			"max":[
				0.989340603351593,
				1.0096101760864258,
				0.989340603351593
			],
			"min":[
				-0.989340603351593,
				-1.0071475505828857,
				-0.9893406629562378
			],
			"type":"VEC3"
		},
		{
			"bufferView":14,
			"componentType":5126,
			"count":771,
			"type":"VEC3"
		},
		{
			"bufferView":15,
			"componentType":5126,
			"count":771,
			"type":"VEC2"
		},
		{
			"bufferView":16,
			"componentType":5126,
			"count":771,
			"type":"VEC4"
		},
		{
			"bufferView":17,
			"componentType":5126,
			"count":63,
			"max":[
				0.9510578513145447,
				1.344994068145752,
				0.9999999403953552
			],
			"min":[
				-0.9510578513145447,
				-1,
				-0.9999999403953552
			],
			"type":"VEC3"
		},
		{
			"bufferView":18,
			"componentType":5126,
			"count":63,
			"type":"VEC3"
		},
		{
			"bufferView":19,
			"componentType":5126,
			"count":63,
			"type":"VEC2"
		},
		{
			"bufferView":20,
			"componentType":5126,
			"count":63,
			"type":"VEC4"
		},
		{
			"bufferView":21,
			"componentType":5123,
			"count":240,
			"type":"SCALAR"
		},
		{
			"bufferView":22,
			"componentType":5126,
			"count":63,
			"max":[
				0.9510578513145447,
				1.344994068145752,
				0.9999999403953552
			],
			"min":[
				-0.9510578513145447,
				-1,
				-0.9999999403953552
			],
			"type":"VEC3"
		},
		{
			"bufferView":23,
			"componentType":5126,
			"count":63,
			"type":"VEC3"
		},
		{
			"bufferView":24,
			"componentType":5126,
			"count":63,
			"type":"VEC2"
		},
		{
			"bufferView":25,
			"componentType":5126,
			"count":63,
			"type":"VEC4"
		},
		{
			"bufferView":26,
			"componentType":5126,
			"count":63,
			"max":[
				0.9510578513145447,
				1.344994068145752,
				0.9999999403953552
			],
			"min":[
				-0.9510578513145447,
				-1,
				-0.9999999403953552
			],
			"type":"VEC3"
		},
		{
			"bufferView":27,
			"componentType":5126,
			"count":63,
			"type":"VEC3"
		},
		{
			"bufferView":28,
			"componentType":5126,
			"count":63,
			"type":"VEC2"
		},
		{
			"bufferView":29,
			"componentType":5126,
			"count":63,
			"type":"VEC4"
		},
		{
			"bufferView":30,
			"componentType":5126,
			"count":63,
			"max":[
				0.9510578513145447,
				1.344994068145752,
				0.9999999403953552
			],
			"min":[
				-0.9510578513145447,
				-1,
				-0.9999999403953552
			],
			"type":"VEC3"
		},
		{
			"bufferView":31,
			"componentType":5126,
			"count":63,
			"type":"VEC3"
		},
		{
			"bufferView":32,
			"componentType":5126,
			"count":63,
			"type":"VEC2"
		},
		{
			"bufferView":33,
			"componentType":5126,
			"count":63,
			"type":"VEC4"
		},
		{
			"bufferView":34,
			"componentType":5126,
			"count":63,
			"max":[
				0.9510578513145447,
				1.344994068145752,
				0.9999999403953552
			],
			"min":[
				-0.9510578513145447,
				-1,
				-0.9999999403953552
			],
			"type":"VEC3"
		},
		{
			"bufferView":35,
			"componentType":5126,
			"count":63,
			"type":"VEC3"
		},
		{
			"bufferView":36,
			"componentType":5126,
			"count":63,
			"type":"VEC2"
		},
		{
			"bufferView":37,
			"componentType":5126,
			"count":63,
			"type":"VEC4"
		},
		{
			"bufferView":38,
			"componentType":5126,
			"count":63,
			"max":[
				0.9510578513145447,
				1.344994068145752,
				0.9999999403953552
			],
			"min":[
				-0.9510578513145447,
				-1,
				-0.9999999403953552
			],
			"type":"VEC3"
		},
		{
			"bufferView":39,
			"componentType":5126,
			"count":63,
			"type":"VEC3"
		},
		{
			"bufferView":40,
			"componentType":5126,
			"count":63,
			"type":"VEC2"
		},
		{
			"bufferView":41,
			"componentType":5126,
			"count":63,
			"type":"VEC4"
		},
		{
			"bufferView":42,
			"componentType":5126,
			"count":63,
			"max":[
				0.9510578513145447,
				1.344994068145752,
				0.9999999403953552
			],
			"min":[
				-0.9510578513145447,
				-1,
				-0.9999999403953552
			],
			"type":"VEC3"
		},
		{
			"bufferView":43,
			"componentType":5126,
			"count":63,
			"type":"VEC3"
		},
		{
			"bufferView":44,
			"componentType":5126,
			"count":63,
			"type":"VEC2"
		},
		{
			"bufferView":45,
			"componentType":5126,
			"count":63,
			"type":"VEC4"
		},
		{
			"bufferView":46,
			"componentType":5126,
			"count":63,
			"max":[
				0.9510578513145447,
				1.344994068145752,
				0.9999999403953552
			],
			"min":[
				-0.9510578513145447,
				-1,
				-0.9999999403953552
			],
			"type":"VEC3"
		},
		{
			"bufferView":47,
			"componentType":5126,
			"count":63,
			"type":"VEC3"
		},
		{
			"bufferView":48,
			"componentType":5126,
			"count":63,
			"type":"VEC2"
		},
		{
			"bufferView":49,
			"componentType":5126,
			"count":63,
			"type":"VEC4"
		},
		{
			"bufferView":50,
			"componentType":5126,
			"count":63,
			"max":[
				0.9510578513145447,
				1.344994068145752,
				0.9999999403953552
			],
			"min":[
				-0.9510578513145447,
				-1,
				-0.9999999403953552
			],
			"type":"VEC3"
		},
		{
			"bufferView":51,
			"componentType":5126,
			"count":63,
			"type":"VEC3"
		},
		{
			"bufferView":52,
			"componentType":5126,
			"count":63,
			"type":"VEC2"
		},
		{
			"bufferView":53,
			"componentType":5126,
			"count":63,
			"type":"VEC4"
		},
		{
			"bufferView":54,
			"componentType":5126,
			"count":78,
			"max":[
				0.9510578513145447,
				1.344994068145752,
				0.9999999403953552
			],
			"min":[
				-0.9510578513145447,
				-1,
				-0.9999999403953552
			],
			"type":"VEC3"
		},
		{
			"bufferView":55,
			"componentType":5126,
			"count":78,
			"type":"VEC3"
		},
		{
			"bufferView":56,
			"componentType":5126,
			"count":78,
			"type":"VEC2"
		},
		{
			"bufferView":57,
			"componentType":5126,
			"count":78,
			"type":"VEC4"
		},
		{
			"bufferView":58,
			"componentType":5123,
			"count":240,
			"type":"SCALAR"
		},
		{
			"bufferView":59,
			"componentType":5126,
			"count":63,
			"max":[
				0.9510578513145447,
				1.344994068145752,
				0.9999999403953552
			],
			"min":[
				-0.9510578513145447,
				-1,
				-0.9999999403953552
			],
			"type":"VEC3"
		},
		{
			"bufferView":60,
			"componentType":5126,
			"count":63,
			"type":"VEC3"
		},
		{
			"bufferView":61,
			"componentType":5126,
			"count":63,
			"type":"VEC2"
		},
		{
			"bufferView":62,
			"componentType":5126,
			"count":63,
			"type":"VEC4"
		},
		{
			"bufferView":63,
			"componentType":5126,
			"count":63,
			"max":[
				0.9510578513145447,
				1.344994068145752,
				0.9999999403953552
			],
			"min":[
				-0.9510578513145447,
				-1,
				-0.9999999403953552
			],
			"type":"VEC3"
		},
		{
			"bufferView":64,
			"componentType":5126,
			"count":63,
			"type":"VEC3"
		},
		{
			"bufferView":65,
			"componentType":5126,
			"count":63,
			"type":"VEC2"
		},
		{
			"bufferView":66,
			"componentType":5126,
			"count":63,
			"type":"VEC4"
		}
	],
	"bufferViews":[
		{
			"buffer":0,
			"byteLength":9252,
			"byteOffset":0,
			"target":34962
		},
		{
			"buffer":0,
			"byteLength":9252,
			"byteOffset":9252,
			"target":34962
		},
		{
			"buffer":0,
			"byteLength":6168,
			"byteOffset":18504,
			"target":34962
		},
		{
			"buffer":0,
			"byteLength":12336,
			"byteOffset":24672,
			"target":34962
		},
		{
			"buffer":0,
			"byteLength":5376,
			"byteOffset":37008,
			"target":34963
		},
		{
			"buffer":0,
			"byteLength":9252,
			"byteOffset":42384,
			"target":34962
		},
		{
			"buffer":0,
			"byteLength":9252,
			"byteOffset":51636,
			"target":34962
		},
		{
			"buffer":0,
			"byteLength":6168,
			"byteOffset":60888,
			"target":34962
		},
		{
			"buffer":0,
			"byteLength":12336,
			"byteOffset":67056,
			"target":34962
		},
		{
			"buffer":0,
			"byteLength":9252,
			"byteOffset":79392,
			"target":34962
		},
		{
			"buffer":0,
			"byteLength":9252,
			"byteOffset":88644,
			"target":34962
		},
		{
			"buffer":0,
			"byteLength":6168,
			"byteOffset":97896,
			"target":34962
		},
		{
			"buffer":0,
			"byteLength":12336,
			"byteOffset":104064,
			"target":34962
		},
		{
			"buffer":0,
			"byteLength":9252,
			"byteOffset":116400,
			"target":34962
		},
		{
			"buffer":0,
			"byteLength":9252,
			"byteOffset":125652,
			"target":34962
		},
		{
			"buffer":0,
			"byteLength":6168,
			"byteOffset":134904,
			"target":34962
		},
		{
			"buffer":0,
			"byteLength":12336,
			"byteOffset":141072,
			"target":34962
		},
		{
			"buffer":0,
			"byteLength":756,
			"byteOffset":153408,
			"target":34962
		},
		{
			"buffer":0,
			"byteLength":756,
			"byteOffset":154164,
			"target":34962
		},
		{
			"buffer":0,
			"byteLength":504,
			"byteOffset":154920,
			"target":34962
		},
		{
			"buffer":0,
			"byteLength":1008,
			"byteOffset":155424,
			"target":34962
		},
		{
			"buffer":0,
			"byteLength":480,
			"byteOffset":156432,
			"target":34963
		},
		{
			"buffer":0,
			"byteLength":756,
			"byteOffset":156912,
			"target":34962
		},
		{
			"buffer":0,
			"byteLength":756,
			"byteOffset":157668,
			"target":34962
		},
		{
			"buffer":0,
			"byteLength":504,
			"byteOffset":158424,
			"target":34962
		},
		{
			"buffer":0,
			"byteLength":1008,
			"byteOffset":158928,
			"target":34962
		},
		{
			"buffer":0,
			"byteLength":756,
			"byteOffset":159936,
			"target":34962
		},
		{
			"buffer":0,
			"byteLength":756,
			"byteOffset":160692,
			"target":34962
		},
		{
			"buffer":0,
			"byteLength":504,
			"byteOffset":161448,
			"target":34962
		},
		{
			"buffer":0,
			"byteLength":1008,
			"byteOffset":161952,
			"target":34962
		},
		{
			"buffer":0,
			"byteLength":756,
			"byteOffset":162960,
			"target":34962
		},
		{
			"buffer":0,
			"byteLength":756,
			"byteOffset":163716,
			"target":34962
		},
		{
			"buffer":0,
			"byteLength":504,
			"byteOffset":164472,
			"target":34962
		},
		{
			"buffer":0,
			"byteLength":1008,
			"byteOffset":164976,
			"target":34962
		},
		{
			"buffer":0,
			"byteLength":756,
			"byteOffset":165984,
			"target":34962
		},
		{
			"buffer":0,
			"byteLength":756,
			"byteOffset":166740,
			"target":34962
		},
		{
			"buffer":0,
			"byteLength":504,
			"byteOffset":167496,
			"target":34962
		},
		{
			"buffer":0,
			"byteLength":1008,
			"byteOffset":168000,
			"target":34962
		},
		{
			"buffer":0,
			"byteLength":756,
			"byteOffset":169008,
			"target":34962
		},
		{
			"buffer":0,
			"byteLength":756,
			"byteOffset":169764,
			"target":34962
		},
		{
			"buffer":0,
			"byteLength":504,
			"byteOffset":170520,
			"target":34962
		},
		{
			"buffer":0,
			"byteLength":1008,
			"byteOffset":171024,
			"target":34962
		},
		{
			"buffer":0,
			"byteLength":756,
			"byteOffset":172032,
			"target":34962
		},
		{
			"buffer":0,
			"byteLength":756,
			"byteOffset":172788,
			"target":34962
		},
		{
			"buffer":0,
			"byteLength":504,
			"byteOffset":173544,
			"target":34962
		},
		{
			"buffer":0,
			"byteLength":1008,
			"byteOffset":174048,
			"target":34962
		},
		{
			"buffer":0,
			"byteLength":756,
			"byteOffset":175056,
			"target":34962
		},
		{
			"buffer":0,
			"byteLength":756,
			"byteOffset":175812,
			"target":34962
		},
		{
			"buffer":0,
			"byteLength":504,
			"byteOffset":176568,
			"target":34962
		},
		{
			"buffer":0,
			"byteLength":1008,
			"byteOffset":177072,
			"target":34962
		},
		{
			"buffer":0,
			"byteLength":756,
			"byteOffset":178080,
			"target":34962
		},
		{
			"buffer":0,
			"byteLength":756,
			"byteOffset":178836,
			"target":34962
		},
		{
			"buffer":0,
			"byteLength":504,
			"byteOffset":179592,
			"target":34962
		},
		{
			"buffer":0,
			"byteLength":1008,
			"byteOffset":180096,
			"target":34962
		},
		{
			"buffer":0,
			"byteLength":936,
			"byteOffset":181104,
			"target":34962
		},
		{
			"buffer":0,
			"byteLength":936,
			"byteOffset":182040,
			"target":34962
		},
		{
			"buffer":0,
			"byteLength":624,
			"byteOffset":182976,
			"target":34962
		},
		{
			"buffer":0,
			"byteLength":1248,
			"byteOffset":183600,
			"target":34962
		},
		{
			"buffer":0,
			"byteLength":480,
			"byteOffset":184848,
			"target":34963
		},
		{
			"buffer":0,
			"byteLength":756,
			"byteOffset":185328,
			"target":34962
		},
		{
			"buffer":0,
			"byteLength":756,
			"byteOffset":186084,
			"target":34962
		},
		{
			"buffer":0,
			"byteLength":504,
			"byteOffset":186840,
			"target":34962
		},
		{
			"buffer":0,
			"byteLength":1008,
			"byteOffset":187344,
			"target":34962
		},
		{
			"buffer":0,
			"byteLength":756,
			"byteOffset":188352,
			"target":34962
		},
		{
			"buffer":0,
			"byteLength":756,
			"byteOffset":189108,
			"target":34962
		},
		{
			"buffer":0,
			"byteLength":504,
			"byteOffset":189864,
			"target":34962
		},
		{
			"buffer":0,
			"byteLength":1008,
			"byteOffset":190368,
			"target":34962
		}
	],
	"samplers":[
		{
			"magFilter":9729,
			"minFilter":9987
		}
	],
	"buffers":[
		{
			"byteLength":191376,
			"uri":"campfire-bd54281f2aaed377e5e409b208655b99.bin"
		}
	]
}
