{
	"asset":{
		"generator":"Khronos glTF Blender I/O v3.6.27",
		"version":"2.0"
	},
	"scene":0,
	"scenes":[
		{
			"name":"Scene",
			"nodes":[
				0,
				1,
				2,
				3,
				4,
				5,
				6
			]
		}
	],
	"nodes":[
		{
			"mesh":0,
			"name":"Feesh",
			"scale":[
				1.4051258563995361,
				0.8959710597991943,
				2.4794933795928955
			]
		},
		{
			"mesh":1,
			"name":"Eye",
			"scale":[
				0.15030640363693237,
				0.15030640363693237,
				0.15030640363693237
			],
			"translation":[
				3.3992760181427,
				0.48305803537368774,
				0.6272047162055969
			]
		},
		{
			"mesh":2,
			"name":"Eyesmall",
			"scale":[
				0.06480155140161514,
				0.06480155140161514,
				0.06480155140161514
			],
			"translation":[
				3.4758269786834717,
				0.47256118059158325,
				0.6249351501464844
			]
		},
		{
			"mesh":3,
			"name":"Sphere",
			"scale":[
				0.19700734317302704,
				0.19700734317302704,
				0.19700734317302704
			],
			"translation":[
				3.4871981143951416,
				-0.37163427472114563,
				-1.346915364265442
			]
		},
		{
			"mesh":4,
			"name":"Cube",
			"rotation":[
				0.6388471126556396,
				0.3031077980995178,
				-0.3031078577041626,
				0.6388471126556396
			],
			"scale":[
				0.4802442789077759,
				0.033779919147491455,
				0.033779919147491455
			],
			"translation":[
				3.1973469257354736,
				0.49794235825538635,
				1.1678688526153564
			]
		},
		{
			"mesh":5,
			"name":"Cube.001",
			"scale":[
				0.0350579135119915,
				0.2952732741832733,
				0.1450987309217453
			],
			"translation":[
				3.5958659648895264,
				-0.3227599263191223,
				-1.236451268196106
			]
		},
		{
			"mesh":6,
			"name":"Cube.002",
			"scale":[
				0.16314339637756348,
				0.06537073850631714,
				0.6055035591125488
			],
			"translation":[
				3.414210796356201,
				0.13345225155353546,
				0
			]
		}
	],
	"animations":[
		{
			"channels":[
				{
					"sampler":0,
					"target":{
						"node":0,
						"path":"translation"
					}
				},
				{
					"sampler":1,
					"target":{
						"node":0,
						"path":"rotation"
					}
				},
				{
					"sampler":2,
					"target":{
						"node":0,
						"path":"scale"
					}
				}
			],
			"name":"FeeshAction",
			"samplers":[
				{
					"input":34,
					"interpolation":"LINEAR",
					"output":35
				},
				{
					"input":34,
					"interpolation":"LINEAR",
					"output":36
				},
				{
					"input":34,
					"interpolation":"LINEAR",
					"output":37
				}
			]
		}
	],
	"materials":[
		{
			"doubleSided":true,
			"name":"Material",
			"pbrMetallicRoughness":{
				"baseColorTexture":{
					"index":0
				},
				"metallicFactor":0,
				"roughnessFactor":0.4000000059604645
			}
		},
		{
			"doubleSided":true,
			"name":"Material.004",
			"pbrMetallicRoughness":{
				"baseColorTexture":{
					"index":1
				},
				"metallicFactor":0,
				"roughnessFactor":0.5
			}
		},
		{
			"doubleSided":true,
			"name":"Material.005",
			"pbrMetallicRoughness":{
				"baseColorTexture":{
					"index":2
				},
				"metallicFactor":0,
				"roughnessFactor":0.5
			}
		},
		{
			"doubleSided":true,
			"name":"Material.001",
			"pbrMetallicRoughness":{
				"baseColorTexture":{
					"index":3
				},
				"metallicFactor":0,
				"roughnessFactor":0.5
			}
		},
		{
			"doubleSided":true,
			"name":"Material.006",
			"pbrMetallicRoughness":{
				"baseColorTexture":{
					"index":4
				},
				"metallicFactor":0,
				"roughnessFactor":0.5
			}
		},
		{
			"doubleSided":true,
			"name":"Material.003",
			"pbrMetallicRoughness":{
				"baseColorTexture":{
					"index":5
				},
				"metallicFactor":0,
				"roughnessFactor":0.5
			}
		},
		{
			"doubleSided":true,
			"name":"Material.002",
			"pbrMetallicRoughness":{
				"baseColorTexture":{
					"index":6
				},
				"metallicFactor":0,
				"roughnessFactor":0.5
			}
		}
	],
	"meshes":[
		{
			"name":"Cube",
			"primitives":[
				{
					"attributes":{
						"POSITION":0,
						"NORMAL":1,
						"TEXCOORD_0":2,
						"TANGENT":3
					},
					"indices":4,
					"material":0
				}
			]
		},
		{
			"name":"Sphere",
			"primitives":[
				{
					"attributes":{
						"POSITION":5,
						"NORMAL":6,
						"TEXCOORD_0":7,
						"TANGENT":8
					},
					"indices":9,
					"material":1
				}
			]
		},
		{
			"name":"Sphere.001",
			"primitives":[
				{
					"attributes":{
						"POSITION":10,
						"NORMAL":11,
						"TEXCOORD_0":12,
						"TANGENT":13
					},
					"indices":9,
					"material":2
				}
			]
		},
		{
			"name":"Sphere.002",
			"primitives":[
				{
					"attributes":{
						"POSITION":14,
						"NORMAL":15,
						"TEXCOORD_0":16,
						"TANGENT":17
					},
					"indices":18,
					"material":3
				}
			]
		},
		{
			"name":"Cube.001",
			"primitives":[
				{
					"attributes":{
						"POSITION":19,
						"NORMAL":20,
						"TEXCOORD_0":21,
						"TANGENT":22
					},
					"indices":23,
					"material":4
				}
			]
		},
		{
			"name":"Cube.002",
			"primitives":[
				{
					"attributes":{
						"POSITION":24,
						"NORMAL":25,
						"TEXCOORD_0":26,
						"TANGENT":27
					},
					"indices":28,
					"material":5
				}
			]
		},
		{
			"name":"Cube.003",
			"primitives":[
				{
					"attributes":{
						"POSITION":29,
						"NORMAL":30,
						"TEXCOORD_0":31,
						"TANGENT":32
					},
					"indices":33,
					"material":6
				}
			]
		}
	],
	"textures":[
		{
			"sampler":0,
			"source":0
		},
		{
			"sampler":0,
			"source":1
		},
		{
			"sampler":0,
			"source":2
		},
		{
			"sampler":0,
			"source":0
		},
		{
			"sampler":0,
			"source":3
		},
		{
			"sampler":0,
			"source":4
		},
		{
			"sampler":0,
			"source":5
		}
	],
	"images":[
		{
			"mimeType":"image/png",
			"name":"richfish",
			"uri":"../../Assets/Textures/richfish.png"
		},
		{
			"mimeType":"image/png",
			"name":"Eyeball-texture.png",
			"uri":"../../Assets/Textures/Eyeball-texture.png"
		},
		{
			"mimeType":"image/png",
			"name":"eyesmall.png",
			"uri":"../../Assets/Textures/eyesmall.png"
		},
		{
			"mimeType":"image/png",
			"name":"monocle",
			"uri":"../../Assets/Textures/monocle.png"
		},
		{
			"mimeType":"image/png",
			"name":"fatstack",
			"uri":"../../Assets/Textures/fatstack.png"
		},
		{
			"mimeType":"image/png",
			"name":"mustachio",
			"uri":"../../Assets/Textures/mustachio.png"
		}
	],
	"accessors":[
		{
			"bufferView":0,
			"componentType":5126,
			"count":229,
			"max":[
				2.741283893585205,
				2.263441801071167,
				1.2491631507873535
			],
			"min":[
				-3.5257725715637207,
				-2.2549374103546143,
				-1.2491631507873535
			],
			"type":"VEC3"
		},
		{
			"bufferView":1,
			"componentType":5126,
			"count":229,
			"type":"VEC3"
		},
		{
			"bufferView":2,
			"componentType":5126,
			"count":229,
			"type":"VEC2"
		},
		{
			"bufferView":3,
			"componentType":5126,
			"count":229,
			"type":"VEC4"
		},
		{
			"bufferView":4,
			"componentType":5123,
			"count":612,
			"type":"SCALAR"
		},
		{
			"bufferView":5,
			"componentType":5126,
			"count":1118,
			"max":[
				0.9999997019767761,
				1,
				0.9999994039535522
			],
			"min":[
				-0.9999990463256836,
				-1,
				-9.345681190490723
			],
			"type":"VEC3"
		},
		{
			"bufferView":6,
			"componentType":5126,
			"count":1118,
			"type":"VEC3"
		},
		{
			"bufferView":7,
			"componentType":5126,
			"count":1118,
			"type":"VEC2"
		},
		{
			"bufferView":8,
			"componentType":5126,
			"count":1118,
			"type":"VEC4"
		},
		{
			"bufferView":9,
			"componentType":5123,
			"count":5760,
			"type":"SCALAR"
		},
		{
			"bufferView":10,
			"componentType":5126,
			"count":1118,
			"max":[
				1.2979305982589722,
				1.2979294061660767,
				1.2979321479797363
			],
			"min":[
				-1.2979451417922974,
				-1.297944188117981,
				-20.585590362548828
			],
			"type":"VEC3"
		},
		{
			"bufferView":11,
			"componentType":5126,
			"count":1118,
			"type":"VEC3"
		},
		{
			"bufferView":12,
			"componentType":5126,
			"count":1118,
			"type":"VEC2"
		},
		{
			"bufferView":13,
			"componentType":5126,
			"count":1118,
			"type":"VEC4"
		},
		{
			"bufferView":14,
			"componentType":5126,
			"count":1118,
			"max":[
				0.9999998211860657,
				1,
				14.673757553100586
			],
			"min":[
				-0.9999991655349731,
				-1,
				-1
			],
			"type":"VEC3"
		},
		{
			"bufferView":15,
			"componentType":5126,
			"count":1118,
			"type":"VEC3"
		},
		{
			"bufferView":16,
			"componentType":5126,
			"count":1118,
			"type":"VEC2"
		},
		{
			"bufferView":17,
			"componentType":5126,
			"count":1118,
			"type":"VEC4"
		},
		{
			"bufferView":18,
			"componentType":5123,
			"count":5760,
			"type":"SCALAR"
		},
		{
			"bufferView":19,
			"componentType":5126,
			"count":802,
			"max":[
				1.6816847324371338,
				4.525607585906982,
				8.047989845275879
			],
			"min":[
				-1.0322158336639404,
				-8.094606399536133,
				-7.510689735412598
			],
			"type":"VEC3"
		},
		{
			"bufferView":20,
			"componentType":5126,
			"count":802,
			"type":"VEC3"
		},
		{
			"bufferView":21,
			"componentType":5126,
			"count":802,
			"type":"VEC2"
		},
		{
			"bufferView":22,
			"componentType":5126,
			"count":802,
			"type":"VEC4"
		},
		{
			"bufferView":23,
			"componentType":5123,
			"count":3684,
			"type":"SCALAR"
		},
		{
			"bufferView":24,
			"componentType":5126,
			"count":24,
			"max":[
				1,
				1,
				1
			],
			"min":[
				-1,
				-1,
				-1
			],
			"type":"VEC3"
		},
		{
			"bufferView":25,
			"componentType":5126,
			"count":24,
			"type":"VEC3"
		},
		{
			"bufferView":26,
			"componentType":5126,
			"count":24,
			"type":"VEC2"
		},
		{
			"bufferView":27,
			"componentType":5126,
			"count":24,
			"type":"VEC4"
		},
		{
			"bufferView":28,
			"componentType":5123,
			"count":36,
			"type":"SCALAR"
		},
		{
			"bufferView":29,
			"componentType":5126,
			"count":88,
			"max":[
				1.1004332304000854,
				2.193931818008423,
				1.0061084032058716
			],
			"min":[
				-1.4973527193069458,
				-2.485367774963379,
				-0.9939137101173401
			],
			"type":"VEC3"
		},
		{
			"bufferView":30,
			"componentType":5126,
			"count":88,
			"type":"VEC3"
		},
		{
			"bufferView":31,
			"componentType":5126,
			"count":88,
			"type":"VEC2"
		},
		{
			"bufferView":32,
			"componentType":5126,
			"count":88,
			"type":"VEC4"
		},
		{
			"bufferView":33,
			"componentType":5123,
			"count":228,
			"type":"SCALAR"
		},
		{
			"bufferView":34,
			"componentType":5126,
			"count":1,
			"max":[
				0.041666666666666664
			],
			"min":[
				0.041666666666666664
			],
			"type":"SCALAR"
		},
		{
			"bufferView":35,
			"componentType":5126,
			"count":1,
			"type":"VEC3"
		},
		{
			"bufferView":36,
			"componentType":5126,
			"count":1,
			"type":"VEC4"
		},
		{
			"bufferView":37,
			"componentType":5126,
			"count":1,
			"type":"VEC3"
		}
	],
	"bufferViews":[
		{
			"buffer":0,
			"byteLength":2748,
			"byteOffset":0,
			"target":34962
		},
		{
			"buffer":0,
			"byteLength":2748,
			"byteOffset":2748,
			"target":34962
		},
		{
			"buffer":0,
			"byteLength":1832,
			"byteOffset":5496,
			"target":34962
		},
		{
			"buffer":0,
			"byteLength":3664,
			"byteOffset":7328,
			"target":34962
		},
		{
			"buffer":0,
			"byteLength":1224,
			"byteOffset":10992,
			"target":34963
		},
		{
			"buffer":0,
			"byteLength":13416,
			"byteOffset":12216,
			"target":34962
		},
		{
			"buffer":0,
			"byteLength":13416,
			"byteOffset":25632,
			"target":34962
		},
		{
			"buffer":0,
			"byteLength":8944,
			"byteOffset":39048,
			"target":34962
		},
		{
			"buffer":0,
			"byteLength":17888,
			"byteOffset":47992,
			"target":34962
		},
		{
			"buffer":0,
			"byteLength":11520,
			"byteOffset":65880,
			"target":34963
		},
		{
			"buffer":0,
			"byteLength":13416,
			"byteOffset":77400,
			"target":34962
		},
		{
			"buffer":0,
			"byteLength":13416,
			"byteOffset":90816,
			"target":34962
		},
		{
			"buffer":0,
			"byteLength":8944,
			"byteOffset":104232,
			"target":34962
		},
		{
			"buffer":0,
			"byteLength":17888,
			"byteOffset":113176,
			"target":34962
		},
		{
			"buffer":0,
			"byteLength":13416,
			"byteOffset":131064,
			"target":34962
		},
		{
			"buffer":0,
			"byteLength":13416,
			"byteOffset":144480,
			"target":34962
		},
		{
			"buffer":0,
			"byteLength":8944,
			"byteOffset":157896,
			"target":34962
		},
		{
			"buffer":0,
			"byteLength":17888,
			"byteOffset":166840,
			"target":34962
		},
		{
			"buffer":0,
			"byteLength":11520,
			"byteOffset":184728,
			"target":34963
		},
		{
			"buffer":0,
			"byteLength":9624,
			"byteOffset":196248,
			"target":34962
		},
		{
			"buffer":0,
			"byteLength":9624,
			"byteOffset":205872,
			"target":34962
		},
		{
			"buffer":0,
			"byteLength":6416,
			"byteOffset":215496,
			"target":34962
		},
		{
			"buffer":0,
			"byteLength":12832,
			"byteOffset":221912,
			"target":34962
		},
		{
			"buffer":0,
			"byteLength":7368,
			"byteOffset":234744,
			"target":34963
		},
		{
			"buffer":0,
			"byteLength":288,
			"byteOffset":242112,
			"target":34962
		},
		{
			"buffer":0,
			"byteLength":288,
			"byteOffset":242400,
			"target":34962
		},
		{
			"buffer":0,
			"byteLength":192,
			"byteOffset":242688,
			"target":34962
		},
		{
			"buffer":0,
			"byteLength":384,
			"byteOffset":242880,
			"target":34962
		},
		{
			"buffer":0,
			"byteLength":72,
			"byteOffset":243264,
			"target":34963
		},
		{
			"buffer":0,
			"byteLength":1056,
			"byteOffset":243336,
			"target":34962
		},
		{
			"buffer":0,
			"byteLength":1056,
			"byteOffset":244392,
			"target":34962
		},
		{
			"buffer":0,
			"byteLength":704,
			"byteOffset":245448,
			"target":34962
		},
		{
			"buffer":0,
			"byteLength":1408,
			"byteOffset":246152,
			"target":34962
		},
		{
			"buffer":0,
			"byteLength":456,
			"byteOffset":247560,
			"target":34963
		},
		{
			"buffer":0,
			"byteLength":4,
			"byteOffset":248016
		},
		{
			"buffer":0,
			"byteLength":12,
			"byteOffset":248020
		},
		{
			"buffer":0,
			"byteLength":16,
			"byteOffset":248032
		},
		{
			"buffer":0,
			"byteLength":12,
			"byteOffset":248048
		}
	],
	"samplers":[
		{
			"magFilter":9729,
			"minFilter":9987
		}
	],
	"buffers":[
		{
			"byteLength":248060,
			"uri":"fancy_fish-bfde7cfb384781ba406609277d0f509c.bin"
		}
	]
}
