{
	"asset":{
		"generator":"Khronos glTF Blender I/O v3.6.27",
		"version":"2.0"
	},
	"scene":0,
	"scenes":[
		{
			"name":"Scene",
			"nodes":[
				0,
				1,
				2,
				3,
				4,
				5,
				6
			]
		}
	],
	"nodes":[
		{
			"mesh":0,
			"name":"Feesh"
		},
		{
			"mesh":1,
			"name":"Eye",
			"scale":[
				0.15030640363693237,
				0.15030640363693237,
				0.15030640363693237
			],
			"translation":[
				1.959871768951416,
				0.8373052477836609,
				0.6050188541412354
			]
		},
		{
			"mesh":2,
			"name":"teef",
			"scale":[
				0.04213638976216316,
				0.04213638976216316,
				0.04213638976216316
			],
			"translation":[
				2.6295149326324463,
				-0.04641656577587128,
				0.03959750384092331
			]
		},
		{
			"mesh":3,
			"name":"Eyesmall",
			"scale":[
				0.06480155140161514,
				0.06480155140161514,
				0.06480155140161514
			],
			"translation":[
				2.0364227294921875,
				0.8268083930015564,
				0.6279329657554626
			]
		},
		{
			"mesh":4,
			"name":"Sphere",
			"scale":[
				0.19700734317302704,
				0.19700734317302704,
				0.19700734317302704
			],
			"translation":[
				0.7508143782615662,
				-0.37163427472114563,
				-1.346915364265442
			]
		},
		{
			"name":"Empty",
			"translation":[
				2.545736789703369,
				0.026839811354875565,
				0
			]
		},
		{
			"name":"Empty.001",
			"translation":[
				-3.2493834495544434,
				-0.004117831587791443,
				0
			]
		}
	],
	"animations":[
		{
			"channels":[
				{
					"sampler":0,
					"target":{
						"node":0,
						"path":"translation"
					}
				},
				{
					"sampler":1,
					"target":{
						"node":0,
						"path":"rotation"
					}
				},
				{
					"sampler":2,
					"target":{
						"node":0,
						"path":"scale"
					}
				}
			],
			"name":"FeeshAction",
			"samplers":[
				{
					"input":24,
					"interpolation":"LINEAR",
					"output":25
				},
				{
					"input":24,
					"interpolation":"LINEAR",
					"output":26
				},
				{
					"input":24,
					"interpolation":"LINEAR",
					"output":27
				}
			]
		},
		{
			"channels":[
				{
					"sampler":0,
					"target":{
						"node":2,
						"path":"translation"
					}
				},
				{
					"sampler":1,
					"target":{
						"node":2,
						"path":"rotation"
					}
				},
				{
					"sampler":2,
					"target":{
						"node":2,
						"path":"scale"
					}
				}
			],
			"name":"teefAction",
			"samplers":[
				{
					"input":28,
					"interpolation":"LINEAR",
					"output":29
				},
				{
					"input":30,
					"interpolation":"STEP",
					"output":31
				},
				{
					"input":30,
					"interpolation":"STEP",
					"output":32
				}
			]
		},
		{
			"channels":[
				{
					"sampler":0,
					"target":{
						"node":5,
						"path":"translation"
					}
				},
				{
					"sampler":1,
					"target":{
						"node":5,
						"path":"rotation"
					}
				}
			],
			"name":"Eat",
			"samplers":[
				{
					"input":28,
					"interpolation":"LINEAR",
					"output":33
				},
				{
					"input":30,
					"interpolation":"STEP",
					"output":34
				}
			]
		},
		{
			"channels":[
				{
					"sampler":0,
					"target":{
						"node":5,
						"path":"translation"
					}
				},
				{
					"sampler":1,
					"target":{
						"node":5,
						"path":"rotation"
					}
				}
			],
			"name":"EmptyAction",
			"samplers":[
				{
					"input":28,
					"interpolation":"LINEAR",
					"output":35
				},
				{
					"input":30,
					"interpolation":"STEP",
					"output":36
				}
			]
		},
		{
			"channels":[
				{
					"sampler":0,
					"target":{
						"node":6,
						"path":"translation"
					}
				},
				{
					"sampler":1,
					"target":{
						"node":6,
						"path":"rotation"
					}
				}
			],
			"name":"Swim",
			"samplers":[
				{
					"input":37,
					"interpolation":"STEP",
					"output":38
				},
				{
					"input":39,
					"interpolation":"LINEAR",
					"output":40
				}
			]
		}
	],
	"materials":[
		{
			"doubleSided":true,
			"name":"Material",
			"pbrMetallicRoughness":{
				"baseColorTexture":{
					"index":0
				},
				"metallicFactor":0,
				"roughnessFactor":0.4000000059604645
			}
		},
		{
			"doubleSided":true,
			"name":"Material.004",
			"pbrMetallicRoughness":{
				"baseColorTexture":{
					"index":1
				},
				"metallicFactor":0,
				"roughnessFactor":0.5
			}
		},
		{
			"doubleSided":true,
			"name":"Material.003",
			"pbrMetallicRoughness":{
				"baseColorTexture":{
					"index":2
				},
				"metallicFactor":0,
				"roughnessFactor":0.5
			}
		},
		{
			"doubleSided":true,
			"name":"Material.005",
			"pbrMetallicRoughness":{
				"baseColorTexture":{
					"index":3
				},
				"metallicFactor":0,
				"roughnessFactor":0.5
			}
		},
		{
			"doubleSided":true,
			"name":"Material.001",
			"pbrMetallicRoughness":{
				"baseColorTexture":{
					"index":4
				},
				"metallicFactor":0,
				"roughnessFactor":0.5
			}
		}
	],
	"meshes":[
		{
			"name":"Cube",
			"primitives":[
				{
					"attributes":{
						"POSITION":0,
						"NORMAL":1,
						"TEXCOORD_0":2,
						"TANGENT":3
					},
					"indices":4,
					"material":0
				}
			]
		},
		{
			"name":"Sphere",
			"primitives":[
				{
					"attributes":{
						"POSITION":5,
						"NORMAL":6,
						"TEXCOORD_0":7,
						"TANGENT":8
					},
					"indices":9,
					"material":1
				}
			]
		},
		{
			"name":"Cube.001",
			"primitives":[
				{
					"attributes":{
						"POSITION":10,
						"NORMAL":11,
						"TEXCOORD_0":12,
						"TANGENT":13
					},
					"indices":14,
					"material":2
				}
			]
		},
		{
			"name":"Sphere.001",
			"primitives":[
				{
					"attributes":{
						"POSITION":15,
						"NORMAL":16,
						"TEXCOORD_0":17,
						"TANGENT":18
					},
					"indices":9,
					"material":3
				}
			]
		},
		{
			"name":"Sphere.002",
			"primitives":[
				{
					"attributes":{
						"POSITION":19,
						"NORMAL":20,
						"TEXCOORD_0":21,
						"TANGENT":22
					},
					"indices":23,
					"material":4
				}
			]
		}
	],
	"textures":[
		{
			"sampler":0,
			"source":0
		},
		{
			"sampler":0,
			"source":1
		},
		{
			"sampler":0,
			"source":1
		},
		{
			"sampler":0,
			"source":2
		},
		{
			"sampler":0,
			"source":0
		}
	],
	"images":[
		{
			"mimeType":"image/png",
			"name":"feesh-texture.png",
			"uri":"../../Assets/Textures/feesh-texture.png"
		},
		{
			"mimeType":"image/png",
			"name":"Eyeball-texture.png",
			"uri":"../../Assets/Textures/Eyeball-texture.png"
		},
		{
			"mimeType":"image/png",
			"name":"eyesmall.png",
			"uri":"../../Assets/Textures/eyesmall.png"
		}
	],
	"accessors":[
		{
			"bufferView":0,
			"componentType":5126,
			"count":228,
			"max":[
				2.741283893585205,
				2.263441801071167,
				1.2491631507873535
			],
			"min":[
				-3.5257725715637207,
				-2.2549374103546143,
				-1.2491631507873535
			],
			"type":"VEC3"
		},
		{
			"bufferView":1,
			"componentType":5126,
			"count":228,
			"type":"VEC3"
		},
		{
			"bufferView":2,
			"componentType":5126,
			"count":228,
			"type":"VEC2"
		},
		{
			"bufferView":3,
			"componentType":5126,
			"count":228,
			"type":"VEC4"
		},
		{
			"bufferView":4,
			"componentType":5123,
			"count":612,
			"type":"SCALAR"
		},
		{
			"bufferView":5,
			"componentType":5126,
			"count":1118,
			"max":[
				0.9999997019767761,
				1,
				0.9999994039535522
			],
			"min":[
				-0.9999990463256836,
				-1,
				-9.050472259521484
			],
			"type":"VEC3"
		},
		{
			"bufferView":6,
			"componentType":5126,
			"count":1118,
			"type":"VEC3"
		},
		{
			"bufferView":7,
			"componentType":5126,
			"count":1118,
			"type":"VEC2"
		},
		{
			"bufferView":8,
			"componentType":5126,
			"count":1118,
			"type":"VEC4"
		},
		{
			"bufferView":9,
			"componentType":5123,
			"count":5760,
			"type":"SCALAR"
		},
		{
			"bufferView":10,
			"componentType":5126,
			"count":28,
			"max":[
				1,
				1,
				1
			],
			"min":[
				-1.0000038146972656,
				-2.9300119876861572,
				-2.8794918060302734
			],
			"type":"VEC3"
		},
		{
			"bufferView":11,
			"componentType":5126,
			"count":28,
			"type":"VEC3"
		},
		{
			"bufferView":12,
			"componentType":5126,
			"count":28,
			"type":"VEC2"
		},
		{
			"bufferView":13,
			"componentType":5126,
			"count":28,
			"type":"VEC4"
		},
		{
			"bufferView":14,
			"componentType":5123,
			"count":72,
			"type":"SCALAR"
		},
		{
			"bufferView":15,
			"componentType":5126,
			"count":1118,
			"max":[
				1.2979286909103394,
				1.297930359840393,
				1.2979321479797363
			],
			"min":[
				-1.2979451417922974,
				-1.297944188117981,
				-20.678112030029297
			],
			"type":"VEC3"
		},
		{
			"bufferView":16,
			"componentType":5126,
			"count":1118,
			"type":"VEC3"
		},
		{
			"bufferView":17,
			"componentType":5126,
			"count":1118,
			"type":"VEC2"
		},
		{
			"bufferView":18,
			"componentType":5126,
			"count":1118,
			"type":"VEC4"
		},
		{
			"bufferView":19,
			"componentType":5126,
			"count":1118,
			"max":[
				0.9999997019767761,
				1.0000001192092896,
				14.673758506774902
			],
			"min":[
				-0.9999990463256836,
				-1,
				-1
			],
			"type":"VEC3"
		},
		{
			"bufferView":20,
			"componentType":5126,
			"count":1118,
			"type":"VEC3"
		},
		{
			"bufferView":21,
			"componentType":5126,
			"count":1118,
			"type":"VEC2"
		},
		{
			"bufferView":22,
			"componentType":5126,
			"count":1118,
			"type":"VEC4"
		},
		{
			"bufferView":23,
			"componentType":5123,
			"count":5760,
			"type":"SCALAR"
		},
		{
			"bufferView":24,
			"componentType":5126,
			"count":1,
			"max":[
				0.041666666666666664
			],
			"min":[
				0.041666666666666664
			],
			"type":"SCALAR"
		},
		{
			"bufferView":25,
			"componentType":5126,
			"count":1,
			"type":"VEC3"
		},
		{
			"bufferView":26,
			"componentType":5126,
			"count":1,
			"type":"VEC4"
		},
		{
			"bufferView":27,
			"componentType":5126,
			"count":1,
			"type":"VEC3"
		},
		{
			"bufferView":28,
			"componentType":5126,
			"count":120,
			"max":[
				5
			],
			"min":[
				0.041666666666666664
			],
			"type":"SCALAR"
		},
		{
			"bufferView":29,
			"componentType":5126,
			"count":120,
			"type":"VEC3"
		},
		{
			"bufferView":30,
			"componentType":5126,
			"count":2,
			"max":[
				5
			],
			"min":[
				0.041666666666666664
			],
			"type":"SCALAR"
		},
		{
			"bufferView":31,
			"componentType":5126,
			"count":2,
			"type":"VEC4"
		},
		{
			"bufferView":32,
			"componentType":5126,
			"count":2,
			"type":"VEC3"
		},
		{
			"bufferView":33,
			"componentType":5126,
			"count":120,
			"type":"VEC3"
		},
		{
			"bufferView":34,
			"componentType":5126,
			"count":2,
			"type":"VEC4"
		},
		{
			"bufferView":35,
			"componentType":5126,
			"count":120,
			"type":"VEC3"
		},
		{
			"bufferView":36,
			"componentType":5126,
			"count":2,
			"type":"VEC4"
		},
		{
			"bufferView":37,
			"componentType":5126,
			"count":2,
			"max":[
				3.3333333333333335
			],
			"min":[
				0.041666666666666664
			],
			"type":"SCALAR"
		},
		{
			"bufferView":38,
			"componentType":5126,
			"count":2,
			"type":"VEC3"
		},
		{
			"bufferView":39,
			"componentType":5126,
			"count":80,
			"max":[
				3.3333333333333335
			],
			"min":[
				0.041666666666666664
			],
			"type":"SCALAR"
		},
		{
			"bufferView":40,
			"componentType":5126,
			"count":80,
			"type":"VEC4"
		}
	],
	"bufferViews":[
		{
			"buffer":0,
			"byteLength":2736,
			"byteOffset":0,
			"target":34962
		},
		{
			"buffer":0,
			"byteLength":2736,
			"byteOffset":2736,
			"target":34962
		},
		{
			"buffer":0,
			"byteLength":1824,
			"byteOffset":5472,
			"target":34962
		},
		{
			"buffer":0,
			"byteLength":3648,
			"byteOffset":7296,
			"target":34962
		},
		{
			"buffer":0,
			"byteLength":1224,
			"byteOffset":10944,
			"target":34963
		},
		{
			"buffer":0,
			"byteLength":13416,
			"byteOffset":12168,
			"target":34962
		},
		{
			"buffer":0,
			"byteLength":13416,
			"byteOffset":25584,
			"target":34962
		},
		{
			"buffer":0,
			"byteLength":8944,
			"byteOffset":39000,
			"target":34962
		},
		{
			"buffer":0,
			"byteLength":17888,
			"byteOffset":47944,
			"target":34962
		},
		{
			"buffer":0,
			"byteLength":11520,
			"byteOffset":65832,
			"target":34963
		},
		{
			"buffer":0,
			"byteLength":336,
			"byteOffset":77352,
			"target":34962
		},
		{
			"buffer":0,
			"byteLength":336,
			"byteOffset":77688,
			"target":34962
		},
		{
			"buffer":0,
			"byteLength":224,
			"byteOffset":78024,
			"target":34962
		},
		{
			"buffer":0,
			"byteLength":448,
			"byteOffset":78248,
			"target":34962
		},
		{
			"buffer":0,
			"byteLength":144,
			"byteOffset":78696,
			"target":34963
		},
		{
			"buffer":0,
			"byteLength":13416,
			"byteOffset":78840,
			"target":34962
		},
		{
			"buffer":0,
			"byteLength":13416,
			"byteOffset":92256,
			"target":34962
		},
		{
			"buffer":0,
			"byteLength":8944,
			"byteOffset":105672,
			"target":34962
		},
		{
			"buffer":0,
			"byteLength":17888,
			"byteOffset":114616,
			"target":34962
		},
		{
			"buffer":0,
			"byteLength":13416,
			"byteOffset":132504,
			"target":34962
		},
		{
			"buffer":0,
			"byteLength":13416,
			"byteOffset":145920,
			"target":34962
		},
		{
			"buffer":0,
			"byteLength":8944,
			"byteOffset":159336,
			"target":34962
		},
		{
			"buffer":0,
			"byteLength":17888,
			"byteOffset":168280,
			"target":34962
		},
		{
			"buffer":0,
			"byteLength":11520,
			"byteOffset":186168,
			"target":34963
		},
		{
			"buffer":0,
			"byteLength":4,
			"byteOffset":197688
		},
		{
			"buffer":0,
			"byteLength":12,
			"byteOffset":197692
		},
		{
			"buffer":0,
			"byteLength":16,
			"byteOffset":197704
		},
		{
			"buffer":0,
			"byteLength":12,
			"byteOffset":197720
		},
		{
			"buffer":0,
			"byteLength":480,
			"byteOffset":197732
		},
		{
			"buffer":0,
			"byteLength":1440,
			"byteOffset":198212
		},
		{
			"buffer":0,
			"byteLength":8,
			"byteOffset":199652
		},
		{
			"buffer":0,
			"byteLength":32,
			"byteOffset":199660
		},
		{
			"buffer":0,
			"byteLength":24,
			"byteOffset":199692
		},
		{
			"buffer":0,
			"byteLength":1440,
			"byteOffset":199716
		},
		{
			"buffer":0,
			"byteLength":32,
			"byteOffset":201156
		},
		{
			"buffer":0,
			"byteLength":1440,
			"byteOffset":201188
		},
		{
			"buffer":0,
			"byteLength":32,
			"byteOffset":202628
		},
		{
			"buffer":0,
			"byteLength":8,
			"byteOffset":202660
		},
		{
			"buffer":0,
			"byteLength":24,
			"byteOffset":202668
		},
		{
			"buffer":0,
			"byteLength":320,
			"byteOffset":202692
		},
		{
			"buffer":0,
			"byteLength":1280,
			"byteOffset":203012
		}
	],
	"samplers":[
		{
			"magFilter":9729,
			"minFilter":9987
		}
	],
	"buffers":[
		{
			"byteLength":204292,
			"uri":"feesh-5a2fb0d2028e5557e3cb9ac0a2df1806.bin"
		}
	]
}
