{
	"asset":{
		"generator":"Khronos glTF Blender I/O v3.6.27",
		"version":"2.0"
	},
	"scene":0,
	"scenes":[
		{
			"name":"Scene",
			"nodes":[
				0,
				1,
				2,
				3,
				4,
				5,
				6,
				7,
				8,
				9,
				10,
				11
			]
		}
	],
	"nodes":[
		{
			"mesh":0,
			"name":"Feesh"
		},
		{
			"mesh":1,
			"name":"Eye",
			"scale":[
				0.15030640363693237,
				0.15030640363693237,
				0.15030640363693237
			],
			"translation":[
				1.959871768951416,
				0.8373052477836609,
				0.6050188541412354
			]
		},
		{
			"mesh":2,
			"name":"teef",
			"scale":[
				0.04213638976216316,
				0.04213638976216316,
				0.04213638976216316
			],
			"translation":[
				2.6295149326324463,
				-0.04641656577587128,
				0.03959750384092331
			]
		},
		{
			"mesh":3,
			"name":"Eyesmall",
			"scale":[
				0.06480155140161514,
				0.06480155140161514,
				0.06480155140161514
			],
			"translation":[
				2.0364227294921875,
				0.8268083930015564,
				0.6279329657554626
			]
		},
		{
			"mesh":4,
			"name":"Sphere",
			"scale":[
				0.19700734317302704,
				0.19700734317302704,
				0.19700734317302704
			],
			"translation":[
				0.7508143782615662,
				-0.37163427472114563,
				-1.346915364265442
			]
		},
		{
			"name":"Empty",
			"translation":[
				2.545736789703369,
				0.026839811354875565,
				0
			]
		},
		{
			"name":"Empty.001",
			"translation":[
				-3.2493834495544434,
				-0.004117831587791443,
				0
			]
		},
		{
			"mesh":5,
			"name":"Leg2",
			"scale":[
				0.3927951753139496,
				0.3927951753139496,
				0.3927951753139496
			],
			"translation":[
				0.061230942606925964,
				-3.17215633392334,
				0.5393617749214172
			]
		},
		{
			"mesh":6,
			"name":"Leg1",
			"scale":[
				0.3927951753139496,
				0.3927951753139496,
				0.3927951753139496
			],
			"translation":[
				0.061230942606925964,
				-3.17215633392334,
				-0.5297958254814148
			]
		},
		{
			"mesh":7,
			"name":"Sphere.002",
			"rotation":[
				-0.0022607254795730114,
				0.004489091224968433,
				0.02738051488995552,
				0.9996124505996704
			],
			"scale":[
				0.7652244567871094,
				1,
				0.7508872151374817
			],
			"translation":[
				0.007135799620300531,
				2.1771697998046875,
				0.002969688968732953
			]
		},
		{
			"mesh":8,
			"name":"Sphere.001",
			"rotation":[
				0,
				0,
				0.05017183721065521,
				0.9987406134605408
			],
			"translation":[
				0.005905762780457735,
				1.9051634073257446,
				0
			]
		},
		{
			"mesh":9,
			"name":"Cylinder",
			"scale":[
				0.7707820534706116,
				0.30406877398490906,
				0.7707820534706116
			],
			"translation":[
				0,
				2.3404862880706787,
				0
			]
		}
	],
	"animations":[
		{
			"channels":[
				{
					"sampler":0,
					"target":{
						"node":0,
						"path":"translation"
					}
				},
				{
					"sampler":1,
					"target":{
						"node":0,
						"path":"rotation"
					}
				},
				{
					"sampler":2,
					"target":{
						"node":0,
						"path":"scale"
					}
				}
			],
			"name":"FeeshAction",
			"samplers":[
				{
					"input":45,
					"interpolation":"LINEAR",
					"output":46
				},
				{
					"input":45,
					"interpolation":"LINEAR",
					"output":47
				},
				{
					"input":45,
					"interpolation":"LINEAR",
					"output":48
				}
			]
		},
		{
			"channels":[
				{
					"sampler":0,
					"target":{
						"node":2,
						"path":"translation"
					}
				},
				{
					"sampler":1,
					"target":{
						"node":2,
						"path":"rotation"
					}
				},
				{
					"sampler":2,
					"target":{
						"node":2,
						"path":"scale"
					}
				}
			],
			"name":"teefAction",
			"samplers":[
				{
					"input":49,
					"interpolation":"LINEAR",
					"output":50
				},
				{
					"input":51,
					"interpolation":"STEP",
					"output":52
				},
				{
					"input":51,
					"interpolation":"STEP",
					"output":53
				}
			]
		},
		{
			"channels":[
				{
					"sampler":0,
					"target":{
						"node":5,
						"path":"translation"
					}
				},
				{
					"sampler":1,
					"target":{
						"node":5,
						"path":"rotation"
					}
				}
			],
			"name":"Eat",
			"samplers":[
				{
					"input":49,
					"interpolation":"LINEAR",
					"output":54
				},
				{
					"input":51,
					"interpolation":"STEP",
					"output":55
				}
			]
		},
		{
			"channels":[
				{
					"sampler":0,
					"target":{
						"node":5,
						"path":"translation"
					}
				},
				{
					"sampler":1,
					"target":{
						"node":5,
						"path":"rotation"
					}
				}
			],
			"name":"EmptyAction",
			"samplers":[
				{
					"input":49,
					"interpolation":"LINEAR",
					"output":56
				},
				{
					"input":51,
					"interpolation":"STEP",
					"output":57
				}
			]
		},
		{
			"channels":[
				{
					"sampler":0,
					"target":{
						"node":6,
						"path":"translation"
					}
				},
				{
					"sampler":1,
					"target":{
						"node":6,
						"path":"rotation"
					}
				}
			],
			"name":"Swim",
			"samplers":[
				{
					"input":58,
					"interpolation":"STEP",
					"output":59
				},
				{
					"input":60,
					"interpolation":"LINEAR",
					"output":61
				}
			]
		}
	],
	"materials":[
		{
			"doubleSided":true,
			"name":"Material",
			"pbrMetallicRoughness":{
				"baseColorTexture":{
					"index":0
				},
				"metallicFactor":0,
				"roughnessFactor":0.4000000059604645
			}
		},
		{
			"doubleSided":true,
			"name":"Material.004",
			"pbrMetallicRoughness":{
				"baseColorTexture":{
					"index":1
				},
				"metallicFactor":0,
				"roughnessFactor":0.5
			}
		},
		{
			"doubleSided":true,
			"name":"Material.003",
			"pbrMetallicRoughness":{
				"baseColorTexture":{
					"index":2
				},
				"metallicFactor":0,
				"roughnessFactor":0.5
			}
		},
		{
			"doubleSided":true,
			"name":"Material.005",
			"pbrMetallicRoughness":{
				"baseColorTexture":{
					"index":3
				},
				"metallicFactor":0,
				"roughnessFactor":0.5
			}
		},
		{
			"doubleSided":true,
			"name":"Material.001",
			"pbrMetallicRoughness":{
				"baseColorTexture":{
					"index":4
				},
				"metallicFactor":0,
				"roughnessFactor":0.5
			}
		},
		{
			"doubleSided":true,
			"name":"Material.008",
			"pbrMetallicRoughness":{
				"baseColorTexture":{
					"index":5
				},
				"metallicFactor":0,
				"roughnessFactor":0.5
			}
		},
		{
			"doubleSided":true,
			"name":"Material.002",
			"pbrMetallicRoughness":{
				"baseColorTexture":{
					"index":6
				},
				"metallicFactor":0,
				"roughnessFactor":0.5
			}
		},
		{
			"doubleSided":true,
			"name":"Material.006",
			"pbrMetallicRoughness":{
				"baseColorTexture":{
					"index":7
				},
				"metallicFactor":0,
				"roughnessFactor":0.5
			}
		},
		{
			"doubleSided":true,
			"name":"Material.007",
			"pbrMetallicRoughness":{
				"baseColorTexture":{
					"index":8
				},
				"metallicFactor":0,
				"roughnessFactor":0.5
			}
		}
	],
	"meshes":[
		{
			"name":"Cube",
			"primitives":[
				{
					"attributes":{
						"POSITION":0,
						"NORMAL":1,
						"TEXCOORD_0":2,
						"TANGENT":3
					},
					"indices":4,
					"material":0
				}
			]
		},
		{
			"name":"Sphere",
			"primitives":[
				{
					"attributes":{
						"POSITION":5,
						"NORMAL":6,
						"TEXCOORD_0":7,
						"TANGENT":8
					},
					"indices":9,
					"material":1
				}
			]
		},
		{
			"name":"Cube.001",
			"primitives":[
				{
					"attributes":{
						"POSITION":10,
						"NORMAL":11,
						"TEXCOORD_0":12,
						"TANGENT":13
					},
					"indices":14,
					"material":2
				}
			]
		},
		{
			"name":"Sphere.001",
			"primitives":[
				{
					"attributes":{
						"POSITION":15,
						"NORMAL":16,
						"TEXCOORD_0":17,
						"TANGENT":18
					},
					"indices":9,
					"material":3
				}
			]
		},
		{
			"name":"Sphere.002",
			"primitives":[
				{
					"attributes":{
						"POSITION":19,
						"NORMAL":20,
						"TEXCOORD_0":21,
						"TANGENT":22
					},
					"indices":23,
					"material":4
				}
			]
		},
		{
			"name":"Sphere.007",
			"primitives":[
				{
					"attributes":{
						"POSITION":24,
						"NORMAL":25,
						"TEXCOORD_0":26,
						"TANGENT":27
					},
					"indices":28,
					"material":5
				}
			]
		},
		{
			"name":"Sphere.009",
			"primitives":[
				{
					"attributes":{
						"POSITION":29,
						"NORMAL":30,
						"TEXCOORD_0":31,
						"TANGENT":32
					},
					"indices":28,
					"material":5
				}
			]
		},
		{
			"name":"Sphere.004",
			"primitives":[
				{
					"attributes":{
						"POSITION":33,
						"NORMAL":34,
						"TEXCOORD_0":35
					},
					"indices":36,
					"material":6
				}
			]
		},
		{
			"name":"Sphere.005",
			"primitives":[
				{
					"attributes":{
						"POSITION":37,
						"NORMAL":38,
						"TEXCOORD_0":39
					},
					"indices":40,
					"material":7
				}
			]
		},
		{
			"name":"Cylinder",
			"primitives":[
				{
					"attributes":{
						"POSITION":41,
						"NORMAL":42,
						"TEXCOORD_0":43
					},
					"indices":44,
					"material":8
				}
			]
		}
	],
	"textures":[
		{
			"sampler":0,
			"source":0
		},
		{
			"sampler":0,
			"source":1
		},
		{
			"sampler":0,
			"source":1
		},
		{
			"sampler":0,
			"source":2
		},
		{
			"sampler":0,
			"source":0
		},
		{
			"sampler":0,
			"source":3
		},
		{
			"sampler":0,
			"source":4
		},
		{
			"sampler":0,
			"source":5
		},
		{
			"sampler":0,
			"source":6
		}
	],
	"images":[
		{
			"mimeType":"image/png",
			"name":"feesh-texture.png",
			"uri":"../../Assets/Textures/feesh-texture.png"
		},
		{
			"mimeType":"image/png",
			"name":"Eyeball-texture.png",
			"uri":"../../Assets/Textures/Eyeball-texture.png"
		},
		{
			"mimeType":"image/png",
			"name":"eyesmall.png",
			"uri":"../../Assets/Textures/eyesmall.png"
		},
		{
			"mimeType":"image/png",
			"name":"leg1",
			"uri":"../../Assets/Textures/leg1.png"
		},
		{
			"mimeType":"image/png",
			"name":"strawhat",
			"uri":"../../Assets/Textures/strawhat_hat.png"
		},
		{
			"mimeType":"image/png",
			"name":"basshat",
			"uri":"../../Assets/Textures/basshat.png"
		},
		{
			"mimeType":"image/png",
			"name":"women_love_me",
			"uri":"../../Assets/Textures/women_love_me.png"
		}
	],
	"accessors":[
		{
			"bufferView":0,
			"componentType":5126,
			"count":228,
			"max":[
				2.741283893585205,
				2.263441801071167,
				1.2491631507873535
			],
			"min":[
				-3.5257725715637207,
				-2.2549374103546143,
				-1.2491631507873535
			],
			"type":"VEC3"
		},
		{
			"bufferView":1,
			"componentType":5126,
			"count":228,
			"type":"VEC3"
		},
		{
			"bufferView":2,
			"componentType":5126,
			"count":228,
			"type":"VEC2"
		},
		{
			"bufferView":3,
			"componentType":5126,
			"count":228,
			"type":"VEC4"
		},
		{
			"bufferView":4,
			"componentType":5123,
			"count":612,
			"type":"SCALAR"
		},
		{
			"bufferView":5,
			"componentType":5126,
			"count":1118,
			"max":[
				0.9999997019767761,
				1,
				0.9999994039535522
			],
			"min":[
				-0.9999990463256836,
				-1,
				-9.050472259521484
			],
			"type":"VEC3"
		},
		{
			"bufferView":6,
			"componentType":5126,
			"count":1118,
			"type":"VEC3"
		},
		{
			"bufferView":7,
			"componentType":5126,
			"count":1118,
			"type":"VEC2"
		},
		{
			"bufferView":8,
			"componentType":5126,
			"count":1118,
			"type":"VEC4"
		},
		{
			"bufferView":9,
			"componentType":5123,
			"count":5760,
			"type":"SCALAR"
		},
		{
			"bufferView":10,
			"componentType":5126,
			"count":28,
			"max":[
				1,
				1,
				1
			],
			"min":[
				-1.0000038146972656,
				-2.9300119876861572,
				-2.8794918060302734
			],
			"type":"VEC3"
		},
		{
			"bufferView":11,
			"componentType":5126,
			"count":28,
			"type":"VEC3"
		},
		{
			"bufferView":12,
			"componentType":5126,
			"count":28,
			"type":"VEC2"
		},
		{
			"bufferView":13,
			"componentType":5126,
			"count":28,
			"type":"VEC4"
		},
		{
			"bufferView":14,
			"componentType":5123,
			"count":72,
			"type":"SCALAR"
		},
		{
			"bufferView":15,
			"componentType":5126,
			"count":1118,
			"max":[
				1.2979286909103394,
				1.297930359840393,
				1.2979321479797363
			],
			"min":[
				-1.2979451417922974,
				-1.297944188117981,
				-20.678112030029297
			],
			"type":"VEC3"
		},
		{
			"bufferView":16,
			"componentType":5126,
			"count":1118,
			"type":"VEC3"
		},
		{
			"bufferView":17,
			"componentType":5126,
			"count":1118,
			"type":"VEC2"
		},
		{
			"bufferView":18,
			"componentType":5126,
			"count":1118,
			"type":"VEC4"
		},
		{
			"bufferView":19,
			"componentType":5126,
			"count":1118,
			"max":[
				0.9999997019767761,
				1.0000001192092896,
				14.673758506774902
			],
			"min":[
				-0.9999990463256836,
				-1,
				-1
			],
			"type":"VEC3"
		},
		{
			"bufferView":20,
			"componentType":5126,
			"count":1118,
			"type":"VEC3"
		},
		{
			"bufferView":21,
			"componentType":5126,
			"count":1118,
			"type":"VEC2"
		},
		{
			"bufferView":22,
			"componentType":5126,
			"count":1118,
			"type":"VEC4"
		},
		{
			"bufferView":23,
			"componentType":5123,
			"count":5760,
			"type":"SCALAR"
		},
		{
			"bufferView":24,
			"componentType":5126,
			"count":2236,
			"max":[
				3.34476375579834,
				5.1257123947143555,
				1.4779982566833496
			],
			"min":[
				-1.6338825225830078,
				-1.5027692317962646,
				-1.4779982566833496
			],
			"type":"VEC3"
		},
		{
			"bufferView":25,
			"componentType":5126,
			"count":2236,
			"type":"VEC3"
		},
		{
			"bufferView":26,
			"componentType":5126,
			"count":2236,
			"type":"VEC2"
		},
		{
			"bufferView":27,
			"componentType":5126,
			"count":2236,
			"type":"VEC4"
		},
		{
			"bufferView":28,
			"componentType":5123,
			"count":11520,
			"type":"SCALAR"
		},
		{
			"bufferView":29,
			"componentType":5126,
			"count":2236,
			"max":[
				3.34476375579834,
				5.1257123947143555,
				1.4779982566833496
			],
			"min":[
				-1.6338825225830078,
				-1.5027692317962646,
				-1.4779982566833496
			],
			"type":"VEC3"
		},
		{
			"bufferView":30,
			"componentType":5126,
			"count":2236,
			"type":"VEC3"
		},
		{
			"bufferView":31,
			"componentType":5126,
			"count":2236,
			"type":"VEC2"
		},
		{
			"bufferView":32,
			"componentType":5126,
			"count":2236,
			"type":"VEC4"
		},
		{
			"bufferView":33,
			"componentType":5126,
			"count":964,
			"max":[
				1.5362865924835205,
				1,
				1.5561813116073608
			],
			"min":[
				-1.5177628993988037,
				-0.08779598027467728,
				-1.5561823844909668
			],
			"type":"VEC3"
		},
		{
			"bufferView":34,
			"componentType":5126,
			"count":964,
			"type":"VEC3"
		},
		{
			"bufferView":35,
			"componentType":5126,
			"count":964,
			"type":"VEC2"
		},
		{
			"bufferView":36,
			"componentType":5123,
			"count":4602,
			"type":"SCALAR"
		},
		{
			"bufferView":37,
			"componentType":5126,
			"count":368,
			"max":[
				1.6413472890853882,
				1.0386710166931152,
				0.9807849526405334
			],
			"min":[
				-0.9807847738265991,
				0.13646256923675537,
				-0.9807852506637573
			],
			"type":"VEC3"
		},
		{
			"bufferView":38,
			"componentType":5126,
			"count":368,
			"type":"VEC3"
		},
		{
			"bufferView":39,
			"componentType":5126,
			"count":368,
			"type":"VEC2"
		},
		{
			"bufferView":40,
			"componentType":5123,
			"count":1422,
			"type":"SCALAR"
		},
		{
			"bufferView":41,
			"componentType":5126,
			"count":176,
			"max":[
				2.543626070022583,
				2.8148884773254395,
				2.4915931224823
			],
			"min":[
				-2.4395601749420166,
				-2.8483784198760986,
				-2.4915931224823
			],
			"type":"VEC3"
		},
		{
			"bufferView":42,
			"componentType":5126,
			"count":176,
			"type":"VEC3"
		},
		{
			"bufferView":43,
			"componentType":5126,
			"count":176,
			"type":"VEC2"
		},
		{
			"bufferView":44,
			"componentType":5123,
			"count":564,
			"type":"SCALAR"
		},
		{
			"bufferView":45,
			"componentType":5126,
			"count":1,
			"max":[
				0.041666666666666664
			],
			"min":[
				0.041666666666666664
			],
			"type":"SCALAR"
		},
		{
			"bufferView":46,
			"componentType":5126,
			"count":1,
			"type":"VEC3"
		},
		{
			"bufferView":47,
			"componentType":5126,
			"count":1,
			"type":"VEC4"
		},
		{
			"bufferView":48,
			"componentType":5126,
			"count":1,
			"type":"VEC3"
		},
		{
			"bufferView":49,
			"componentType":5126,
			"count":120,
			"max":[
				5
			],
			"min":[
				0.041666666666666664
			],
			"type":"SCALAR"
		},
		{
			"bufferView":50,
			"componentType":5126,
			"count":120,
			"type":"VEC3"
		},
		{
			"bufferView":51,
			"componentType":5126,
			"count":2,
			"max":[
				5
			],
			"min":[
				0.041666666666666664
			],
			"type":"SCALAR"
		},
		{
			"bufferView":52,
			"componentType":5126,
			"count":2,
			"type":"VEC4"
		},
		{
			"bufferView":53,
			"componentType":5126,
			"count":2,
			"type":"VEC3"
		},
		{
			"bufferView":54,
			"componentType":5126,
			"count":120,
			"type":"VEC3"
		},
		{
			"bufferView":55,
			"componentType":5126,
			"count":2,
			"type":"VEC4"
		},
		{
			"bufferView":56,
			"componentType":5126,
			"count":120,
			"type":"VEC3"
		},
		{
			"bufferView":57,
			"componentType":5126,
			"count":2,
			"type":"VEC4"
		},
		{
			"bufferView":58,
			"componentType":5126,
			"count":2,
			"max":[
				3.3333333333333335
			],
			"min":[
				0.041666666666666664
			],
			"type":"SCALAR"
		},
		{
			"bufferView":59,
			"componentType":5126,
			"count":2,
			"type":"VEC3"
		},
		{
			"bufferView":60,
			"componentType":5126,
			"count":80,
			"max":[
				3.3333333333333335
			],
			"min":[
				0.041666666666666664
			],
			"type":"SCALAR"
		},
		{
			"bufferView":61,
			"componentType":5126,
			"count":80,
			"type":"VEC4"
		}
	],
	"bufferViews":[
		{
			"buffer":0,
			"byteLength":2736,
			"byteOffset":0,
			"target":34962
		},
		{
			"buffer":0,
			"byteLength":2736,
			"byteOffset":2736,
			"target":34962
		},
		{
			"buffer":0,
			"byteLength":1824,
			"byteOffset":5472,
			"target":34962
		},
		{
			"buffer":0,
			"byteLength":3648,
			"byteOffset":7296,
			"target":34962
		},
		{
			"buffer":0,
			"byteLength":1224,
			"byteOffset":10944,
			"target":34963
		},
		{
			"buffer":0,
			"byteLength":13416,
			"byteOffset":12168,
			"target":34962
		},
		{
			"buffer":0,
			"byteLength":13416,
			"byteOffset":25584,
			"target":34962
		},
		{
			"buffer":0,
			"byteLength":8944,
			"byteOffset":39000,
			"target":34962
		},
		{
			"buffer":0,
			"byteLength":17888,
			"byteOffset":47944,
			"target":34962
		},
		{
			"buffer":0,
			"byteLength":11520,
			"byteOffset":65832,
			"target":34963
		},
		{
			"buffer":0,
			"byteLength":336,
			"byteOffset":77352,
			"target":34962
		},
		{
			"buffer":0,
			"byteLength":336,
			"byteOffset":77688,
			"target":34962
		},
		{
			"buffer":0,
			"byteLength":224,
			"byteOffset":78024,
			"target":34962
		},
		{
			"buffer":0,
			"byteLength":448,
			"byteOffset":78248,
			"target":34962
		},
		{
			"buffer":0,
			"byteLength":144,
			"byteOffset":78696,
			"target":34963
		},
		{
			"buffer":0,
			"byteLength":13416,
			"byteOffset":78840,
			"target":34962
		},
		{
			"buffer":0,
			"byteLength":13416,
			"byteOffset":92256,
			"target":34962
		},
		{
			"buffer":0,
			"byteLength":8944,
			"byteOffset":105672,
			"target":34962
		},
		{
			"buffer":0,
			"byteLength":17888,
			"byteOffset":114616,
			"target":34962
		},
		{
			"buffer":0,
			"byteLength":13416,
			"byteOffset":132504,
			"target":34962
		},
		{
			"buffer":0,
			"byteLength":13416,
			"byteOffset":145920,
			"target":34962
		},
		{
			"buffer":0,
			"byteLength":8944,
			"byteOffset":159336,
			"target":34962
		},
		{
			"buffer":0,
			"byteLength":17888,
			"byteOffset":168280,
			"target":34962
		},
		{
			"buffer":0,
			"byteLength":11520,
			"byteOffset":186168,
			"target":34963
		},
		{
			"buffer":0,
			"byteLength":26832,
			"byteOffset":197688,
			"target":34962
		},
		{
			"buffer":0,
			"byteLength":26832,
			"byteOffset":224520,
			"target":34962
		},
		{
			"buffer":0,
			"byteLength":17888,
			"byteOffset":251352,
			"target":34962
		},
		{
			"buffer":0,
			"byteLength":35776,
			"byteOffset":269240,
			"target":34962
		},
		{
			"buffer":0,
			"byteLength":23040,
			"byteOffset":305016,
			"target":34963
		},
		{
			"buffer":0,
			"byteLength":26832,
			"byteOffset":328056,
			"target":34962
		},
		{
			"buffer":0,
			"byteLength":26832,
			"byteOffset":354888,
			"target":34962
		},
		{
			"buffer":0,
			"byteLength":17888,
			"byteOffset":381720,
			"target":34962
		},
		{
			"buffer":0,
			"byteLength":35776,
			"byteOffset":399608,
			"target":34962
		},
		{
			"buffer":0,
			"byteLength":11568,
			"byteOffset":435384,
			"target":34962
		},
		{
			"buffer":0,
			"byteLength":11568,
			"byteOffset":446952,
			"target":34962
		},
		{
			"buffer":0,
			"byteLength":7712,
			"byteOffset":458520,
			"target":34962
		},
		{
			"buffer":0,
			"byteLength":9204,
			"byteOffset":466232,
			"target":34963
		},
		{
			"buffer":0,
			"byteLength":4416,
			"byteOffset":475436,
			"target":34962
		},
		{
			"buffer":0,
			"byteLength":4416,
			"byteOffset":479852,
			"target":34962
		},
		{
			"buffer":0,
			"byteLength":2944,
			"byteOffset":484268,
			"target":34962
		},
		{
			"buffer":0,
			"byteLength":2844,
			"byteOffset":487212,
			"target":34963
		},
		{
			"buffer":0,
			"byteLength":2112,
			"byteOffset":490056,
			"target":34962
		},
		{
			"buffer":0,
			"byteLength":2112,
			"byteOffset":492168,
			"target":34962
		},
		{
			"buffer":0,
			"byteLength":1408,
			"byteOffset":494280,
			"target":34962
		},
		{
			"buffer":0,
			"byteLength":1128,
			"byteOffset":495688,
			"target":34963
		},
		{
			"buffer":0,
			"byteLength":4,
			"byteOffset":496816
		},
		{
			"buffer":0,
			"byteLength":12,
			"byteOffset":496820
		},
		{
			"buffer":0,
			"byteLength":16,
			"byteOffset":496832
		},
		{
			"buffer":0,
			"byteLength":12,
			"byteOffset":496848
		},
		{
			"buffer":0,
			"byteLength":480,
			"byteOffset":496860
		},
		{
			"buffer":0,
			"byteLength":1440,
			"byteOffset":497340
		},
		{
			"buffer":0,
			"byteLength":8,
			"byteOffset":498780
		},
		{
			"buffer":0,
			"byteLength":32,
			"byteOffset":498788
		},
		{
			"buffer":0,
			"byteLength":24,
			"byteOffset":498820
		},
		{
			"buffer":0,
			"byteLength":1440,
			"byteOffset":498844
		},
		{
			"buffer":0,
			"byteLength":32,
			"byteOffset":500284
		},
		{
			"buffer":0,
			"byteLength":1440,
			"byteOffset":500316
		},
		{
			"buffer":0,
			"byteLength":32,
			"byteOffset":501756
		},
		{
			"buffer":0,
			"byteLength":8,
			"byteOffset":501788
		},
		{
			"buffer":0,
			"byteLength":24,
			"byteOffset":501796
		},
		{
			"buffer":0,
			"byteLength":320,
			"byteOffset":501820
		},
		{
			"buffer":0,
			"byteLength":1280,
			"byteOffset":502140
		}
	],
	"samplers":[
		{
			"magFilter":9729,
			"minFilter":9987
		}
	],
	"buffers":[
		{
			"byteLength":503420,
			"uri":"feesh-5a2fb0d2028e5557e3cb9ac0a2df1806.bin"
		}
	]
}
