{
	"asset":{
		"generator":"Khronos glTF Blender I/O v3.6.27",
		"version":"2.0"
	},
	"scene":0,
	"scenes":[
		{
			"name":"Scene",
			"nodes":[
				0
			]
		}
	],
	"nodes":[
		{
			"mesh":0,
			"name":"Cylinder",
			"rotation":[
				0.9992086291313171,
				-0.039775438606739044,
				0,
				0
			],
			"scale":[
				-0.08328612148761749,
				-2.508943796157837,
				-0.07818660140037537
			],
			"translation":[
				0.1671839952468872,
				0.7874882817268372,
				-0.010944724082946777
			]
		}
	],
	"materials":[
		{
			"doubleSided":true,
			"name":"Material.002",
			"pbrMetallicRoughness":{
				"baseColorTexture":{
					"index":0
				},
				"metallicFactor":0,
				"roughnessFactor":0.5
			}
		}
	],
	"meshes":[
		{
			"name":"Cylinder",
			"primitives":[
				{
					"attributes":{
						"POSITION":0,
						"NORMAL":1,
						"TEXCOORD_0":2
					},
					"indices":3,
					"material":0
				}
			]
		}
	],
	"textures":[
		{
			"sampler":0,
			"source":0
		}
	],
	"images":[
		{
			"mimeType":"image/png",
			"name":"fishing rod",
			"uri":"../../Assets/Textures/fishing%20rod.png"
		}
	],
	"accessors":[
		{
			"bufferView":0,
			"componentType":5126,
			"count":903,
			"max":[
				1.9411673545837402,
				0.9531679749488831,
				2.3178062438964844
			],
			"min":[
				-1.5348873138427734,
				-0.7622095346450806,
				-0.7425497770309448
			],
			"type":"VEC3"
		},
		{
			"bufferView":1,
			"componentType":5126,
			"count":903,
			"type":"VEC3"
		},
		{
			"bufferView":2,
			"componentType":5126,
			"count":903,
			"type":"VEC2"
		},
		{
			"bufferView":3,
			"componentType":5123,
			"count":4260,
			"type":"SCALAR"
		}
	],
	"bufferViews":[
		{
			"buffer":0,
			"byteLength":10836,
			"byteOffset":0,
			"target":34962
		},
		{
			"buffer":0,
			"byteLength":10836,
			"byteOffset":10836,
			"target":34962
		},
		{
			"buffer":0,
			"byteLength":7224,
			"byteOffset":21672,
			"target":34962
		},
		{
			"buffer":0,
			"byteLength":8520,
			"byteOffset":28896,
			"target":34963
		}
	],
	"samplers":[
		{
			"magFilter":9729,
			"minFilter":9987
		}
	],
	"buffers":[
		{
			"byteLength":37416,
			"uri":"fishingrod-49207176d5e8acdf007662b0b1814d7e.bin"
		}
	]
}
