{
	"asset":{
		"generator":"Khronos glTF Blender I/O v3.6.27",
		"version":"2.0"
	},
	"scene":0,
	"scenes":[
		{
			"name":"Scene",
			"nodes":[
				0,
				1,
				2,
				3,
				4,
				5,
				6
			]
		}
	],
	"nodes":[
		{
			"mesh":0,
			"name":"Cylinder",
			"scale":[
				0.34295371174812317,
				0.4982839524745941,
				0.3288252353668213
			],
			"translation":[
				-0.0015146732330322266,
				0,
				0
			]
		},
		{
			"mesh":1,
			"name":"Sphere",
			"rotation":[
				0.17367900907993317,
				-0.12225688248872757,
				-0.02173459902405739,
				0.9769424200057983
			],
			"scale":[
				0.7302693128585815,
				0.043668292462825775,
				0.7302693128585815
			],
			"translation":[
				0,
				0.5399162769317627,
				0
			]
		},
		{
			"mesh":2,
			"name":"Sphere.001",
			"scale":[
				0.48096245527267456,
				0.48096245527267456,
				0.48096245527267456
			],
			"translation":[
				0.47507280111312866,
				0.7391788363456726,
				0.6144170761108398
			]
		},
		{
			"mesh":3,
			"name":"Sphere.002",
			"scale":[
				0.48096245527267456,
				0.48096245527267456,
				0.48096245527267456
			],
			"translation":[
				-0.45086854696273804,
				0.6690917015075684,
				-0.6464855074882507
			]
		},
		{
			"mesh":4,
			"name":"Sphere.003",
			"scale":[
				0.48096245527267456,
				0.48096245527267456,
				0.48096245527267456
			],
			"translation":[
				-0.7011145949363708,
				0.6690917015075684,
				0.4865603744983673
			]
		},
		{
			"mesh":5,
			"name":"Sphere.004",
			"scale":[
				0.48096245527267456,
				0.48096245527267456,
				0.48096245527267456
			],
			"translation":[
				0.7791541814804077,
				0.6690917015075684,
				-0.5239661931991577
			]
		},
		{
			"mesh":6,
			"name":"Sphere.005",
			"scale":[
				0.48096245527267456,
				0.48096245527267456,
				0.48096245527267456
			],
			"translation":[
				0.048888854682445526,
				0.9782880544662476,
				0.18881744146347046
			]
		}
	],
	"materials":[
		{
			"doubleSided":true,
			"name":"Material.003",
			"pbrMetallicRoughness":{
				"baseColorTexture":{
					"index":0
				},
				"metallicFactor":0,
				"roughnessFactor":0.5
			}
		},
		{
			"doubleSided":true,
			"name":"Material.002",
			"pbrMetallicRoughness":{
				"baseColorTexture":{
					"index":1
				},
				"metallicFactor":0,
				"roughnessFactor":0.5
			}
		}
	],
	"meshes":[
		{
			"name":"Cylinder",
			"primitives":[
				{
					"attributes":{
						"POSITION":0,
						"NORMAL":1,
						"TEXCOORD_0":2
					},
					"indices":3,
					"material":0
				}
			]
		},
		{
			"name":"Sphere.001",
			"primitives":[
				{
					"attributes":{
						"POSITION":4,
						"NORMAL":5,
						"TEXCOORD_0":6
					},
					"indices":7,
					"material":1
				}
			]
		},
		{
			"name":"Sphere.004",
			"primitives":[
				{
					"attributes":{
						"POSITION":8,
						"NORMAL":9,
						"TEXCOORD_0":10,
						"TANGENT":11
					},
					"indices":12
				}
			]
		},
		{
			"name":"Sphere.005",
			"primitives":[
				{
					"attributes":{
						"POSITION":13,
						"NORMAL":14,
						"TEXCOORD_0":15,
						"TANGENT":16
					},
					"indices":12
				}
			]
		},
		{
			"name":"Sphere.006",
			"primitives":[
				{
					"attributes":{
						"POSITION":17,
						"NORMAL":18,
						"TEXCOORD_0":19,
						"TANGENT":20
					},
					"indices":12
				}
			]
		},
		{
			"name":"Sphere.007",
			"primitives":[
				{
					"attributes":{
						"POSITION":21,
						"NORMAL":22,
						"TEXCOORD_0":23,
						"TANGENT":24
					},
					"indices":12
				}
			]
		},
		{
			"name":"Sphere.009",
			"primitives":[
				{
					"attributes":{
						"POSITION":25,
						"NORMAL":26,
						"TEXCOORD_0":27,
						"TANGENT":28
					},
					"indices":12
				}
			]
		}
	],
	"textures":[
		{
			"sampler":0,
			"source":0
		},
		{
			"sampler":0,
			"source":1
		}
	],
	"images":[
		{
			"mimeType":"image/png",
			"name":"stem",
			"uri":"../../Assets/Textures/stem.png"
		},
		{
			"mimeType":"image/png",
			"name":"flower",
			"uri":"../../Assets/Textures/flower.png"
		}
	],
	"accessors":[
		{
			"bufferView":0,
			"componentType":5126,
			"count":116,
			"max":[
				0.9999597072601318,
				1.164197564125061,
				0.9798300862312317
			],
			"min":[
				-0.999144434928894,
				-1.0022791624069214,
				-1.194701910018921
			],
			"type":"VEC3"
		},
		{
			"bufferView":1,
			"componentType":5126,
			"count":116,
			"type":"VEC3"
		},
		{
			"bufferView":2,
			"componentType":5126,
			"count":116,
			"type":"VEC2"
		},
		{
			"bufferView":3,
			"componentType":5123,
			"count":372,
			"type":"SCALAR"
		},
		{
			"bufferView":4,
			"componentType":5126,
			"count":1149,
			"max":[
				0.9999997019767761,
				0.9796366691589355,
				0.9999990463256836
			],
			"min":[
				-0.9999990463256836,
				-0.9999997019767761,
				-0.9999997019767761
			],
			"type":"VEC3"
		},
		{
			"bufferView":5,
			"componentType":5126,
			"count":1149,
			"type":"VEC3"
		},
		{
			"bufferView":6,
			"componentType":5126,
			"count":1149,
			"type":"VEC2"
		},
		{
			"bufferView":7,
			"componentType":5123,
			"count":3828,
			"type":"SCALAR"
		},
		{
			"bufferView":8,
			"componentType":5126,
			"count":559,
			"max":[
				0.9999997019767761,
				1,
				0.9999993443489075
			],
			"min":[
				-0.9999990463256836,
				-1,
				-1
			],
			"type":"VEC3"
		},
		{
			"bufferView":9,
			"componentType":5126,
			"count":559,
			"type":"VEC3"
		},
		{
			"bufferView":10,
			"componentType":5126,
			"count":559,
			"type":"VEC2"
		},
		{
			"bufferView":11,
			"componentType":5126,
			"count":559,
			"type":"VEC4"
		},
		{
			"bufferView":12,
			"componentType":5123,
			"count":2880,
			"type":"SCALAR"
		},
		{
			"bufferView":13,
			"componentType":5126,
			"count":559,
			"max":[
				0.9999997019767761,
				1,
				0.9999993443489075
			],
			"min":[
				-0.9999990463256836,
				-1,
				-1
			],
			"type":"VEC3"
		},
		{
			"bufferView":14,
			"componentType":5126,
			"count":559,
			"type":"VEC3"
		},
		{
			"bufferView":15,
			"componentType":5126,
			"count":559,
			"type":"VEC2"
		},
		{
			"bufferView":16,
			"componentType":5126,
			"count":559,
			"type":"VEC4"
		},
		{
			"bufferView":17,
			"componentType":5126,
			"count":559,
			"max":[
				0.9999997019767761,
				1,
				0.9999993443489075
			],
			"min":[
				-0.9999990463256836,
				-1,
				-1
			],
			"type":"VEC3"
		},
		{
			"bufferView":18,
			"componentType":5126,
			"count":559,
			"type":"VEC3"
		},
		{
			"bufferView":19,
			"componentType":5126,
			"count":559,
			"type":"VEC2"
		},
		{
			"bufferView":20,
			"componentType":5126,
			"count":559,
			"type":"VEC4"
		},
		{
			"bufferView":21,
			"componentType":5126,
			"count":559,
			"max":[
				0.9999997019767761,
				1,
				0.9999993443489075
			],
			"min":[
				-0.9999990463256836,
				-1,
				-1
			],
			"type":"VEC3"
		},
		{
			"bufferView":22,
			"componentType":5126,
			"count":559,
			"type":"VEC3"
		},
		{
			"bufferView":23,
			"componentType":5126,
			"count":559,
			"type":"VEC2"
		},
		{
			"bufferView":24,
			"componentType":5126,
			"count":559,
			"type":"VEC4"
		},
		{
			"bufferView":25,
			"componentType":5126,
			"count":559,
			"max":[
				0.9999997019767761,
				1,
				0.9999993443489075
			],
			"min":[
				-0.9999990463256836,
				-1,
				-1
			],
			"type":"VEC3"
		},
		{
			"bufferView":26,
			"componentType":5126,
			"count":559,
			"type":"VEC3"
		},
		{
			"bufferView":27,
			"componentType":5126,
			"count":559,
			"type":"VEC2"
		},
		{
			"bufferView":28,
			"componentType":5126,
			"count":559,
			"type":"VEC4"
		}
	],
	"bufferViews":[
		{
			"buffer":0,
			"byteLength":1392,
			"byteOffset":0,
			"target":34962
		},
		{
			"buffer":0,
			"byteLength":1392,
			"byteOffset":1392,
			"target":34962
		},
		{
			"buffer":0,
			"byteLength":928,
			"byteOffset":2784,
			"target":34962
		},
		{
			"buffer":0,
			"byteLength":744,
			"byteOffset":3712,
			"target":34963
		},
		{
			"buffer":0,
			"byteLength":13788,
			"byteOffset":4456,
			"target":34962
		},
		{
			"buffer":0,
			"byteLength":13788,
			"byteOffset":18244,
			"target":34962
		},
		{
			"buffer":0,
			"byteLength":9192,
			"byteOffset":32032,
			"target":34962
		},
		{
			"buffer":0,
			"byteLength":7656,
			"byteOffset":41224,
			"target":34963
		},
		{
			"buffer":0,
			"byteLength":6708,
			"byteOffset":48880,
			"target":34962
		},
		{
			"buffer":0,
			"byteLength":6708,
			"byteOffset":55588,
			"target":34962
		},
		{
			"buffer":0,
			"byteLength":4472,
			"byteOffset":62296,
			"target":34962
		},
		{
			"buffer":0,
			"byteLength":8944,
			"byteOffset":66768,
			"target":34962
		},
		{
			"buffer":0,
			"byteLength":5760,
			"byteOffset":75712,
			"target":34963
		},
		{
			"buffer":0,
			"byteLength":6708,
			"byteOffset":81472,
			"target":34962
		},
		{
			"buffer":0,
			"byteLength":6708,
			"byteOffset":88180,
			"target":34962
		},
		{
			"buffer":0,
			"byteLength":4472,
			"byteOffset":94888,
			"target":34962
		},
		{
			"buffer":0,
			"byteLength":8944,
			"byteOffset":99360,
			"target":34962
		},
		{
			"buffer":0,
			"byteLength":6708,
			"byteOffset":108304,
			"target":34962
		},
		{
			"buffer":0,
			"byteLength":6708,
			"byteOffset":115012,
			"target":34962
		},
		{
			"buffer":0,
			"byteLength":4472,
			"byteOffset":121720,
			"target":34962
		},
		{
			"buffer":0,
			"byteLength":8944,
			"byteOffset":126192,
			"target":34962
		},
		{
			"buffer":0,
			"byteLength":6708,
			"byteOffset":135136,
			"target":34962
		},
		{
			"buffer":0,
			"byteLength":6708,
			"byteOffset":141844,
			"target":34962
		},
		{
			"buffer":0,
			"byteLength":4472,
			"byteOffset":148552,
			"target":34962
		},
		{
			"buffer":0,
			"byteLength":8944,
			"byteOffset":153024,
			"target":34962
		},
		{
			"buffer":0,
			"byteLength":6708,
			"byteOffset":161968,
			"target":34962
		},
		{
			"buffer":0,
			"byteLength":6708,
			"byteOffset":168676,
			"target":34962
		},
		{
			"buffer":0,
			"byteLength":4472,
			"byteOffset":175384,
			"target":34962
		},
		{
			"buffer":0,
			"byteLength":8944,
			"byteOffset":179856,
			"target":34962
		}
	],
	"samplers":[
		{
			"magFilter":9729,
			"minFilter":9987
		}
	],
	"buffers":[
		{
			"byteLength":188800,
			"uri":"flower-5ec0934ebbc35a29c8cfbfed7959705d.bin"
		}
	]
}
