{
	"asset":{
		"generator":"Khronos glTF Blender I/O v3.6.27",
		"version":"2.0"
	},
	"scene":0,
	"scenes":[
		{
			"name":"Scene",
			"nodes":[
				0,
				1,
				2
			]
		}
	],
	"nodes":[
		{
			"mesh":0,
			"name":"Sphere",
			"scale":[
				1.864891767501831,
				1.864891767501831,
				1.864891767501831
			],
			"translation":[
				0,
				1.702217936515808,
				0
			]
		},
		{
			"mesh":1,
			"name":"Cube",
			"scale":[
				1.417700171470642,
				1.417700171470642,
				1.417700171470642
			],
			"translation":[
				0.008871704339981079,
				1.3171666860580444,
				0.009237870573997498
			]
		},
		{
			"mesh":2,
			"name":"Cube.001",
			"scale":[
				0.817219078540802,
				0.817219078540802,
				2.909820795059204
			],
			"translation":[
				-0.04502226412296295,
				1.2611818313598633,
				1.8244216442108154
			]
		}
	],
	"materials":[
		{
			"doubleSided":true,
			"name":"Material.001",
			"pbrMetallicRoughness":{
				"baseColorTexture":{
					"index":0
				},
				"metallicFactor":0,
				"roughnessFactor":0.5
			}
		}
	],
	"meshes":[
		{
			"name":"Sphere",
			"primitives":[
				{
					"attributes":{
						"POSITION":0,
						"NORMAL":1,
						"TEXCOORD_0":2
					},
					"indices":3,
					"material":0
				}
			]
		},
		{
			"name":"Cube.002",
			"primitives":[
				{
					"attributes":{
						"POSITION":4,
						"NORMAL":5,
						"TEXCOORD_0":6,
						"TANGENT":7
					},
					"indices":8
				}
			]
		},
		{
			"name":"Cube.003",
			"primitives":[
				{
					"attributes":{
						"POSITION":9,
						"NORMAL":10,
						"TEXCOORD_0":11,
						"TANGENT":12
					},
					"indices":8
				}
			]
		}
	],
	"textures":[
		{
			"sampler":0,
			"source":0
		}
	],
	"images":[
		{
			"mimeType":"image/png",
			"name":"hatshop",
			"uri":"../../Assets/Textures/hatshop.png"
		}
	],
	"accessors":[
		{
			"bufferView":0,
			"componentType":5126,
			"count":212,
			"max":[
				1.7271990776062012,
				1.1218335628509521,
				1.7204495668411255
			],
			"min":[
				-1.733246088027954,
				-1.3022568225860596,
				-1.7393488883972168
			],
			"type":"VEC3"
		},
		{
			"bufferView":1,
			"componentType":5126,
			"count":212,
			"type":"VEC3"
		},
		{
			"bufferView":2,
			"componentType":5126,
			"count":212,
			"type":"VEC2"
		},
		{
			"bufferView":3,
			"componentType":5123,
			"count":696,
			"type":"SCALAR"
		},
		{
			"bufferView":4,
			"componentType":5126,
			"count":14,
			"max":[
				1,
				1,
				1
			],
			"min":[
				-1,
				-1,
				-1
			],
			"type":"VEC3"
		},
		{
			"bufferView":5,
			"componentType":5126,
			"count":14,
			"type":"VEC3"
		},
		{
			"bufferView":6,
			"componentType":5126,
			"count":14,
			"type":"VEC2"
		},
		{
			"bufferView":7,
			"componentType":5126,
			"count":14,
			"type":"VEC4"
		},
		{
			"bufferView":8,
			"componentType":5123,
			"count":36,
			"type":"SCALAR"
		},
		{
			"bufferView":9,
			"componentType":5126,
			"count":14,
			"max":[
				1,
				1,
				1
			],
			"min":[
				-1,
				-1,
				-1
			],
			"type":"VEC3"
		},
		{
			"bufferView":10,
			"componentType":5126,
			"count":14,
			"type":"VEC3"
		},
		{
			"bufferView":11,
			"componentType":5126,
			"count":14,
			"type":"VEC2"
		},
		{
			"bufferView":12,
			"componentType":5126,
			"count":14,
			"type":"VEC4"
		}
	],
	"bufferViews":[
		{
			"buffer":0,
			"byteLength":2544,
			"byteOffset":0,
			"target":34962
		},
		{
			"buffer":0,
			"byteLength":2544,
			"byteOffset":2544,
			"target":34962
		},
		{
			"buffer":0,
			"byteLength":1696,
			"byteOffset":5088,
			"target":34962
		},
		{
			"buffer":0,
			"byteLength":1392,
			"byteOffset":6784,
			"target":34963
		},
		{
			"buffer":0,
			"byteLength":168,
			"byteOffset":8176,
			"target":34962
		},
		{
			"buffer":0,
			"byteLength":168,
			"byteOffset":8344,
			"target":34962
		},
		{
			"buffer":0,
			"byteLength":112,
			"byteOffset":8512,
			"target":34962
		},
		{
			"buffer":0,
			"byteLength":224,
			"byteOffset":8624,
			"target":34962
		},
		{
			"buffer":0,
			"byteLength":72,
			"byteOffset":8848,
			"target":34963
		},
		{
			"buffer":0,
			"byteLength":168,
			"byteOffset":8920,
			"target":34962
		},
		{
			"buffer":0,
			"byteLength":168,
			"byteOffset":9088,
			"target":34962
		},
		{
			"buffer":0,
			"byteLength":112,
			"byteOffset":9256,
			"target":34962
		},
		{
			"buffer":0,
			"byteLength":224,
			"byteOffset":9368,
			"target":34962
		}
	],
	"samplers":[
		{
			"magFilter":9729,
			"minFilter":9987
		}
	],
	"buffers":[
		{
			"byteLength":9592,
			"uri":"hatshop-04aa136e8207ce0cd7cb851340e7302b.bin"
		}
	]
}
