{
	"asset":{
		"generator":"Khronos glTF Blender I/O v3.6.27",
		"version":"2.0"
	},
	"scene":0,
	"scenes":[
		{
			"name":"Scene",
			"nodes":[
				0,
				1,
				2,
				3,
				4
			]
		}
	],
	"nodes":[
		{
			"mesh":0,
			"name":"Feesh",
			"scale":[
				0.32946717739105225,
				0.542453944683075,
				1.7453855276107788
			]
		},
		{
			"mesh":1,
			"name":"Eye",
			"scale":[
				0.15030640363693237,
				0.15030640363693237,
				0.15030640363693237
			],
			"translation":[
				0.7001255750656128,
				0.48305803537368774,
				0.6272047162055969
			]
		},
		{
			"mesh":2,
			"name":"Eyesmall",
			"scale":[
				0.06480155140161514,
				0.06480155140161514,
				0.06480155140161514
			],
			"translation":[
				0.8015189170837402,
				0.47256118059158325,
				0.6200438141822815
			]
		},
		{
			"mesh":3,
			"name":"Sphere",
			"scale":[
				0.19700734317302704,
				0.19700734317302704,
				0.19700734317302704
			],
			"translation":[
				0.7508143782615662,
				-0.37163427472114563,
				-1.346915364265442
			]
		},
		{
			"mesh":4,
			"name":"Cylinder",
			"rotation":[
				0.9992086291313171,
				-0.039775438606739044,
				0,
				0
			],
			"scale":[
				-0.08328612148761749,
				-2.508943796157837,
				-0.07818660140037537
			],
			"translation":[
				0.9818122982978821,
				0.7874882817268372,
				-1.4716534614562988
			]
		}
	],
	"animations":[
		{
			"channels":[
				{
					"sampler":0,
					"target":{
						"node":0,
						"path":"translation"
					}
				},
				{
					"sampler":1,
					"target":{
						"node":0,
						"path":"rotation"
					}
				},
				{
					"sampler":2,
					"target":{
						"node":0,
						"path":"scale"
					}
				}
			],
			"name":"FeeshAction",
			"samplers":[
				{
					"input":23,
					"interpolation":"LINEAR",
					"output":24
				},
				{
					"input":23,
					"interpolation":"LINEAR",
					"output":25
				},
				{
					"input":23,
					"interpolation":"LINEAR",
					"output":26
				}
			]
		}
	],
	"materials":[
		{
			"doubleSided":true,
			"name":"Material",
			"pbrMetallicRoughness":{
				"baseColorTexture":{
					"index":0
				},
				"metallicFactor":0,
				"roughnessFactor":0.4000000059604645
			}
		},
		{
			"doubleSided":true,
			"name":"Material.004",
			"pbrMetallicRoughness":{
				"baseColorTexture":{
					"index":1
				},
				"metallicFactor":0,
				"roughnessFactor":0.5
			}
		},
		{
			"doubleSided":true,
			"name":"Material.005",
			"pbrMetallicRoughness":{
				"baseColorTexture":{
					"index":2
				},
				"metallicFactor":0,
				"roughnessFactor":0.5
			}
		},
		{
			"doubleSided":true,
			"name":"Material.001",
			"pbrMetallicRoughness":{
				"baseColorTexture":{
					"index":3
				},
				"metallicFactor":0,
				"roughnessFactor":0.5
			}
		},
		{
			"doubleSided":true,
			"name":"Material.002",
			"pbrMetallicRoughness":{
				"baseColorTexture":{
					"index":4
				},
				"metallicFactor":0,
				"roughnessFactor":0.5
			}
		}
	],
	"meshes":[
		{
			"name":"Cube",
			"primitives":[
				{
					"attributes":{
						"POSITION":0,
						"NORMAL":1,
						"TEXCOORD_0":2,
						"TANGENT":3
					},
					"indices":4,
					"material":0
				}
			]
		},
		{
			"name":"Sphere",
			"primitives":[
				{
					"attributes":{
						"POSITION":5,
						"NORMAL":6,
						"TEXCOORD_0":7,
						"TANGENT":8
					},
					"indices":9,
					"material":1
				}
			]
		},
		{
			"name":"Sphere.001",
			"primitives":[
				{
					"attributes":{
						"POSITION":10,
						"NORMAL":11,
						"TEXCOORD_0":12,
						"TANGENT":13
					},
					"indices":9,
					"material":2
				}
			]
		},
		{
			"name":"Sphere.002",
			"primitives":[
				{
					"attributes":{
						"POSITION":14,
						"NORMAL":15,
						"TEXCOORD_0":16,
						"TANGENT":17
					},
					"indices":18,
					"material":3
				}
			]
		},
		{
			"name":"Cylinder",
			"primitives":[
				{
					"attributes":{
						"POSITION":19,
						"NORMAL":20,
						"TEXCOORD_0":21
					},
					"indices":22,
					"material":4
				}
			]
		}
	],
	"textures":[
		{
			"sampler":0,
			"source":0
		},
		{
			"sampler":0,
			"source":1
		},
		{
			"sampler":0,
			"source":2
		},
		{
			"sampler":0,
			"source":0
		},
		{
			"sampler":0,
			"source":3
		}
	],
	"images":[
		{
			"mimeType":"image/png",
			"name":"larry",
			"uri":"../../Assets/Textures/larry.png"
		},
		{
			"mimeType":"image/png",
			"name":"Eyeball-texture.png",
			"uri":"../../Assets/Textures/Eyeball-texture.png"
		},
		{
			"mimeType":"image/png",
			"name":"eyesmall.png",
			"uri":"../../Assets/Textures/eyesmall.png"
		},
		{
			"mimeType":"image/png",
			"name":"fishing rod",
			"uri":"../../Assets/Textures/fishing%20rod.png"
		}
	],
	"accessors":[
		{
			"bufferView":0,
			"componentType":5126,
			"count":229,
			"max":[
				2.741283893585205,
				2.263441801071167,
				1.2491631507873535
			],
			"min":[
				-3.5257725715637207,
				-2.2549374103546143,
				-1.2491631507873535
			],
			"type":"VEC3"
		},
		{
			"bufferView":1,
			"componentType":5126,
			"count":229,
			"type":"VEC3"
		},
		{
			"bufferView":2,
			"componentType":5126,
			"count":229,
			"type":"VEC2"
		},
		{
			"bufferView":3,
			"componentType":5126,
			"count":229,
			"type":"VEC4"
		},
		{
			"bufferView":4,
			"componentType":5123,
			"count":612,
			"type":"SCALAR"
		},
		{
			"bufferView":5,
			"componentType":5126,
			"count":1118,
			"max":[
				0.9999997019767761,
				1.000000238418579,
				0.9999994039535522
			],
			"min":[
				-0.9999990463256836,
				-1,
				-9.345681190490723
			],
			"type":"VEC3"
		},
		{
			"bufferView":6,
			"componentType":5126,
			"count":1118,
			"type":"VEC3"
		},
		{
			"bufferView":7,
			"componentType":5126,
			"count":1118,
			"type":"VEC2"
		},
		{
			"bufferView":8,
			"componentType":5126,
			"count":1118,
			"type":"VEC4"
		},
		{
			"bufferView":9,
			"componentType":5123,
			"count":5760,
			"type":"SCALAR"
		},
		{
			"bufferView":10,
			"componentType":5126,
			"count":1118,
			"max":[
				1.2979267835617065,
				1.2979294061660767,
				1.2979321479797363
			],
			"min":[
				-1.2979469299316406,
				-1.297944188117981,
				-20.434627532958984
			],
			"type":"VEC3"
		},
		{
			"bufferView":11,
			"componentType":5126,
			"count":1118,
			"type":"VEC3"
		},
		{
			"bufferView":12,
			"componentType":5126,
			"count":1118,
			"type":"VEC2"
		},
		{
			"bufferView":13,
			"componentType":5126,
			"count":1118,
			"type":"VEC4"
		},
		{
			"bufferView":14,
			"componentType":5126,
			"count":1118,
			"max":[
				0.9999997019767761,
				1,
				14.673759460449219
			],
			"min":[
				-0.9999995231628418,
				-1,
				-1
			],
			"type":"VEC3"
		},
		{
			"bufferView":15,
			"componentType":5126,
			"count":1118,
			"type":"VEC3"
		},
		{
			"bufferView":16,
			"componentType":5126,
			"count":1118,
			"type":"VEC2"
		},
		{
			"bufferView":17,
			"componentType":5126,
			"count":1118,
			"type":"VEC4"
		},
		{
			"bufferView":18,
			"componentType":5123,
			"count":5760,
			"type":"SCALAR"
		},
		{
			"bufferView":19,
			"componentType":5126,
			"count":903,
			"max":[
				1.9411673545837402,
				0.9531679749488831,
				2.3178062438964844
			],
			"min":[
				-1.5348873138427734,
				-0.7622095346450806,
				-0.7425497770309448
			],
			"type":"VEC3"
		},
		{
			"bufferView":20,
			"componentType":5126,
			"count":903,
			"type":"VEC3"
		},
		{
			"bufferView":21,
			"componentType":5126,
			"count":903,
			"type":"VEC2"
		},
		{
			"bufferView":22,
			"componentType":5123,
			"count":4260,
			"type":"SCALAR"
		},
		{
			"bufferView":23,
			"componentType":5126,
			"count":1,
			"max":[
				0.041666666666666664
			],
			"min":[
				0.041666666666666664
			],
			"type":"SCALAR"
		},
		{
			"bufferView":24,
			"componentType":5126,
			"count":1,
			"type":"VEC3"
		},
		{
			"bufferView":25,
			"componentType":5126,
			"count":1,
			"type":"VEC4"
		},
		{
			"bufferView":26,
			"componentType":5126,
			"count":1,
			"type":"VEC3"
		}
	],
	"bufferViews":[
		{
			"buffer":0,
			"byteLength":2748,
			"byteOffset":0,
			"target":34962
		},
		{
			"buffer":0,
			"byteLength":2748,
			"byteOffset":2748,
			"target":34962
		},
		{
			"buffer":0,
			"byteLength":1832,
			"byteOffset":5496,
			"target":34962
		},
		{
			"buffer":0,
			"byteLength":3664,
			"byteOffset":7328,
			"target":34962
		},
		{
			"buffer":0,
			"byteLength":1224,
			"byteOffset":10992,
			"target":34963
		},
		{
			"buffer":0,
			"byteLength":13416,
			"byteOffset":12216,
			"target":34962
		},
		{
			"buffer":0,
			"byteLength":13416,
			"byteOffset":25632,
			"target":34962
		},
		{
			"buffer":0,
			"byteLength":8944,
			"byteOffset":39048,
			"target":34962
		},
		{
			"buffer":0,
			"byteLength":17888,
			"byteOffset":47992,
			"target":34962
		},
		{
			"buffer":0,
			"byteLength":11520,
			"byteOffset":65880,
			"target":34963
		},
		{
			"buffer":0,
			"byteLength":13416,
			"byteOffset":77400,
			"target":34962
		},
		{
			"buffer":0,
			"byteLength":13416,
			"byteOffset":90816,
			"target":34962
		},
		{
			"buffer":0,
			"byteLength":8944,
			"byteOffset":104232,
			"target":34962
		},
		{
			"buffer":0,
			"byteLength":17888,
			"byteOffset":113176,
			"target":34962
		},
		{
			"buffer":0,
			"byteLength":13416,
			"byteOffset":131064,
			"target":34962
		},
		{
			"buffer":0,
			"byteLength":13416,
			"byteOffset":144480,
			"target":34962
		},
		{
			"buffer":0,
			"byteLength":8944,
			"byteOffset":157896,
			"target":34962
		},
		{
			"buffer":0,
			"byteLength":17888,
			"byteOffset":166840,
			"target":34962
		},
		{
			"buffer":0,
			"byteLength":11520,
			"byteOffset":184728,
			"target":34963
		},
		{
			"buffer":0,
			"byteLength":10836,
			"byteOffset":196248,
			"target":34962
		},
		{
			"buffer":0,
			"byteLength":10836,
			"byteOffset":207084,
			"target":34962
		},
		{
			"buffer":0,
			"byteLength":7224,
			"byteOffset":217920,
			"target":34962
		},
		{
			"buffer":0,
			"byteLength":8520,
			"byteOffset":225144,
			"target":34963
		},
		{
			"buffer":0,
			"byteLength":4,
			"byteOffset":233664
		},
		{
			"buffer":0,
			"byteLength":12,
			"byteOffset":233668
		},
		{
			"buffer":0,
			"byteLength":16,
			"byteOffset":233680
		},
		{
			"buffer":0,
			"byteLength":12,
			"byteOffset":233696
		}
	],
	"samplers":[
		{
			"magFilter":9729,
			"minFilter":9987
		}
	],
	"buffers":[
		{
			"byteLength":233708,
			"uri":"larry-1a5835b11308ab19d9cbd836f58547ea.bin"
		}
	]
}
