{
	"asset":{
		"generator":"Khronos glTF Blender I/O v3.6.27",
		"version":"2.0"
	},
	"scene":0,
	"scenes":[
		{
			"name":"Scene",
			"nodes":[
				0,
				1,
				2,
				3,
				4,
				5,
				6,
				7,
				8,
				9
			]
		}
	],
	"nodes":[
		{
			"name":"Cube",
			"scale":[
				0.4614785313606262,
				0.4614785313606262,
				0.4614785313606262
			]
		},
		{
			"mesh":0,
			"name":"Cylinder"
		},
		{
			"mesh":1,
			"name":"Cube.001",
			"scale":[
				1.8173571825027466,
				0.1629011332988739,
				0.9421535134315491
			],
			"translation":[
				2.0458335876464844,
				4.518022060394287,
				0.0724506676197052
			]
		},
		{
			"mesh":2,
			"name":"Cube.002",
			"rotation":[
				0,
				-1,
				0,
				1.6292068494294654e-07
			],
			"scale":[
				1.8173571825027466,
				0.1629011332988739,
				0.9421535134315491
			],
			"translation":[
				-2.089534282684326,
				4.5443925857543945,
				0.0724506676197052
			]
		},
		{
			"mesh":3,
			"name":"Cube.003",
			"rotation":[
				0,
				-0.7071065902709961,
				0,
				0.7071069478988647
			],
			"scale":[
				1.8173571825027466,
				0.1629011332988739,
				0.9421535134315491
			],
			"translation":[
				0.02424606680870056,
				4.5443925857543945,
				2.1531054973602295
			]
		},
		{
			"mesh":4,
			"name":"Cube.004",
			"rotation":[
				0,
				0.7071070671081543,
				0,
				0.7071064710617065
			],
			"scale":[
				1.8173571825027466,
				0.1629011332988739,
				0.9421535134315491
			],
			"translation":[
				0.02424606680870056,
				4.459864139556885,
				-2.122429609298706
			]
		},
		{
			"mesh":5,
			"name":"Cube.005",
			"rotation":[
				0,
				0.923879861831665,
				0,
				0.3826826810836792
			],
			"scale":[
				1.3630177974700928,
				0.12217584997415543,
				0.7066150903701782
			],
			"translation":[
				-1.0628046989440918,
				4.459864139556885,
				-1.086053729057312
			]
		},
		{
			"mesh":6,
			"name":"Cube.006",
			"rotation":[
				0,
				-0.38268253207206726,
				0,
				0.9238799214363098
			],
			"scale":[
				1.3630179166793823,
				0.12217584997415543,
				0.7066150903701782
			],
			"translation":[
				1.172994613647461,
				4.512401103973389,
				1.1794613599777222
			]
		},
		{
			"mesh":7,
			"name":"Cube.007",
			"rotation":[
				-0.0029380861669778824,
				-0.9204885959625244,
				-0.07188936322927475,
				0.3840888440608978
			],
			"scale":[
				1.3630179166793823,
				0.12217584997415543,
				0.7066150903701782
			],
			"translation":[
				-1.1143100261688232,
				4.400490760803223,
				1.1587499380111694
			]
		},
		{
			"mesh":8,
			"name":"Cube.008",
			"rotation":[
				-0.07188937067985535,
				0.38408899307250977,
				0.0029380936175584793,
				0.9204885363578796
			],
			"scale":[
				1.3630179166793823,
				0.12217584997415543,
				0.7066150903701782
			],
			"translation":[
				1.1930700540542603,
				4.400490760803223,
				-1.1238197088241577
			]
		}
	],
	"materials":[
		{
			"doubleSided":true,
			"name":"Material.003",
			"pbrMetallicRoughness":{
				"baseColorTexture":{
					"index":0
				},
				"metallicFactor":0,
				"roughnessFactor":0.5
			}
		},
		{
			"doubleSided":true,
			"name":"Material.001",
			"pbrMetallicRoughness":{
				"baseColorTexture":{
					"index":1
				},
				"metallicFactor":0,
				"roughnessFactor":0.5
			}
		},
		{
			"doubleSided":true,
			"name":"Material.002",
			"pbrMetallicRoughness":{
				"baseColorTexture":{
					"index":2
				},
				"metallicFactor":0,
				"roughnessFactor":0.5
			}
		}
	],
	"meshes":[
		{
			"name":"Cylinder",
			"primitives":[
				{
					"attributes":{
						"POSITION":0,
						"NORMAL":1,
						"TEXCOORD_0":2
					},
					"indices":3,
					"material":0
				}
			]
		},
		{
			"name":"Cube.001",
			"primitives":[
				{
					"attributes":{
						"POSITION":4,
						"NORMAL":5,
						"TEXCOORD_0":6,
						"TANGENT":7
					},
					"indices":8,
					"material":1
				}
			]
		},
		{
			"name":"Cube.002",
			"primitives":[
				{
					"attributes":{
						"POSITION":9,
						"NORMAL":10,
						"TEXCOORD_0":11,
						"TANGENT":12
					},
					"indices":13,
					"material":1
				}
			]
		},
		{
			"name":"Cube.003",
			"primitives":[
				{
					"attributes":{
						"POSITION":14,
						"NORMAL":15,
						"TEXCOORD_0":16,
						"TANGENT":17
					},
					"indices":13,
					"material":1
				}
			]
		},
		{
			"name":"Cube.004",
			"primitives":[
				{
					"attributes":{
						"POSITION":18,
						"NORMAL":19,
						"TEXCOORD_0":20,
						"TANGENT":21
					},
					"indices":13,
					"material":1
				}
			]
		},
		{
			"name":"Cube.005",
			"primitives":[
				{
					"attributes":{
						"POSITION":22,
						"NORMAL":23,
						"TEXCOORD_0":24,
						"TANGENT":25
					},
					"indices":13,
					"material":1
				}
			]
		},
		{
			"name":"Cube.006",
			"primitives":[
				{
					"attributes":{
						"POSITION":26,
						"NORMAL":27,
						"TEXCOORD_0":28,
						"TANGENT":29
					},
					"indices":13,
					"material":1
				}
			]
		},
		{
			"name":"Cube.007",
			"primitives":[
				{
					"attributes":{
						"POSITION":30,
						"NORMAL":31,
						"TEXCOORD_0":32,
						"TANGENT":33
					},
					"indices":13,
					"material":1
				}
			]
		},
		{
			"name":"Cube.008",
			"primitives":[
				{
					"attributes":{
						"POSITION":34,
						"NORMAL":35,
						"TEXCOORD_0":36,
						"TANGENT":37
					},
					"indices":13,
					"material":2
				}
			]
		}
	],
	"textures":[
		{
			"sampler":0,
			"source":0
		},
		{
			"sampler":0,
			"source":1
		},
		{
			"sampler":0,
			"source":1
		}
	],
	"images":[
		{
			"mimeType":"image/png",
			"name":"bark.001",
			"uri":"../../Assets/Models/bark.001.png"
		},
		{
			"mimeType":"image/png",
			"name":"leaves",
			"uri":"../../Assets/Models/leaves.png"
		}
	],
	"accessors":[
		{
			"bufferView":0,
			"componentType":5126,
			"count":232,
			"max":[
				1,
				4.871188163757324,
				1
			],
			"min":[
				-1,
				-1,
				-1
			],
			"type":"VEC3"
		},
		{
			"bufferView":1,
			"componentType":5126,
			"count":232,
			"type":"VEC3"
		},
		{
			"bufferView":2,
			"componentType":5126,
			"count":232,
			"type":"VEC2"
		},
		{
			"bufferView":3,
			"componentType":5123,
			"count":612,
			"type":"SCALAR"
		},
		{
			"bufferView":4,
			"componentType":5126,
			"count":138,
			"max":[
				1,
				4.895500183105469,
				0.7652633786201477
			],
			"min":[
				-1,
				1.6248972415924072,
				-0.8777279257774353
			],
			"type":"VEC3"
		},
		{
			"bufferView":5,
			"componentType":5126,
			"count":138,
			"type":"VEC3"
		},
		{
			"bufferView":6,
			"componentType":5126,
			"count":138,
			"type":"VEC2"
		},
		{
			"bufferView":7,
			"componentType":5126,
			"count":138,
			"type":"VEC4"
		},
		{
			"bufferView":8,
			"componentType":5123,
			"count":396,
			"type":"SCALAR"
		},
		{
			"bufferView":9,
			"componentType":5126,
			"count":116,
			"max":[
				1,
				4.895500183105469,
				0.7652633786201477
			],
			"min":[
				-1,
				1.6248972415924072,
				-0.8777279257774353
			],
			"type":"VEC3"
		},
		{
			"bufferView":10,
			"componentType":5126,
			"count":116,
			"type":"VEC3"
		},
		{
			"bufferView":11,
			"componentType":5126,
			"count":116,
			"type":"VEC2"
		},
		{
			"bufferView":12,
			"componentType":5126,
			"count":116,
			"type":"VEC4"
		},
		{
			"bufferView":13,
			"componentType":5123,
			"count":396,
			"type":"SCALAR"
		},
		{
			"bufferView":14,
			"componentType":5126,
			"count":116,
			"max":[
				1,
				4.895500183105469,
				0.7652633786201477
			],
			"min":[
				-1,
				1.6248972415924072,
				-0.8777279257774353
			],
			"type":"VEC3"
		},
		{
			"bufferView":15,
			"componentType":5126,
			"count":116,
			"type":"VEC3"
		},
		{
			"bufferView":16,
			"componentType":5126,
			"count":116,
			"type":"VEC2"
		},
		{
			"bufferView":17,
			"componentType":5126,
			"count":116,
			"type":"VEC4"
		},
		{
			"bufferView":18,
			"componentType":5126,
			"count":116,
			"max":[
				1,
				4.895500183105469,
				0.7652633786201477
			],
			"min":[
				-1,
				1.6248972415924072,
				-0.8777279257774353
			],
			"type":"VEC3"
		},
		{
			"bufferView":19,
			"componentType":5126,
			"count":116,
			"type":"VEC3"
		},
		{
			"bufferView":20,
			"componentType":5126,
			"count":116,
			"type":"VEC2"
		},
		{
			"bufferView":21,
			"componentType":5126,
			"count":116,
			"type":"VEC4"
		},
		{
			"bufferView":22,
			"componentType":5126,
			"count":116,
			"max":[
				1,
				4.895500183105469,
				0.7652633786201477
			],
			"min":[
				-1,
				1.6248972415924072,
				-0.8777279257774353
			],
			"type":"VEC3"
		},
		{
			"bufferView":23,
			"componentType":5126,
			"count":116,
			"type":"VEC3"
		},
		{
			"bufferView":24,
			"componentType":5126,
			"count":116,
			"type":"VEC2"
		},
		{
			"bufferView":25,
			"componentType":5126,
			"count":116,
			"type":"VEC4"
		},
		{
			"bufferView":26,
			"componentType":5126,
			"count":116,
			"max":[
				1,
				4.895500183105469,
				0.7652633786201477
			],
			"min":[
				-1,
				1.6248972415924072,
				-0.8777279257774353
			],
			"type":"VEC3"
		},
		{
			"bufferView":27,
			"componentType":5126,
			"count":116,
			"type":"VEC3"
		},
		{
			"bufferView":28,
			"componentType":5126,
			"count":116,
			"type":"VEC2"
		},
		{
			"bufferView":29,
			"componentType":5126,
			"count":116,
			"type":"VEC4"
		},
		{
			"bufferView":30,
			"componentType":5126,
			"count":116,
			"max":[
				1,
				4.895500183105469,
				0.7652633786201477
			],
			"min":[
				-1,
				1.6248972415924072,
				-0.8777279257774353
			],
			"type":"VEC3"
		},
		{
			"bufferView":31,
			"componentType":5126,
			"count":116,
			"type":"VEC3"
		},
		{
			"bufferView":32,
			"componentType":5126,
			"count":116,
			"type":"VEC2"
		},
		{
			"bufferView":33,
			"componentType":5126,
			"count":116,
			"type":"VEC4"
		},
		{
			"bufferView":34,
			"componentType":5126,
			"count":116,
			"max":[
				1,
				4.895500183105469,
				0.7652633786201477
			],
			"min":[
				-1,
				1.6248972415924072,
				-0.8777279257774353
			],
			"type":"VEC3"
		},
		{
			"bufferView":35,
			"componentType":5126,
			"count":116,
			"type":"VEC3"
		},
		{
			"bufferView":36,
			"componentType":5126,
			"count":116,
			"type":"VEC2"
		},
		{
			"bufferView":37,
			"componentType":5126,
			"count":116,
			"type":"VEC4"
		}
	],
	"bufferViews":[
		{
			"buffer":0,
			"byteLength":2784,
			"byteOffset":0,
			"target":34962
		},
		{
			"buffer":0,
			"byteLength":2784,
			"byteOffset":2784,
			"target":34962
		},
		{
			"buffer":0,
			"byteLength":1856,
			"byteOffset":5568,
			"target":34962
		},
		{
			"buffer":0,
			"byteLength":1224,
			"byteOffset":7424,
			"target":34963
		},
		{
			"buffer":0,
			"byteLength":1656,
			"byteOffset":8648,
			"target":34962
		},
		{
			"buffer":0,
			"byteLength":1656,
			"byteOffset":10304,
			"target":34962
		},
		{
			"buffer":0,
			"byteLength":1104,
			"byteOffset":11960,
			"target":34962
		},
		{
			"buffer":0,
			"byteLength":2208,
			"byteOffset":13064,
			"target":34962
		},
		{
			"buffer":0,
			"byteLength":792,
			"byteOffset":15272,
			"target":34963
		},
		{
			"buffer":0,
			"byteLength":1392,
			"byteOffset":16064,
			"target":34962
		},
		{
			"buffer":0,
			"byteLength":1392,
			"byteOffset":17456,
			"target":34962
		},
		{
			"buffer":0,
			"byteLength":928,
			"byteOffset":18848,
			"target":34962
		},
		{
			"buffer":0,
			"byteLength":1856,
			"byteOffset":19776,
			"target":34962
		},
		{
			"buffer":0,
			"byteLength":792,
			"byteOffset":21632,
			"target":34963
		},
		{
			"buffer":0,
			"byteLength":1392,
			"byteOffset":22424,
			"target":34962
		},
		{
			"buffer":0,
			"byteLength":1392,
			"byteOffset":23816,
			"target":34962
		},
		{
			"buffer":0,
			"byteLength":928,
			"byteOffset":25208,
			"target":34962
		},
		{
			"buffer":0,
			"byteLength":1856,
			"byteOffset":26136,
			"target":34962
		},
		{
			"buffer":0,
			"byteLength":1392,
			"byteOffset":27992,
			"target":34962
		},
		{
			"buffer":0,
			"byteLength":1392,
			"byteOffset":29384,
			"target":34962
		},
		{
			"buffer":0,
			"byteLength":928,
			"byteOffset":30776,
			"target":34962
		},
		{
			"buffer":0,
			"byteLength":1856,
			"byteOffset":31704,
			"target":34962
		},
		{
			"buffer":0,
			"byteLength":1392,
			"byteOffset":33560,
			"target":34962
		},
		{
			"buffer":0,
			"byteLength":1392,
			"byteOffset":34952,
			"target":34962
		},
		{
			"buffer":0,
			"byteLength":928,
			"byteOffset":36344,
			"target":34962
		},
		{
			"buffer":0,
			"byteLength":1856,
			"byteOffset":37272,
			"target":34962
		},
		{
			"buffer":0,
			"byteLength":1392,
			"byteOffset":39128,
			"target":34962
		},
		{
			"buffer":0,
			"byteLength":1392,
			"byteOffset":40520,
			"target":34962
		},
		{
			"buffer":0,
			"byteLength":928,
			"byteOffset":41912,
			"target":34962
		},
		{
			"buffer":0,
			"byteLength":1856,
			"byteOffset":42840,
			"target":34962
		},
		{
			"buffer":0,
			"byteLength":1392,
			"byteOffset":44696,
			"target":34962
		},
		{
			"buffer":0,
			"byteLength":1392,
			"byteOffset":46088,
			"target":34962
		},
		{
			"buffer":0,
			"byteLength":928,
			"byteOffset":47480,
			"target":34962
		},
		{
			"buffer":0,
			"byteLength":1856,
			"byteOffset":48408,
			"target":34962
		},
		{
			"buffer":0,
			"byteLength":1392,
			"byteOffset":50264,
			"target":34962
		},
		{
			"buffer":0,
			"byteLength":1392,
			"byteOffset":51656,
			"target":34962
		},
		{
			"buffer":0,
			"byteLength":928,
			"byteOffset":53048,
			"target":34962
		},
		{
			"buffer":0,
			"byteLength":1856,
			"byteOffset":53976,
			"target":34962
		}
	],
	"samplers":[
		{
			"magFilter":9729,
			"minFilter":9987
		}
	],
	"buffers":[
		{
			"byteLength":55832,
			"uri":"palm-cdce1d1422bc08a53f3684277e71afb3.bin"
		}
	]
}
