{
	"asset":{
		"generator":"Khronos glTF Blender I/O v3.6.27",
		"version":"2.0"
	},
	"scene":0,
	"scenes":[
		{
			"name":"Scene",
			"nodes":[
				0,
				1
			]
		}
	],
	"nodes":[
		{
			"mesh":0,
			"name":"Cylinder",
			"scale":[
				0.7984358668327332,
				0.39721742272377014,
				0.7984358668327332
			]
		},
		{
			"mesh":1,
			"name":"Cylinder.002",
			"scale":[
				0.0986337810754776,
				0.4822728633880615,
				0.0986337810754776
			],
			"translation":[
				1.4663225412368774,
				1.2690683603286743,
				0
			]
		}
	],
	"materials":[
		{
			"doubleSided":true,
			"name":"Material.002",
			"pbrMetallicRoughness":{
				"baseColorTexture":{
					"index":0
				},
				"metallicFactor":0,
				"roughnessFactor":0.5
			}
		},
		{
			"doubleSided":true,
			"name":"Material.001",
			"pbrMetallicRoughness":{
				"baseColorTexture":{
					"index":1
				},
				"metallicFactor":0,
				"roughnessFactor":0.5
			}
		}
	],
	"meshes":[
		{
			"name":"Cylinder",
			"primitives":[
				{
					"attributes":{
						"POSITION":0,
						"NORMAL":1,
						"TEXCOORD_0":2
					},
					"indices":3,
					"material":0
				}
			]
		},
		{
			"name":"Cylinder.002",
			"primitives":[
				{
					"attributes":{
						"POSITION":4,
						"NORMAL":5,
						"TEXCOORD_0":6
					},
					"indices":7,
					"material":1
				}
			]
		}
	],
	"textures":[
		{
			"sampler":0,
			"source":0
		},
		{
			"sampler":0,
			"source":1
		}
	],
	"images":[
		{
			"mimeType":"image/png",
			"name":"reelbottom",
			"uri":"../../Assets/Textures/reelbottom.png"
		},
		{
			"mimeType":"image/png",
			"name":"cranks",
			"uri":"../../Assets/Textures/cranks.png"
		}
	],
	"accessors":[
		{
			"bufferView":0,
			"componentType":5126,
			"count":136,
			"max":[
				1,
				1,
				1
			],
			"min":[
				-1,
				-1,
				-1
			],
			"type":"VEC3"
		},
		{
			"bufferView":1,
			"componentType":5126,
			"count":136,
			"type":"VEC3"
		},
		{
			"bufferView":2,
			"componentType":5126,
			"count":136,
			"type":"VEC2"
		},
		{
			"bufferView":3,
			"componentType":5123,
			"count":372,
			"type":"SCALAR"
		},
		{
			"bufferView":4,
			"componentType":5126,
			"count":359,
			"max":[
				1.4464540481567383,
				1,
				2.9499123096466064
			],
			"min":[
				-17.81624412536621,
				-1.771140456199646,
				-2.9499123096466064
			],
			"type":"VEC3"
		},
		{
			"bufferView":5,
			"componentType":5126,
			"count":359,
			"type":"VEC3"
		},
		{
			"bufferView":6,
			"componentType":5126,
			"count":359,
			"type":"VEC2"
		},
		{
			"bufferView":7,
			"componentType":5123,
			"count":1320,
			"type":"SCALAR"
		}
	],
	"bufferViews":[
		{
			"buffer":0,
			"byteLength":1632,
			"byteOffset":0,
			"target":34962
		},
		{
			"buffer":0,
			"byteLength":1632,
			"byteOffset":1632,
			"target":34962
		},
		{
			"buffer":0,
			"byteLength":1088,
			"byteOffset":3264,
			"target":34962
		},
		{
			"buffer":0,
			"byteLength":744,
			"byteOffset":4352,
			"target":34963
		},
		{
			"buffer":0,
			"byteLength":4308,
			"byteOffset":5096,
			"target":34962
		},
		{
			"buffer":0,
			"byteLength":4308,
			"byteOffset":9404,
			"target":34962
		},
		{
			"buffer":0,
			"byteLength":2872,
			"byteOffset":13712,
			"target":34962
		},
		{
			"buffer":0,
			"byteLength":2640,
			"byteOffset":16584,
			"target":34963
		}
	],
	"samplers":[
		{
			"magFilter":9729,
			"minFilter":9987
		}
	],
	"buffers":[
		{
			"byteLength":19224,
			"uri":"reel-136bca68bba73398931c766f1464de21.bin"
		}
	]
}
