{
	"asset":{
		"generator":"Khronos glTF Blender I/O v3.6.27",
		"version":"2.0"
	},
	"scene":0,
	"scenes":[
		{
			"name":"Scene",
			"nodes":[
				0,
				1,
				2,
				3,
				4,
				5,
				6,
				7,
				8,
				9,
				10,
				11,
				12,
				13,
				14,
				15
			]
		}
	],
	"nodes":[
		{
			"mesh":0,
			"name":"Cube.002",
			"scale":[
				4.04615592956543,
				7.5334858894348145,
				1
			],
			"translation":[
				0,
				6.6945672035217285,
				16.383007049560547
			]
		},
		{
			"mesh":1,
			"name":"Cube.001",
			"scale":[
				5.394190311431885,
				3.360954999923706,
				5.394190311431885
			],
			"translation":[
				-11.919839859008789,
				2.712057113647461,
				-11.767145156860352
			]
		},
		{
			"mesh":2,
			"name":"Cube.003",
			"scale":[
				17.287607192993164,
				0.23901978135108948,
				17.287607192993164
			]
		},
		{
			"mesh":3,
			"name":"Cube.004",
			"rotation":[
				0,
				0,
				-1,
				0
			],
			"scale":[
				-17.5227108001709,
				-16.47869300842285,
				-0.2202107012271881
			],
			"translation":[
				0,
				6.6945672035217285,
				16.383007049560547
			]
		},
		{
			"mesh":4,
			"name":"Cube.006",
			"rotation":[
				-0.7071067094802856,
				0,
				-0.7071068286895752,
				3.0908616110991716e-08
			],
			"scale":[
				-17.5227108001709,
				-16.47869300842285,
				-0.2202107012271881
			],
			"translation":[
				17.078950881958008,
				6.6945672035217285,
				-1.0980310440063477
			]
		},
		{
			"mesh":5,
			"name":"Cube.005",
			"rotation":[
				0,
				0,
				-1,
				0
			],
			"scale":[
				-17.5227108001709,
				-16.47869300842285,
				-0.2202107012271881
			],
			"translation":[
				0,
				6.6945672035217285,
				-17.014118194580078
			]
		},
		{
			"mesh":6,
			"name":"Cube.007",
			"rotation":[
				-0.7071067094802856,
				0,
				-0.7071068286895752,
				3.0908616110991716e-08
			],
			"scale":[
				-17.5227108001709,
				-16.47869300842285,
				-0.2202107012271881
			],
			"translation":[
				-17.188432693481445,
				6.6945672035217285,
				-1.0980310440063477
			]
		},
		{
			"mesh":7,
			"name":"Cube.008",
			"scale":[
				17.287607192993164,
				0.23901978135108948,
				17.287607192993164
			],
			"translation":[
				0,
				23.621013641357422,
				0
			]
		},
		{
			"mesh":8,
			"name":"Cube",
			"rotation":[
				0.7071068286895752,
				0,
				-0.7071068286895752,
				0
			],
			"scale":[
				-0.363552063703537,
				-5.146060466766357,
				-2.5307304859161377
			],
			"translation":[
				14.830010414123535,
				0,
				-4.999755859375
			]
		},
		{
			"mesh":9,
			"name":"Cube.009",
			"rotation":[
				0.7071068286895752,
				0,
				-0.7071068286895752,
				0
			],
			"scale":[
				-0.363552063703537,
				-5.146060466766357,
				-2.5307304859161377
			],
			"translation":[
				14.830010414123535,
				0,
				5.2393999099731445
			]
		},
		{
			"mesh":10,
			"name":"Cube.010",
			"rotation":[
				0.5000001192092896,
				0.5000001192092896,
				0.49999988079071045,
				0.4999999403953552
			],
			"scale":[
				-0.363552063703537,
				-6.541667938232422,
				-3.3279922008514404
			],
			"translation":[
				14.830010414123535,
				5.546835422515869,
				0.10134410858154297
			]
		},
		{
			"mesh":11,
			"name":"Cube.011",
			"scale":[
				3.3318843841552734,
				5.054206848144531,
				3.3318843841552734
			],
			"translation":[
				17.209623336791992,
				14.10653018951416,
				-0.12985959649085999
			]
		},
		{
			"mesh":12,
			"name":"Cube.012",
			"scale":[
				1.073371410369873,
				5.536606788635254,
				3.6498970985412598
			],
			"translation":[
				17.209623336791992,
				14.10653018951416,
				-0.12985959649085999
			]
		},
		{
			"mesh":13,
			"name":"Cylinder",
			"scale":[
				0.190629243850708,
				7.2654571533203125,
				0.19300200045108795
			],
			"translation":[
				-13.014961242675781,
				7.497640132904053,
				11.035612106323242
			]
		},
		{
			"mesh":14,
			"name":"Cylinder.002",
			"scale":[
				1.4198932647705078,
				1.4198932647705078,
				1.4198932647705078
			],
			"translation":[
				-13.006982803344727,
				13.665312767028809,
				11.011581420898438
			]
		},
		{
			"mesh":15,
			"name":"Cylinder.003",
			"scale":[
				1.293562889099121,
				1.293562889099121,
				1.293562889099121
			],
			"translation":[
				-13.006982803344727,
				13.39976978302002,
				11.011581420898438
			]
		}
	],
	"materials":[
		{
			"doubleSided":true,
			"name":"Material.005",
			"pbrMetallicRoughness":{
				"baseColorTexture":{
					"index":0
				},
				"metallicFactor":0,
				"roughnessFactor":0.5
			}
		},
		{
			"doubleSided":true,
			"name":"Material.003",
			"pbrMetallicRoughness":{
				"baseColorTexture":{
					"index":1
				},
				"metallicFactor":0,
				"roughnessFactor":0.5
			}
		},
		{
			"doubleSided":true,
			"name":"Material.001",
			"pbrMetallicRoughness":{
				"baseColorTexture":{
					"index":2
				},
				"metallicFactor":0,
				"roughnessFactor":0.5
			}
		},
		{
			"doubleSided":true,
			"name":"Material.002",
			"pbrMetallicRoughness":{
				"baseColorTexture":{
					"index":3
				},
				"metallicFactor":0,
				"roughnessFactor":0.5
			}
		},
		{
			"doubleSided":true,
			"name":"Material.002",
			"pbrMetallicRoughness":{
				"baseColorTexture":{
					"index":4
				},
				"metallicFactor":0,
				"roughnessFactor":0.5
			}
		},
		{
			"doubleSided":true,
			"name":"Material",
			"pbrMetallicRoughness":{
				"baseColorFactor":[
					0.800000011920929,
					0.800000011920929,
					0.800000011920929,
					1
				],
				"metallicFactor":0,
				"roughnessFactor":0.5
			}
		},
		{
			"doubleSided":true,
			"name":"Material.006",
			"pbrMetallicRoughness":{
				"baseColorTexture":{
					"index":5
				},
				"metallicFactor":0,
				"roughnessFactor":0.5
			}
		},
		{
			"doubleSided":true,
			"name":"Material.004",
			"pbrMetallicRoughness":{
				"baseColorTexture":{
					"index":6
				},
				"metallicFactor":0,
				"roughnessFactor":0.5
			}
		}
	],
	"meshes":[
		{
			"name":"Cube.002",
			"primitives":[
				{
					"attributes":{
						"POSITION":0,
						"NORMAL":1,
						"TEXCOORD_0":2,
						"TANGENT":3
					},
					"indices":4,
					"material":0
				}
			]
		},
		{
			"name":"Cube.001",
			"primitives":[
				{
					"attributes":{
						"POSITION":5,
						"NORMAL":6,
						"TEXCOORD_0":7,
						"TANGENT":8
					},
					"indices":4,
					"material":1
				}
			]
		},
		{
			"name":"Cube.003",
			"primitives":[
				{
					"attributes":{
						"POSITION":9,
						"NORMAL":10,
						"TEXCOORD_0":11,
						"TANGENT":12
					},
					"indices":13,
					"material":2
				}
			]
		},
		{
			"name":"Cube.004",
			"primitives":[
				{
					"attributes":{
						"POSITION":14,
						"NORMAL":15,
						"TEXCOORD_0":16,
						"TANGENT":17
					},
					"indices":4,
					"material":3
				}
			]
		},
		{
			"name":"Cube.006",
			"primitives":[
				{
					"attributes":{
						"POSITION":18,
						"NORMAL":19,
						"TEXCOORD_0":20
					},
					"indices":21,
					"material":4
				}
			]
		},
		{
			"name":"Cube.005",
			"primitives":[
				{
					"attributes":{
						"POSITION":22,
						"NORMAL":23,
						"TEXCOORD_0":24,
						"TANGENT":25
					},
					"indices":4,
					"material":3
				}
			]
		},
		{
			"name":"Cube.007",
			"primitives":[
				{
					"attributes":{
						"POSITION":26,
						"NORMAL":27,
						"TEXCOORD_0":28,
						"TANGENT":29
					},
					"indices":4,
					"material":3
				}
			]
		},
		{
			"name":"Cube.008",
			"primitives":[
				{
					"attributes":{
						"POSITION":30,
						"NORMAL":31,
						"TEXCOORD_0":32,
						"TANGENT":33
					},
					"indices":13,
					"material":3
				}
			]
		},
		{
			"name":"Cube.009",
			"primitives":[
				{
					"attributes":{
						"POSITION":34,
						"NORMAL":35,
						"TEXCOORD_0":36,
						"TANGENT":37
					},
					"indices":4,
					"material":5
				}
			]
		},
		{
			"name":"Cube.010",
			"primitives":[
				{
					"attributes":{
						"POSITION":38,
						"NORMAL":39,
						"TEXCOORD_0":40,
						"TANGENT":41
					},
					"indices":4,
					"material":5
				}
			]
		},
		{
			"name":"Cube.011",
			"primitives":[
				{
					"attributes":{
						"POSITION":42,
						"NORMAL":43,
						"TEXCOORD_0":44,
						"TANGENT":45
					},
					"indices":4,
					"material":6
				}
			]
		},
		{
			"name":"Cube.012",
			"primitives":[
				{
					"attributes":{
						"POSITION":46,
						"NORMAL":47,
						"TEXCOORD_0":48,
						"TANGENT":49
					},
					"indices":4
				}
			]
		},
		{
			"name":"Cube.013",
			"primitives":[
				{
					"attributes":{
						"POSITION":50,
						"NORMAL":51,
						"TEXCOORD_0":52
					},
					"indices":53
				}
			]
		},
		{
			"name":"Cylinder",
			"primitives":[
				{
					"attributes":{
						"POSITION":54,
						"NORMAL":55,
						"TEXCOORD_0":56
					},
					"indices":57,
					"material":5
				}
			]
		},
		{
			"name":"Cylinder.002",
			"primitives":[
				{
					"attributes":{
						"POSITION":58,
						"NORMAL":59,
						"TEXCOORD_0":60
					},
					"indices":61,
					"material":7
				}
			]
		},
		{
			"name":"Cylinder.003",
			"primitives":[
				{
					"attributes":{
						"POSITION":62,
						"NORMAL":63,
						"TEXCOORD_0":64
					},
					"indices":65
				}
			]
		}
	],
	"textures":[
		{
			"sampler":0,
			"source":0
		},
		{
			"sampler":0,
			"source":1
		},
		{
			"sampler":0,
			"source":2
		},
		{
			"sampler":0,
			"source":3
		},
		{
			"sampler":0,
			"source":3
		},
		{
			"sampler":0,
			"source":4
		},
		{
			"sampler":0,
			"source":5
		}
	],
	"images":[
		{
			"mimeType":"image/png",
			"name":"lamppost",
			"uri":"../../Assets/Textures/lamppost.png"
		},
		{
			"mimeType":"image/png",
			"name":"tankbox",
			"uri":"../../Assets/Textures/tankbox.png"
		},
		{
			"mimeType":"image/png",
			"name":"floor",
			"uri":"../../Assets/Textures/floor.png"
		},
		{
			"mimeType":"image/png",
			"name":"door",
			"uri":"../../Assets/Textures/door.png"
		},
		{
			"mimeType":"image/png",
			"name":"frame",
			"uri":"../../Assets/Textures/frame.png"
		},
		{
			"mimeType":"image/png",
			"name":"wall",
			"uri":"../../Assets/Textures/wall.png"
		}
	],
	"accessors":[
		{
			"bufferView":0,
			"componentType":5126,
			"count":24,
			"max":[
				1,
				1,
				1
			],
			"min":[
				-1,
				-1,
				-1
			],
			"type":"VEC3"
		},
		{
			"bufferView":1,
			"componentType":5126,
			"count":24,
			"type":"VEC3"
		},
		{
			"bufferView":2,
			"componentType":5126,
			"count":24,
			"type":"VEC2"
		},
		{
			"bufferView":3,
			"componentType":5126,
			"count":24,
			"type":"VEC4"
		},
		{
			"bufferView":4,
			"componentType":5123,
			"count":36,
			"type":"SCALAR"
		},
		{
			"bufferView":5,
			"componentType":5126,
			"count":24,
			"max":[
				1,
				1,
				1
			],
			"min":[
				-1,
				-1,
				-1
			],
			"type":"VEC3"
		},
		{
			"bufferView":6,
			"componentType":5126,
			"count":24,
			"type":"VEC3"
		},
		{
			"bufferView":7,
			"componentType":5126,
			"count":24,
			"type":"VEC2"
		},
		{
			"bufferView":8,
			"componentType":5126,
			"count":24,
			"type":"VEC4"
		},
		{
			"bufferView":9,
			"componentType":5126,
			"count":24,
			"max":[
				1,
				1,
				1
			],
			"min":[
				-1,
				-1,
				-1
			],
			"type":"VEC3"
		},
		{
			"bufferView":10,
			"componentType":5126,
			"count":24,
			"type":"VEC3"
		},
		{
			"bufferView":11,
			"componentType":5126,
			"count":24,
			"type":"VEC2"
		},
		{
			"bufferView":12,
			"componentType":5126,
			"count":24,
			"type":"VEC4"
		},
		{
			"bufferView":13,
			"componentType":5123,
			"count":36,
			"type":"SCALAR"
		},
		{
			"bufferView":14,
			"componentType":5126,
			"count":24,
			"max":[
				1,
				1,
				1
			],
			"min":[
				-1,
				-1,
				-1
			],
			"type":"VEC3"
		},
		{
			"bufferView":15,
			"componentType":5126,
			"count":24,
			"type":"VEC3"
		},
		{
			"bufferView":16,
			"componentType":5126,
			"count":24,
			"type":"VEC2"
		},
		{
			"bufferView":17,
			"componentType":5126,
			"count":24,
			"type":"VEC4"
		},
		{
			"bufferView":18,
			"componentType":5126,
			"count":48,
			"max":[
				1.0000001192092896,
				1,
				1.0000001192092896
			],
			"min":[
				-1.0000001192092896,
				-1,
				-1.0000001192092896
			],
			"type":"VEC3"
		},
		{
			"bufferView":19,
			"componentType":5126,
			"count":48,
			"type":"VEC3"
		},
		{
			"bufferView":20,
			"componentType":5126,
			"count":48,
			"type":"VEC2"
		},
		{
			"bufferView":21,
			"componentType":5123,
			"count":96,
			"type":"SCALAR"
		},
		{
			"bufferView":22,
			"componentType":5126,
			"count":24,
			"max":[
				1,
				1,
				1
			],
			"min":[
				-1,
				-1,
				-1
			],
			"type":"VEC3"
		},
		{
			"bufferView":23,
			"componentType":5126,
			"count":24,
			"type":"VEC3"
		},
		{
			"bufferView":24,
			"componentType":5126,
			"count":24,
			"type":"VEC2"
		},
		{
			"bufferView":25,
			"componentType":5126,
			"count":24,
			"type":"VEC4"
		},
		{
			"bufferView":26,
			"componentType":5126,
			"count":24,
			"max":[
				1,
				1,
				1
			],
			"min":[
				-1,
				-1,
				-1
			],
			"type":"VEC3"
		},
		{
			"bufferView":27,
			"componentType":5126,
			"count":24,
			"type":"VEC3"
		},
		{
			"bufferView":28,
			"componentType":5126,
			"count":24,
			"type":"VEC2"
		},
		{
			"bufferView":29,
			"componentType":5126,
			"count":24,
			"type":"VEC4"
		},
		{
			"bufferView":30,
			"componentType":5126,
			"count":24,
			"max":[
				1,
				1,
				1
			],
			"min":[
				-1,
				-1,
				-1
			],
			"type":"VEC3"
		},
		{
			"bufferView":31,
			"componentType":5126,
			"count":24,
			"type":"VEC3"
		},
		{
			"bufferView":32,
			"componentType":5126,
			"count":24,
			"type":"VEC2"
		},
		{
			"bufferView":33,
			"componentType":5126,
			"count":24,
			"type":"VEC4"
		},
		{
			"bufferView":34,
			"componentType":5126,
			"count":24,
			"max":[
				1,
				1,
				1
			],
			"min":[
				-1,
				-1,
				-1
			],
			"type":"VEC3"
		},
		{
			"bufferView":35,
			"componentType":5126,
			"count":24,
			"type":"VEC3"
		},
		{
			"bufferView":36,
			"componentType":5126,
			"count":24,
			"type":"VEC2"
		},
		{
			"bufferView":37,
			"componentType":5126,
			"count":24,
			"type":"VEC4"
		},
		{
			"bufferView":38,
			"componentType":5126,
			"count":24,
			"max":[
				1,
				1,
				1
			],
			"min":[
				-1,
				-1,
				-1
			],
			"type":"VEC3"
		},
		{
			"bufferView":39,
			"componentType":5126,
			"count":24,
			"type":"VEC3"
		},
		{
			"bufferView":40,
			"componentType":5126,
			"count":24,
			"type":"VEC2"
		},
		{
			"bufferView":41,
			"componentType":5126,
			"count":24,
			"type":"VEC4"
		},
		{
			"bufferView":42,
			"componentType":5126,
			"count":24,
			"max":[
				1,
				1,
				1
			],
			"min":[
				-1,
				-1,
				-1
			],
			"type":"VEC3"
		},
		{
			"bufferView":43,
			"componentType":5126,
			"count":24,
			"type":"VEC3"
		},
		{
			"bufferView":44,
			"componentType":5126,
			"count":24,
			"type":"VEC2"
		},
		{
			"bufferView":45,
			"componentType":5126,
			"count":24,
			"type":"VEC4"
		},
		{
			"bufferView":46,
			"componentType":5126,
			"count":24,
			"max":[
				1,
				1,
				1
			],
			"min":[
				-1,
				-1,
				-1
			],
			"type":"VEC3"
		},
		{
			"bufferView":47,
			"componentType":5126,
			"count":24,
			"type":"VEC3"
		},
		{
			"bufferView":48,
			"componentType":5126,
			"count":24,
			"type":"VEC2"
		},
		{
			"bufferView":49,
			"componentType":5126,
			"count":24,
			"type":"VEC4"
		},
		{
			"bufferView":50,
			"componentType":5126,
			"count":48,
			"max":[
				1,
				1,
				1
			],
			"min":[
				-1,
				-1,
				-1
			],
			"type":"VEC3"
		},
		{
			"bufferView":51,
			"componentType":5126,
			"count":48,
			"type":"VEC3"
		},
		{
			"bufferView":52,
			"componentType":5126,
			"count":48,
			"type":"VEC2"
		},
		{
			"bufferView":53,
			"componentType":5123,
			"count":96,
			"type":"SCALAR"
		},
		{
			"bufferView":54,
			"componentType":5126,
			"count":832,
			"max":[
				15.878299713134766,
				1,
				15.878231048583984
			],
			"min":[
				-15.878170013427734,
				-1.0146540403366089,
				-15.878231048583984
			],
			"type":"VEC3"
		},
		{
			"bufferView":55,
			"componentType":5126,
			"count":832,
			"type":"VEC3"
		},
		{
			"bufferView":56,
			"componentType":5126,
			"count":832,
			"type":"VEC2"
		},
		{
			"bufferView":57,
			"componentType":5123,
			"count":1908,
			"type":"SCALAR"
		},
		{
			"bufferView":58,
			"componentType":5126,
			"count":246,
			"max":[
				2.296663999557495,
				0.9999990463256836,
				2.296663522720337
			],
			"min":[
				-2.296663999557495,
				-1.0000007152557373,
				-2.2966644763946533
			],
			"type":"VEC3"
		},
		{
			"bufferView":59,
			"componentType":5126,
			"count":246,
			"type":"VEC3"
		},
		{
			"bufferView":60,
			"componentType":5126,
			"count":246,
			"type":"VEC2"
		},
		{
			"bufferView":61,
			"componentType":5123,
			"count":756,
			"type":"SCALAR"
		},
		{
			"bufferView":62,
			"componentType":5126,
			"count":130,
			"max":[
				2.296663999557495,
				1,
				2.296663999557495
			],
			"min":[
				-2.296663999557495,
				-0.9999998211860657,
				-2.296663999557495
			],
			"type":"VEC3"
		},
		{
			"bufferView":63,
			"componentType":5126,
			"count":130,
			"type":"VEC3"
		},
		{
			"bufferView":64,
			"componentType":5126,
			"count":130,
			"type":"VEC2"
		},
		{
			"bufferView":65,
			"componentType":5123,
			"count":372,
			"type":"SCALAR"
		}
	],
	"bufferViews":[
		{
			"buffer":0,
			"byteLength":288,
			"byteOffset":0,
			"target":34962
		},
		{
			"buffer":0,
			"byteLength":288,
			"byteOffset":288,
			"target":34962
		},
		{
			"buffer":0,
			"byteLength":192,
			"byteOffset":576,
			"target":34962
		},
		{
			"buffer":0,
			"byteLength":384,
			"byteOffset":768,
			"target":34962
		},
		{
			"buffer":0,
			"byteLength":72,
			"byteOffset":1152,
			"target":34963
		},
		{
			"buffer":0,
			"byteLength":288,
			"byteOffset":1224,
			"target":34962
		},
		{
			"buffer":0,
			"byteLength":288,
			"byteOffset":1512,
			"target":34962
		},
		{
			"buffer":0,
			"byteLength":192,
			"byteOffset":1800,
			"target":34962
		},
		{
			"buffer":0,
			"byteLength":384,
			"byteOffset":1992,
			"target":34962
		},
		{
			"buffer":0,
			"byteLength":288,
			"byteOffset":2376,
			"target":34962
		},
		{
			"buffer":0,
			"byteLength":288,
			"byteOffset":2664,
			"target":34962
		},
		{
			"buffer":0,
			"byteLength":192,
			"byteOffset":2952,
			"target":34962
		},
		{
			"buffer":0,
			"byteLength":384,
			"byteOffset":3144,
			"target":34962
		},
		{
			"buffer":0,
			"byteLength":72,
			"byteOffset":3528,
			"target":34963
		},
		{
			"buffer":0,
			"byteLength":288,
			"byteOffset":3600,
			"target":34962
		},
		{
			"buffer":0,
			"byteLength":288,
			"byteOffset":3888,
			"target":34962
		},
		{
			"buffer":0,
			"byteLength":192,
			"byteOffset":4176,
			"target":34962
		},
		{
			"buffer":0,
			"byteLength":384,
			"byteOffset":4368,
			"target":34962
		},
		{
			"buffer":0,
			"byteLength":576,
			"byteOffset":4752,
			"target":34962
		},
		{
			"buffer":0,
			"byteLength":576,
			"byteOffset":5328,
			"target":34962
		},
		{
			"buffer":0,
			"byteLength":384,
			"byteOffset":5904,
			"target":34962
		},
		{
			"buffer":0,
			"byteLength":192,
			"byteOffset":6288,
			"target":34963
		},
		{
			"buffer":0,
			"byteLength":288,
			"byteOffset":6480,
			"target":34962
		},
		{
			"buffer":0,
			"byteLength":288,
			"byteOffset":6768,
			"target":34962
		},
		{
			"buffer":0,
			"byteLength":192,
			"byteOffset":7056,
			"target":34962
		},
		{
			"buffer":0,
			"byteLength":384,
			"byteOffset":7248,
			"target":34962
		},
		{
			"buffer":0,
			"byteLength":288,
			"byteOffset":7632,
			"target":34962
		},
		{
			"buffer":0,
			"byteLength":288,
			"byteOffset":7920,
			"target":34962
		},
		{
			"buffer":0,
			"byteLength":192,
			"byteOffset":8208,
			"target":34962
		},
		{
			"buffer":0,
			"byteLength":384,
			"byteOffset":8400,
			"target":34962
		},
		{
			"buffer":0,
			"byteLength":288,
			"byteOffset":8784,
			"target":34962
		},
		{
			"buffer":0,
			"byteLength":288,
			"byteOffset":9072,
			"target":34962
		},
		{
			"buffer":0,
			"byteLength":192,
			"byteOffset":9360,
			"target":34962
		},
		{
			"buffer":0,
			"byteLength":384,
			"byteOffset":9552,
			"target":34962
		},
		{
			"buffer":0,
			"byteLength":288,
			"byteOffset":9936,
			"target":34962
		},
		{
			"buffer":0,
			"byteLength":288,
			"byteOffset":10224,
			"target":34962
		},
		{
			"buffer":0,
			"byteLength":192,
			"byteOffset":10512,
			"target":34962
		},
		{
			"buffer":0,
			"byteLength":384,
			"byteOffset":10704,
			"target":34962
		},
		{
			"buffer":0,
			"byteLength":288,
			"byteOffset":11088,
			"target":34962
		},
		{
			"buffer":0,
			"byteLength":288,
			"byteOffset":11376,
			"target":34962
		},
		{
			"buffer":0,
			"byteLength":192,
			"byteOffset":11664,
			"target":34962
		},
		{
			"buffer":0,
			"byteLength":384,
			"byteOffset":11856,
			"target":34962
		},
		{
			"buffer":0,
			"byteLength":288,
			"byteOffset":12240,
			"target":34962
		},
		{
			"buffer":0,
			"byteLength":288,
			"byteOffset":12528,
			"target":34962
		},
		{
			"buffer":0,
			"byteLength":192,
			"byteOffset":12816,
			"target":34962
		},
		{
			"buffer":0,
			"byteLength":384,
			"byteOffset":13008,
			"target":34962
		},
		{
			"buffer":0,
			"byteLength":288,
			"byteOffset":13392,
			"target":34962
		},
		{
			"buffer":0,
			"byteLength":288,
			"byteOffset":13680,
			"target":34962
		},
		{
			"buffer":0,
			"byteLength":192,
			"byteOffset":13968,
			"target":34962
		},
		{
			"buffer":0,
			"byteLength":384,
			"byteOffset":14160,
			"target":34962
		},
		{
			"buffer":0,
			"byteLength":576,
			"byteOffset":14544,
			"target":34962
		},
		{
			"buffer":0,
			"byteLength":576,
			"byteOffset":15120,
			"target":34962
		},
		{
			"buffer":0,
			"byteLength":384,
			"byteOffset":15696,
			"target":34962
		},
		{
			"buffer":0,
			"byteLength":192,
			"byteOffset":16080,
			"target":34963
		},
		{
			"buffer":0,
			"byteLength":9984,
			"byteOffset":16272,
			"target":34962
		},
		{
			"buffer":0,
			"byteLength":9984,
			"byteOffset":26256,
			"target":34962
		},
		{
			"buffer":0,
			"byteLength":6656,
			"byteOffset":36240,
			"target":34962
		},
		{
			"buffer":0,
			"byteLength":3816,
			"byteOffset":42896,
			"target":34963
		},
		{
			"buffer":0,
			"byteLength":2952,
			"byteOffset":46712,
			"target":34962
		},
		{
			"buffer":0,
			"byteLength":2952,
			"byteOffset":49664,
			"target":34962
		},
		{
			"buffer":0,
			"byteLength":1968,
			"byteOffset":52616,
			"target":34962
		},
		{
			"buffer":0,
			"byteLength":1512,
			"byteOffset":54584,
			"target":34963
		},
		{
			"buffer":0,
			"byteLength":1560,
			"byteOffset":56096,
			"target":34962
		},
		{
			"buffer":0,
			"byteLength":1560,
			"byteOffset":57656,
			"target":34962
		},
		{
			"buffer":0,
			"byteLength":1040,
			"byteOffset":59216,
			"target":34962
		},
		{
			"buffer":0,
			"byteLength":744,
			"byteOffset":60256,
			"target":34963
		}
	],
	"samplers":[
		{
			"magFilter":9729,
			"minFilter":9987
		}
	],
	"buffers":[
		{
			"byteLength":61000,
			"uri":"room2-e836a5de30c2005f3132e7faf3bfee6a.bin"
		}
	]
}
