{
	"asset":{
		"generator":"Khronos glTF Blender I/O v3.6.27",
		"version":"2.0"
	},
	"scene":0,
	"scenes":[
		{
			"name":"Scene",
			"nodes":[
				0,
				1,
				2,
				3,
				4
			]
		}
	],
	"nodes":[
		{
			"mesh":0,
			"name":"Cube",
			"scale":[
				0.06849141418933868,
				1,
				0.07623859494924545
			]
		},
		{
			"mesh":1,
			"name":"Cube.001",
			"rotation":[
				-0.05768952891230583,
				-0.03695585951209068,
				0.09626650810241699,
				0.9929949641227722
			],
			"scale":[
				0.05948005989193916,
				0.8684309124946594,
				0.06620795279741287
			],
			"translation":[
				-0.15408523380756378,
				-0.1264289915561676,
				-0.14296337962150574
			]
		},
		{
			"mesh":2,
			"name":"Cube.002",
			"rotation":[
				-0.06364379078149796,
				-0.03440079092979431,
				0.007619688753038645,
				0.9973505735397339
			],
			"scale":[
				0.06206286698579788,
				0.9061408042907715,
				0.06908288598060608
			],
			"translation":[
				0.004926517605781555,
				-0.1264289915561676,
				-0.14296337962150574
			]
		},
		{
			"mesh":3,
			"name":"Cube.003",
			"rotation":[
				-0.009989924728870392,
				-0.9979395270347595,
				-0.0633150190114975,
				0.0028499567415565252
			],
			"scale":[
				0.055746596306562424,
				0.8139209151268005,
				0.062052175402641296
			],
			"translation":[
				0.004926517605781555,
				-0.15427275002002716,
				0.09661398082971573
			]
		},
		{
			"mesh":4,
			"name":"Cube.004",
			"rotation":[
				-0.005585239268839359,
				0.9691310524940491,
				0.06385449320077896,
				0.23806820809841156
			],
			"scale":[
				0.055746596306562424,
				0.8139209151268005,
				0.062052175402641296
			],
			"translation":[
				-0.020040147006511688,
				-0.1459854394197464,
				0.011803559958934784
			]
		}
	],
	"materials":[
		{
			"doubleSided":true,
			"name":"Material.004",
			"pbrMetallicRoughness":{
				"baseColorTexture":{
					"index":0
				},
				"metallicFactor":0,
				"roughnessFactor":0.5
			}
		}
	],
	"meshes":[
		{
			"name":"Cube",
			"primitives":[
				{
					"attributes":{
						"POSITION":0,
						"NORMAL":1,
						"TEXCOORD_0":2,
						"TANGENT":3
					},
					"indices":4,
					"material":0
				}
			]
		},
		{
			"name":"Cube.001",
			"primitives":[
				{
					"attributes":{
						"POSITION":5,
						"NORMAL":6,
						"TEXCOORD_0":7,
						"TANGENT":8
					},
					"indices":9,
					"material":0
				}
			]
		},
		{
			"name":"Cube.002",
			"primitives":[
				{
					"attributes":{
						"POSITION":10,
						"NORMAL":11,
						"TEXCOORD_0":12,
						"TANGENT":13
					},
					"indices":14,
					"material":0
				}
			]
		},
		{
			"name":"Cube.003",
			"primitives":[
				{
					"attributes":{
						"POSITION":15,
						"NORMAL":16,
						"TEXCOORD_0":17,
						"TANGENT":18
					},
					"indices":19,
					"material":0
				}
			]
		},
		{
			"name":"Cube.004",
			"primitives":[
				{
					"attributes":{
						"POSITION":20,
						"NORMAL":21,
						"TEXCOORD_0":22,
						"TANGENT":23
					},
					"indices":14,
					"material":0
				}
			]
		}
	],
	"textures":[
		{
			"sampler":0,
			"source":0
		}
	],
	"images":[
		{
			"mimeType":"image/png",
			"name":"seaweed",
			"uri":"../../Assets/Textures/seaweed.png"
		}
	],
	"accessors":[
		{
			"bufferView":0,
			"componentType":5126,
			"count":280,
			"max":[
				1.1503113508224487,
				0.9150413274765015,
				0.9024503231048584
			],
			"min":[
				-1.0063536167144775,
				-0.8969561457633972,
				-0.817891001701355
			],
			"type":"VEC3"
		},
		{
			"bufferView":1,
			"componentType":5126,
			"count":280,
			"type":"VEC3"
		},
		{
			"bufferView":2,
			"componentType":5126,
			"count":280,
			"type":"VEC2"
		},
		{
			"bufferView":3,
			"componentType":5126,
			"count":280,
			"type":"VEC4"
		},
		{
			"bufferView":4,
			"componentType":5123,
			"count":420,
			"type":"SCALAR"
		},
		{
			"bufferView":5,
			"componentType":5126,
			"count":280,
			"max":[
				1.5361183881759644,
				0.9113792777061462,
				0.8151233792304993
			],
			"min":[
				-0.9285470247268677,
				-0.899145781993866,
				-1.8713459968566895
			],
			"type":"VEC3"
		},
		{
			"bufferView":6,
			"componentType":5126,
			"count":280,
			"type":"VEC3"
		},
		{
			"bufferView":7,
			"componentType":5126,
			"count":280,
			"type":"VEC2"
		},
		{
			"bufferView":8,
			"componentType":5126,
			"count":280,
			"type":"VEC4"
		},
		{
			"bufferView":9,
			"componentType":5123,
			"count":420,
			"type":"SCALAR"
		},
		{
			"bufferView":10,
			"componentType":5126,
			"count":280,
			"max":[
				1.738721251487732,
				0.9136818647384644,
				0.8284955024719238
			],
			"min":[
				-0.8087759613990784,
				-0.8970656394958496,
				-1.0011069774627686
			],
			"type":"VEC3"
		},
		{
			"bufferView":11,
			"componentType":5126,
			"count":280,
			"type":"VEC3"
		},
		{
			"bufferView":12,
			"componentType":5126,
			"count":280,
			"type":"VEC2"
		},
		{
			"bufferView":13,
			"componentType":5126,
			"count":280,
			"type":"VEC4"
		},
		{
			"bufferView":14,
			"componentType":5123,
			"count":420,
			"type":"SCALAR"
		},
		{
			"bufferView":15,
			"componentType":5126,
			"count":280,
			"max":[
				1.928112268447876,
				0.9129456877708435,
				0.8417156934738159
			],
			"min":[
				-0.7780389785766602,
				-0.89727383852005,
				-1.0503686666488647
			],
			"type":"VEC3"
		},
		{
			"bufferView":16,
			"componentType":5126,
			"count":280,
			"type":"VEC3"
		},
		{
			"bufferView":17,
			"componentType":5126,
			"count":280,
			"type":"VEC2"
		},
		{
			"bufferView":18,
			"componentType":5126,
			"count":280,
			"type":"VEC4"
		},
		{
			"bufferView":19,
			"componentType":5123,
			"count":420,
			"type":"SCALAR"
		},
		{
			"bufferView":20,
			"componentType":5126,
			"count":280,
			"max":[
				1.738721251487732,
				0.9136818647384644,
				0.8284955024719238
			],
			"min":[
				-0.8087759613990784,
				-0.8970656394958496,
				-1.0011069774627686
			],
			"type":"VEC3"
		},
		{
			"bufferView":21,
			"componentType":5126,
			"count":280,
			"type":"VEC3"
		},
		{
			"bufferView":22,
			"componentType":5126,
			"count":280,
			"type":"VEC2"
		},
		{
			"bufferView":23,
			"componentType":5126,
			"count":280,
			"type":"VEC4"
		}
	],
	"bufferViews":[
		{
			"buffer":0,
			"byteLength":3360,
			"byteOffset":0,
			"target":34962
		},
		{
			"buffer":0,
			"byteLength":3360,
			"byteOffset":3360,
			"target":34962
		},
		{
			"buffer":0,
			"byteLength":2240,
			"byteOffset":6720,
			"target":34962
		},
		{
			"buffer":0,
			"byteLength":4480,
			"byteOffset":8960,
			"target":34962
		},
		{
			"buffer":0,
			"byteLength":840,
			"byteOffset":13440,
			"target":34963
		},
		{
			"buffer":0,
			"byteLength":3360,
			"byteOffset":14280,
			"target":34962
		},
		{
			"buffer":0,
			"byteLength":3360,
			"byteOffset":17640,
			"target":34962
		},
		{
			"buffer":0,
			"byteLength":2240,
			"byteOffset":21000,
			"target":34962
		},
		{
			"buffer":0,
			"byteLength":4480,
			"byteOffset":23240,
			"target":34962
		},
		{
			"buffer":0,
			"byteLength":840,
			"byteOffset":27720,
			"target":34963
		},
		{
			"buffer":0,
			"byteLength":3360,
			"byteOffset":28560,
			"target":34962
		},
		{
			"buffer":0,
			"byteLength":3360,
			"byteOffset":31920,
			"target":34962
		},
		{
			"buffer":0,
			"byteLength":2240,
			"byteOffset":35280,
			"target":34962
		},
		{
			"buffer":0,
			"byteLength":4480,
			"byteOffset":37520,
			"target":34962
		},
		{
			"buffer":0,
			"byteLength":840,
			"byteOffset":42000,
			"target":34963
		},
		{
			"buffer":0,
			"byteLength":3360,
			"byteOffset":42840,
			"target":34962
		},
		{
			"buffer":0,
			"byteLength":3360,
			"byteOffset":46200,
			"target":34962
		},
		{
			"buffer":0,
			"byteLength":2240,
			"byteOffset":49560,
			"target":34962
		},
		{
			"buffer":0,
			"byteLength":4480,
			"byteOffset":51800,
			"target":34962
		},
		{
			"buffer":0,
			"byteLength":840,
			"byteOffset":56280,
			"target":34963
		},
		{
			"buffer":0,
			"byteLength":3360,
			"byteOffset":57120,
			"target":34962
		},
		{
			"buffer":0,
			"byteLength":3360,
			"byteOffset":60480,
			"target":34962
		},
		{
			"buffer":0,
			"byteLength":2240,
			"byteOffset":63840,
			"target":34962
		},
		{
			"buffer":0,
			"byteLength":4480,
			"byteOffset":66080,
			"target":34962
		}
	],
	"samplers":[
		{
			"magFilter":9729,
			"minFilter":9987
		}
	],
	"buffers":[
		{
			"byteLength":70560,
			"uri":"seaweed-f675ed16ca0beb944365224568fb1447.bin"
		}
	]
}
