{
	"asset":{
		"generator":"Khronos glTF Blender I/O v3.6.27",
		"version":"2.0"
	},
	"scene":0,
	"scenes":[
		{
			"name":"Scene",
			"nodes":[
				0,
				1,
				2,
				3,
				4
			]
		}
	],
	"nodes":[
		{
			"mesh":0,
			"name":"Feesh",
			"scale":[
				0.24565389752388,
				0.1894506961107254,
				0.4806099534034729
			],
			"translation":[
				0.8718408346176147,
				0.07582899183034897,
				-0.009036332368850708
			]
		},
		{
			"mesh":1,
			"name":"Eye",
			"scale":[
				0.036923352628946304,
				0.0722387507557869,
				0.0722387507557869
			],
			"translation":[
				1.3380504846572876,
				0.30799150466918945,
				0.2924044728279114
			]
		},
		{
			"mesh":2,
			"name":"Eyesmall",
			"scale":[
				0.015918754041194916,
				0.031144270673394203,
				0.031144270673394203
			],
			"translation":[
				1.3568556308746338,
				0.3029465973377228,
				0.30341726541519165
			]
		},
		{
			"mesh":3,
			"name":"Sphere",
			"scale":[
				0.04839561507105827,
				0.0946836844086647,
				0.0946836844086647
			],
			"translation":[
				1.056281328201294,
				-0.10278213024139404,
				-0.6563771963119507
			]
		},
		{
			"mesh":4,
			"name":"Torus",
			"scale":[
				0.2983354926109314,
				0.15060944855213165,
				0.39075765013694763
			],
			"translation":[
				0.8829027414321899,
				0.4580650329589844,
				0
			]
		}
	],
	"animations":[
		{
			"channels":[
				{
					"sampler":0,
					"target":{
						"node":0,
						"path":"translation"
					}
				},
				{
					"sampler":1,
					"target":{
						"node":0,
						"path":"rotation"
					}
				},
				{
					"sampler":2,
					"target":{
						"node":0,
						"path":"scale"
					}
				}
			],
			"name":"FeeshAction",
			"samplers":[
				{
					"input":24,
					"interpolation":"LINEAR",
					"output":25
				},
				{
					"input":24,
					"interpolation":"LINEAR",
					"output":26
				},
				{
					"input":24,
					"interpolation":"LINEAR",
					"output":27
				}
			]
		}
	],
	"materials":[
		{
			"doubleSided":true,
			"name":"Material",
			"pbrMetallicRoughness":{
				"baseColorTexture":{
					"index":0
				},
				"metallicFactor":0,
				"roughnessFactor":0.4000000059604645
			}
		},
		{
			"doubleSided":true,
			"name":"Material.004",
			"pbrMetallicRoughness":{
				"baseColorTexture":{
					"index":1
				},
				"metallicFactor":0,
				"roughnessFactor":0.5
			}
		},
		{
			"doubleSided":true,
			"name":"Material.005",
			"pbrMetallicRoughness":{
				"baseColorTexture":{
					"index":2
				},
				"metallicFactor":0,
				"roughnessFactor":0.5
			}
		},
		{
			"doubleSided":true,
			"name":"Material.001",
			"pbrMetallicRoughness":{
				"baseColorTexture":{
					"index":3
				},
				"metallicFactor":0,
				"roughnessFactor":0.5
			}
		},
		{
			"doubleSided":true,
			"name":"Material.002",
			"pbrMetallicRoughness":{
				"baseColorTexture":{
					"index":4
				},
				"metallicFactor":0,
				"roughnessFactor":0.5
			}
		}
	],
	"meshes":[
		{
			"name":"Cube",
			"primitives":[
				{
					"attributes":{
						"POSITION":0,
						"NORMAL":1,
						"TEXCOORD_0":2,
						"TANGENT":3
					},
					"indices":4,
					"material":0
				}
			]
		},
		{
			"name":"Sphere",
			"primitives":[
				{
					"attributes":{
						"POSITION":5,
						"NORMAL":6,
						"TEXCOORD_0":7,
						"TANGENT":8
					},
					"indices":9,
					"material":1
				}
			]
		},
		{
			"name":"Sphere.001",
			"primitives":[
				{
					"attributes":{
						"POSITION":10,
						"NORMAL":11,
						"TEXCOORD_0":12,
						"TANGENT":13
					},
					"indices":9,
					"material":2
				}
			]
		},
		{
			"name":"Sphere.002",
			"primitives":[
				{
					"attributes":{
						"POSITION":14,
						"NORMAL":15,
						"TEXCOORD_0":16,
						"TANGENT":17
					},
					"indices":18,
					"material":3
				}
			]
		},
		{
			"name":"Torus",
			"primitives":[
				{
					"attributes":{
						"POSITION":19,
						"NORMAL":20,
						"TEXCOORD_0":21,
						"TANGENT":22
					},
					"indices":23,
					"material":4
				}
			]
		}
	],
	"textures":[
		{
			"sampler":0,
			"source":0
		},
		{
			"sampler":0,
			"source":1
		},
		{
			"sampler":0,
			"source":2
		},
		{
			"sampler":0,
			"source":0
		},
		{
			"sampler":0,
			"source":3
		}
	],
	"images":[
		{
			"mimeType":"image/png",
			"name":"speedrunner",
			"uri":"../../Assets/Textures/speedrunner.png"
		},
		{
			"mimeType":"image/png",
			"name":"Eyeball-texture.png",
			"uri":"../../Assets/Textures/Eyeball-texture.png"
		},
		{
			"mimeType":"image/png",
			"name":"eyesmall.png",
			"uri":"../../Assets/Textures/eyesmall.png"
		},
		{
			"mimeType":"image/png",
			"name":"headband",
			"uri":"../../Assets/Textures/headband.png"
		}
	],
	"accessors":[
		{
			"bufferView":0,
			"componentType":5126,
			"count":229,
			"max":[
				2.741283893585205,
				2.263441801071167,
				1.2491631507873535
			],
			"min":[
				-3.5257725715637207,
				-2.2549374103546143,
				-1.2491631507873535
			],
			"type":"VEC3"
		},
		{
			"bufferView":1,
			"componentType":5126,
			"count":229,
			"type":"VEC3"
		},
		{
			"bufferView":2,
			"componentType":5126,
			"count":229,
			"type":"VEC2"
		},
		{
			"bufferView":3,
			"componentType":5126,
			"count":229,
			"type":"VEC4"
		},
		{
			"bufferView":4,
			"componentType":5123,
			"count":612,
			"type":"SCALAR"
		},
		{
			"bufferView":5,
			"componentType":5126,
			"count":1118,
			"max":[
				0.9999998211860657,
				1.0000003576278687,
				0.9999994039535522
			],
			"min":[
				-0.9999991655349731,
				-1,
				-9.345682144165039
			],
			"type":"VEC3"
		},
		{
			"bufferView":6,
			"componentType":5126,
			"count":1118,
			"type":"VEC3"
		},
		{
			"bufferView":7,
			"componentType":5126,
			"count":1118,
			"type":"VEC2"
		},
		{
			"bufferView":8,
			"componentType":5126,
			"count":1118,
			"type":"VEC4"
		},
		{
			"bufferView":9,
			"componentType":5123,
			"count":5760,
			"type":"SCALAR"
		},
		{
			"bufferView":10,
			"componentType":5126,
			"count":1118,
			"max":[
				1.2979267835617065,
				1.2979295253753662,
				1.2979321479797363
			],
			"min":[
				-1.2979471683502197,
				-1.2979443073272705,
				-21.36285400390625
			],
			"type":"VEC3"
		},
		{
			"bufferView":11,
			"componentType":5126,
			"count":1118,
			"type":"VEC3"
		},
		{
			"bufferView":12,
			"componentType":5126,
			"count":1118,
			"type":"VEC2"
		},
		{
			"bufferView":13,
			"componentType":5126,
			"count":1118,
			"type":"VEC4"
		},
		{
			"bufferView":14,
			"componentType":5126,
			"count":1118,
			"max":[
				0.9999997019767761,
				1,
				14.673759460449219
			],
			"min":[
				-0.9999990463256836,
				-1.0000001192092896,
				-1
			],
			"type":"VEC3"
		},
		{
			"bufferView":15,
			"componentType":5126,
			"count":1118,
			"type":"VEC3"
		},
		{
			"bufferView":16,
			"componentType":5126,
			"count":1118,
			"type":"VEC2"
		},
		{
			"bufferView":17,
			"componentType":5126,
			"count":1118,
			"type":"VEC4"
		},
		{
			"bufferView":18,
			"componentType":5123,
			"count":5760,
			"type":"SCALAR"
		},
		{
			"bufferView":19,
			"componentType":5126,
			"count":637,
			"max":[
				1.25,
				0.25,
				1.25
			],
			"min":[
				-1.25,
				-0.25,
				-1.25
			],
			"type":"VEC3"
		},
		{
			"bufferView":20,
			"componentType":5126,
			"count":637,
			"type":"VEC3"
		},
		{
			"bufferView":21,
			"componentType":5126,
			"count":637,
			"type":"VEC2"
		},
		{
			"bufferView":22,
			"componentType":5126,
			"count":637,
			"type":"VEC4"
		},
		{
			"bufferView":23,
			"componentType":5123,
			"count":3456,
			"type":"SCALAR"
		},
		{
			"bufferView":24,
			"componentType":5126,
			"count":1,
			"max":[
				0.041666666666666664
			],
			"min":[
				0.041666666666666664
			],
			"type":"SCALAR"
		},
		{
			"bufferView":25,
			"componentType":5126,
			"count":1,
			"type":"VEC3"
		},
		{
			"bufferView":26,
			"componentType":5126,
			"count":1,
			"type":"VEC4"
		},
		{
			"bufferView":27,
			"componentType":5126,
			"count":1,
			"type":"VEC3"
		}
	],
	"bufferViews":[
		{
			"buffer":0,
			"byteLength":2748,
			"byteOffset":0,
			"target":34962
		},
		{
			"buffer":0,
			"byteLength":2748,
			"byteOffset":2748,
			"target":34962
		},
		{
			"buffer":0,
			"byteLength":1832,
			"byteOffset":5496,
			"target":34962
		},
		{
			"buffer":0,
			"byteLength":3664,
			"byteOffset":7328,
			"target":34962
		},
		{
			"buffer":0,
			"byteLength":1224,
			"byteOffset":10992,
			"target":34963
		},
		{
			"buffer":0,
			"byteLength":13416,
			"byteOffset":12216,
			"target":34962
		},
		{
			"buffer":0,
			"byteLength":13416,
			"byteOffset":25632,
			"target":34962
		},
		{
			"buffer":0,
			"byteLength":8944,
			"byteOffset":39048,
			"target":34962
		},
		{
			"buffer":0,
			"byteLength":17888,
			"byteOffset":47992,
			"target":34962
		},
		{
			"buffer":0,
			"byteLength":11520,
			"byteOffset":65880,
			"target":34963
		},
		{
			"buffer":0,
			"byteLength":13416,
			"byteOffset":77400,
			"target":34962
		},
		{
			"buffer":0,
			"byteLength":13416,
			"byteOffset":90816,
			"target":34962
		},
		{
			"buffer":0,
			"byteLength":8944,
			"byteOffset":104232,
			"target":34962
		},
		{
			"buffer":0,
			"byteLength":17888,
			"byteOffset":113176,
			"target":34962
		},
		{
			"buffer":0,
			"byteLength":13416,
			"byteOffset":131064,
			"target":34962
		},
		{
			"buffer":0,
			"byteLength":13416,
			"byteOffset":144480,
			"target":34962
		},
		{
			"buffer":0,
			"byteLength":8944,
			"byteOffset":157896,
			"target":34962
		},
		{
			"buffer":0,
			"byteLength":17888,
			"byteOffset":166840,
			"target":34962
		},
		{
			"buffer":0,
			"byteLength":11520,
			"byteOffset":184728,
			"target":34963
		},
		{
			"buffer":0,
			"byteLength":7644,
			"byteOffset":196248,
			"target":34962
		},
		{
			"buffer":0,
			"byteLength":7644,
			"byteOffset":203892,
			"target":34962
		},
		{
			"buffer":0,
			"byteLength":5096,
			"byteOffset":211536,
			"target":34962
		},
		{
			"buffer":0,
			"byteLength":10192,
			"byteOffset":216632,
			"target":34962
		},
		{
			"buffer":0,
			"byteLength":6912,
			"byteOffset":226824,
			"target":34963
		},
		{
			"buffer":0,
			"byteLength":4,
			"byteOffset":233736
		},
		{
			"buffer":0,
			"byteLength":12,
			"byteOffset":233740
		},
		{
			"buffer":0,
			"byteLength":16,
			"byteOffset":233752
		},
		{
			"buffer":0,
			"byteLength":12,
			"byteOffset":233768
		}
	],
	"samplers":[
		{
			"magFilter":9729,
			"minFilter":9987
		}
	],
	"buffers":[
		{
			"byteLength":233780,
			"uri":"speedrunner-af1e868d5abe7bcfc0391b1d624d513a.bin"
		}
	]
}
