{
	"asset":{
		"generator":"Khronos glTF Blender I/O v3.6.27",
		"version":"2.0"
	},
	"scene":0,
	"scenes":[
		{
			"name":"Scene",
			"nodes":[
				0
			]
		}
	],
	"nodes":[
		{
			"mesh":0,
			"name":"Plane",
			"scale":[
				79.48822784423828,
				79.48822784423828,
				79.48822784423828
			]
		}
	],
	"meshes":[
		{
			"name":"Plane",
			"primitives":[
				{
					"attributes":{
						"POSITION":0,
						"NORMAL":1,
						"TEXCOORD_0":2,
						"TANGENT":3
					},
					"indices":4
				}
			]
		}
	],
	"accessors":[
		{
			"bufferView":0,
			"componentType":5126,
			"count":4489,
			"max":[
				1.0006036758422852,
				0.7254014015197754,
				1.0000001192092896
			],
			"min":[
				-1.0181236267089844,
				-0.20876626670360565,
				-1.0013465881347656
			],
			"type":"VEC3"
		},
		{
			"bufferView":1,
			"componentType":5126,
			"count":4489,
			"type":"VEC3"
		},
		{
			"bufferView":2,
			"componentType":5126,
			"count":4489,
			"type":"VEC2"
		},
		{
			"bufferView":3,
			"componentType":5126,
			"count":4489,
			"type":"VEC4"
		},
		{
			"bufferView":4,
			"componentType":5123,
			"count":26136,
			"type":"SCALAR"
		}
	],
	"bufferViews":[
		{
			"buffer":0,
			"byteLength":53868,
			"byteOffset":0,
			"target":34962
		},
		{
			"buffer":0,
			"byteLength":53868,
			"byteOffset":53868,
			"target":34962
		},
		{
			"buffer":0,
			"byteLength":35912,
			"byteOffset":107736,
			"target":34962
		},
		{
			"buffer":0,
			"byteLength":71824,
			"byteOffset":143648,
			"target":34962
		},
		{
			"buffer":0,
			"byteLength":52272,
			"byteOffset":215472,
			"target":34963
		}
	],
	"buffers":[
		{
			"byteLength":267744,
			"uri":"terrain-68e7ff993ecce30e513541b23bc3cb65.bin"
		}
	]
}
